<?xml version="1.0" encoding="utf-8"?>
<!-- Generator: Adobe Illustrator 15.0.2, SVG Export Plug-In . SVG Version: 6.00 Build 0)  -->
<!DOCTYPE svg PUBLIC "-//W3C//DTD SVG 1.1//EN" "http://www.w3.org/Graphics/SVG/1.1/DTD/svg11.dtd">
<svg version="1.1" id="Layer_1" xmlns="http://www.w3.org/2000/svg" xmlns:xlink="http://www.w3.org/1999/xlink" x="0px" y="0px"
	 width="160px" height="100px" viewBox="0 0 160 100" enable-background="new 0 0 160 100" xml:space="preserve">
<rect x="10" y="10" width="2" height="80"/>
<rect x="14" y="10" width="1" height="80"/>
<rect x="16" y="10" width="2" height="80"/>
<rect x="19" y="10" width="4" height="80"/>
<rect x="25" y="10" width="3" height="80"/>
<rect x="29" y="10" width="1" height="80"/>
<rect x="31" y="10" width="1" height="80"/>
<rect x="34" y="10" width="3" height="80"/>
<rect x="38" y="10" width="2" height="80"/>
<rect x="42" y="10" width="3" height="80"/>
<rect x="46" y="10" width="1" height="72"/>
<rect x="48" y="10" width="4" height="72"/>
<rect x="54" y="10" width="1" height="72"/>
<rect x="56" y="10" width="2" height="72"/>
<rect x="60" y="10" width="6" height="72"/>
<rect x="67" y="10" width="1" height="72"/>
<rect x="69" y="10" width="1" height="72"/>
<rect x="72" y="10" width="3" height="72"/>
<rect x="76" y="10" width="2" height="72"/>
<rect x="80" y="10" width="3" height="72"/>
<rect x="84" y="10" width="1" height="72"/>
<rect x="86" y="10" width="4" height="72"/>
<rect x="92" y="10" width="1" height="72"/>
<rect x="94" y="10" width="3" height="72"/>
<rect x="98" y="10" width="4" height="72"/>
<rect x="103" y="10" width="1" height="72"/>
<rect x="105" y="10" width="4" height="72"/>
<rect x="110" y="10" width="2" height="72"/>
<rect x="114" y="10" width="3" height="72"/>
<rect x="118" y="10" width="3" height="72"/>
<rect x="122" y="10" width="1" height="72"/>
<rect x="124" y="10" width="1" height="72"/>
<rect x="127" y="10" width="3" height="72"/>
<rect x="131" y="10" width="4" height="72"/>
<rect x="136" y="10" width="1" height="72"/>
<rect x="138" y="10" width="2" height="72"/>
<rect x="142" y="10" width="3" height="80"/>
<rect x="146" y="10" width="1" height="80"/>
<rect x="148" y="10" width="1" height="80"/>
<text transform="matrix(1 0 0 1 48.5 94)" font-family="'Courier'" font-size="15" letter-spacing="1">246510982</text>
</svg>
