<?xml version="1.0" encoding="utf-8"?>
<!-- Generator: Adobe Illustrator 15.0.2, SVG Export Plug-In . SVG Version: 6.00 Build 0)  -->
<!DOCTYPE svg PUBLIC "-//W3C//DTD SVG 1.1//EN" "http://www.w3.org/Graphics/SVG/1.1/DTD/svg11.dtd">
<svg version="1.1" id="Layer_1" xmlns="http://www.w3.org/2000/svg" xmlns:xlink="http://www.w3.org/1999/xlink" x="0px" y="0px"
	 width="880px" height="130px" viewBox="0 0 880 130" enable-background="new 0 0 880 130" xml:space="preserve">
<path fill="#141413" d="M460.31,41.095l-91.667-12.262l38.095,60.119l54.166-22.023l54.167,17.857l26.786-57.738L460.31,41.095z
	 M422.214,65.143l-16.071-16.667c0,0,26.786,0,30.357,2.381L422.214,65.143z M495.429,63.952l-15.477-13.095
	c0,0,22.024-5.952,29.167-3.571L495.429,63.952z"/>
<polygon fill="#FFFFFF" points="144.833,45.476 144.238,37.762 185.905,0.262 325.786,33.595 327.571,21.095 350.19,40.143 
	322.214,53.238 324.19,39.571 187.095,6.238 "/>
<polygon fill="#FFFFFF" points="557.834,57.023 557.238,64.738 598.904,102.238 738.785,68.904 740.571,81.404 763.19,62.357 
	735.215,49.262 737.19,62.929 600.096,96.262 "/>
<path fill="#C33A13" d="M0,129c0,0,39.476-23.786,61.5-32.119c0,0-31.548-21.429-25-58.929c0,0,23.215-16.667,57.738-13.095
	c0,0,23.214,16.096-3.572,60.12c0,0,11.31-5.952,34.524-6.548c0,0-16.072-19.643-22.024-50.595l3.572,1.786
	c0,0,5.357-35.715-32.143-29.762c0,0-39.881,9.524-47.619,27.977l-2.381,1.786C24.595,29.619,27.573,109.977,0,129z"/>
<path fill="#C33A13" d="M755,130c0,0,39.477-23.786,61.5-32.119c0,0-31.548-21.429-25-58.929c0,0,23.215-16.667,57.738-13.095
	c0,0,23.215,16.096-3.572,60.12c0,0,11.311-5.952,34.524-6.548c0,0-16.071-19.643-22.024-50.595l3.572,1.786
	c0,0,5.357-35.715-32.143-29.762c0,0-39.882,9.524-47.619,27.977l-2.381,1.786C779.596,30.619,782.572,110.977,755,130z"/>
<path fill="#141413" d="M826.932,44.433l-54.528-5.404l22.354,39.512l34.412-17.315l30.762,7.097l9.443-36.249L826.932,44.433z
	 M808.426,59.442l-8.402-7.658c0,0,12.396-0.907,14.663,0.43L808.426,59.442z M847.203,55.236l-8.917-5.492
	c0,0,10.28-4.39,14.733-3.173L847.203,55.236z"/>
</svg>
