<?xml version="1.0" encoding="utf-8"?>
<!-- Generator: Adobe Illustrator 15.0.2, SVG Export Plug-In . SVG Version: 6.00 Build 0)  -->
<!DOCTYPE svg PUBLIC "-//W3C//DTD SVG 1.1//EN" "http://www.w3.org/Graphics/SVG/1.1/DTD/svg11.dtd">
<svg version="1.1" id="Layer_1" xmlns="http://www.w3.org/2000/svg" xmlns:xlink="http://www.w3.org/1999/xlink" x="0px" y="0px"
	 width="920px" height="300px" viewBox="0 0 920 300" enable-background="new 0 0 920 300" xml:space="preserve">
<polygon fill="#DC4A17" points="0,0 120,0 120,259 0,299.999 "/>
<g>
	<path fill="#D6CEC9" d="M216.156,228.261c-1.255-1.343-2.68-2.533-4.285-3.562c16.409-8.788,25.908-24.62,25.908-44.256
		c0-7.955-2.341-14.244-7.125-18.723c-6.026-6.432-16.557-9.721-31.85-9.721h-27.476l-31.15,147h1.212l-0.212,1h23.8l14.35-68h7.875
		c3.932,0,7.008,1.172,9.212,3.064c2.039,2.335,3.088,5.82,3.088,10.25c0,2.625-0.35,5.755-1.05,9.08L189.003,299h1.212l-0.212,1
		h23.8l9.1-43.328c0.35-2.976,0.7-5.738,0.7-8.363C223.604,239.424,221.03,232.828,216.156,228.261z M213.503,183.172
		c0,22.4-12.95,33.828-24.15,33.828h-6.665l10.29-49h7.875c3.875,0,6.917,1.029,9.143,2.982
		C212.331,173.674,213.503,177.764,213.503,183.172z"/>
	<path fill="#D6CEC9" d="M316.081,166l0.212-1h-21.655l-20.222,95.576c-3.662,17.195-9.235,25.814-16.719,25.814
		c-1.946,0-3.536-0.512-4.782-1.511c-1.553-1.907-2.338-4.855-2.338-8.779c0-3.025,0.318-6.726,1.273-11.024L272.869,166h-1.212
		l0.212-1h-21.655l-20.858,98.602c-0.956,4.617-1.433,8.618-1.433,12.28c0,7.595,2.053,13.331,6.127,17.265
		c4.405,4.999,11.656,7.476,21.782,7.476c21.336,0,35.667-13.095,41.239-39.049L317.293,166H316.081z"/>
	<path fill="#D6CEC9" d="M380.505,187.258c0-6.091-1.888-10.895-5.652-14.35c-4.848-5.254-13.482-7.908-25.919-7.908h-23.247
		l-28.342,134h1.212l-0.212,1h28.979c25.795,0,48.246-17.122,48.246-51.196c0-10.27-2.609-17.782-7.727-22.55
		c-1.354-1.455-2.905-2.719-4.664-3.739C372.58,215.438,380.505,202.041,380.505,187.258z M358.965,189.442
		c0,1.593-0.159,3.344-0.478,5.255l-0.159,0.62C355.303,209.17,350.048,216,342.406,216h-4.679l7.749-36h2.866
		c3.712,0,6.512,0.646,8.439,2.287C358.24,184.065,358.965,186.325,358.965,189.442z M334.808,230h7.165
		c3.026,0,5.476,0.945,7.36,2.564c2.5,2.873,3.741,7.78,3.741,14.17c0,25.954-13.693,39.266-24.202,39.266h-5.95L334.808,230z"/>
	<polygon fill="#D6CEC9" points="584.378,166 584.59,165 562.936,165 550.516,224 528.958,224 541.166,166 539.954,166 540.166,165 
		518.512,165 490.17,299 491.382,299 491.17,300 512.824,300 525.881,238 547.438,238 534.594,299 535.806,299 535.594,300 
		557.248,300 585.59,166 	"/>
	<path fill="#D6CEC9" d="M697.386,234.376c-1.12-1.205-2.389-2.278-3.817-3.206c14.913-7.999,23.543-22.396,23.543-40.25
		c0-7.267-2.147-12.979-6.535-17.057c-5.476-5.881-15.067-8.863-29.016-8.863h-24.998l-28.344,134h1.212l-0.212,1h21.656l13.055-62
		h7.166c3.537,0,6.316,0.959,8.316,2.643c1.838,2.124,2.785,5.241,2.785,9.253c0,2.388-0.318,5.366-0.955,8.392l-8.6,40.713h1.212
		l-0.212,1h21.656l8.279-39.572c0.318-2.707,0.637-5.297,0.637-7.686C704.215,244.627,701.854,238.533,697.386,234.376z
		 M694.936,193.267c0,20.381-11.783,30.733-21.975,30.733h-5.953l9.342-44h7.166c3.517,0,6.278,0.709,8.302,2.477
		C693.896,184.926,694.936,188.4,694.936,193.267z"/>
	<path fill="#D6CEC9" d="M790.516,201.27c0.955-4.458,1.434-8.598,1.434-12.26c0-7.888-2.233-13.821-6.718-17.781
		c-4.45-4.606-11.489-6.943-21.192-6.943c-21.973,0-35.824,13.057-41.238,39.01l-12.738,60.347
		c-0.955,4.618-1.434,8.599-1.434,12.261c0,7.594,2.053,13.319,6.127,17.254c4.405,4.999,11.656,7.471,21.783,7.471
		c21.336,0,35.666-13.057,41.238-39.011L790.516,201.27z M731.283,276.105c0-3.025,0.318-6.688,1.275-10.986l12.896-60.824
		c3.662-17.037,9.076-25.476,16.559-25.476c2.042,0,3.695,0.518,4.976,1.536c1.539,1.885,2.306,4.809,2.306,8.769
		c0,2.866-0.639,6.528-1.275,10.669l-12.896,60.823c-3.662,17.196-9.234,25.795-16.719,25.795c-1.946,0-3.536-0.522-4.783-1.521
		C732.067,282.982,731.283,280.029,731.283,276.105z"/>
	<path fill="#D6CEC9" d="M919.967,200.474c0.477-3.503,0.637-6.688,0.637-9.712c0-9.587-2.369-16.637-7.066-20.822
		c-3.632-3.838-8.873-5.939-15.748-5.939h-1.752c-22.291,0-37.576,21.16-37.576,41.541c0,5.891,1.273,11.694,4.299,16.949
		l24.838,44.141l-0.318-0.3c0.637,2.069,0.957,3.83,0.957,5.582c0,8.279-8.281,14.493-19.268,14.493
		c-3.935,0-7.045-1.034-9.37-3.083c-2.744-3.109-4.118-7.989-4.118-14.701c0-1.752,0.158-3.504,0.318-5.414l-1.1,0.19
		c0.032-0.392,0.065-0.785,0.1-1.189l-12.898,2.229c-0.477,3.186-0.637,6.051-0.637,8.758c0,9.424,2.333,16.288,6.927,20.666
		c4.04,4.511,10.134,6.766,18.276,6.766c20.857,0,36.621-15.604,40.443-32.96l0.158-0.637c0.479-2.389,0.797-4.776,0.797-7.325
		c0-6.05-1.592-12.26-4.936-18.15l-24.84-44.105l0.318,0.318c-0.637-2.07-1.115-3.822-1.115-5.414
		c0-7.961,8.439-13.854,17.992-13.854c2.986,0,5.408,0.826,7.283,2.463c2.555,2.977,3.818,7.872,3.818,14.689
		c0,1.752-0.158,3.821-0.318,6.051l1.085-0.188c-0.028,0.393-0.056,0.784-0.085,1.188L919.967,200.474z"/>
	<polygon fill="#D6CEC9" points="468.512,165 455.137,165 421.985,223.057 416.172,166 415.274,166 415.172,165 389.059,165 
		399.409,249.197 388.9,299 390.111,299 389.9,300 411.554,300 422.7,247.172 469.512,166 467.935,166 	"/>
	<polygon fill="#D6CEC9" points="626.309,224 604.591,224 613.934,180 645.459,180 648.326,166 647.114,166 647.326,165 
		594.145,165 565.803,299 567.015,299 566.803,300 619.984,300 622.691,287 621.486,287 621.691,286 591.378,286 601.514,238 
		624.441,238 627.309,225 626.097,225 	"/>
	<polygon fill="#D6CEC9" points="838.238,224 816.522,224 825.863,180 857.391,180 860.256,166 859.044,166 859.256,165 
		806.076,165 777.732,299 778.944,299 778.732,300 831.914,300 834.621,287 833.416,287 833.621,286 803.308,286 813.443,238 
		836.373,238 839.238,225 838.026,225 	"/>
</g>
<g>
	<path fill="#FFFFFF" d="M214.156,226.261c-1.255-1.343-2.68-2.533-4.285-3.562c16.409-8.788,25.908-24.62,25.908-44.256
		c0-7.955-2.341-14.244-7.125-18.723c-6.026-6.432-16.557-9.721-31.85-9.721h-27.476l-31.15,147h1.212l-0.212,1h23.8l14.35-68h7.875
		c3.932,0,7.008,1.172,9.212,3.064c2.039,2.335,3.088,5.82,3.088,10.25c0,2.625-0.35,5.755-1.05,9.08L187.003,297h1.212l-0.212,1
		h23.8l9.1-43.328c0.35-2.976,0.7-5.738,0.7-8.363C221.604,237.424,219.03,230.828,214.156,226.261z M211.503,181.172
		c0,22.4-12.95,33.828-24.15,33.828h-6.665l10.29-49h7.875c3.875,0,6.917,1.029,9.143,2.982
		C210.331,171.674,211.503,175.764,211.503,181.172z"/>
	<path fill="#FFFFFF" d="M314.081,164l0.212-1h-21.655l-20.222,95.576c-3.662,17.195-9.235,25.814-16.719,25.814
		c-1.946,0-3.536-0.512-4.782-1.511c-1.553-1.907-2.338-4.855-2.338-8.779c0-3.025,0.318-6.726,1.273-11.024L270.869,164h-1.212
		l0.212-1h-21.655l-20.858,98.602c-0.956,4.617-1.433,8.618-1.433,12.28c0,7.595,2.053,13.331,6.127,17.265
		c4.405,4.999,11.656,7.476,21.782,7.476c21.336,0,35.667-13.095,41.239-39.049L315.293,164H314.081z"/>
	<path fill="#FFFFFF" d="M378.505,185.258c0-6.091-1.888-10.895-5.652-14.35c-4.848-5.254-13.482-7.908-25.919-7.908h-23.247
		l-28.342,134h1.212l-0.212,1h28.979c25.795,0,48.246-17.122,48.246-51.196c0-10.27-2.609-17.782-7.727-22.55
		c-1.354-1.455-2.905-2.719-4.664-3.739C370.58,213.438,378.505,200.041,378.505,185.258z M356.965,187.442
		c0,1.593-0.159,3.344-0.478,5.255l-0.159,0.62C353.303,207.17,348.048,214,340.406,214h-4.679l7.749-36h2.866
		c3.712,0,6.512,0.646,8.439,2.287C356.24,182.065,356.965,184.325,356.965,187.442z M332.808,228h7.165
		c3.026,0,5.476,0.945,7.36,2.564c2.5,2.873,3.741,7.78,3.741,14.17c0,25.954-13.693,39.266-24.202,39.266h-5.95L332.808,228z"/>
	<polygon fill="#FFFFFF" points="582.378,164 582.59,163 560.936,163 548.516,222 526.958,222 539.166,164 537.954,164 538.166,163 
		516.512,163 488.17,297 489.382,297 489.17,298 510.824,298 523.881,236 545.438,236 532.594,297 533.806,297 533.594,298 
		555.248,298 583.59,164 	"/>
	<path fill="#FFFFFF" d="M695.386,232.376c-1.12-1.205-2.389-2.278-3.817-3.206c14.913-7.999,23.543-22.396,23.543-40.25
		c0-7.267-2.147-12.979-6.535-17.057c-5.476-5.881-15.067-8.863-29.016-8.863h-24.998l-28.344,134h1.212l-0.212,1h21.656l13.055-62
		h7.166c3.537,0,6.316,0.959,8.316,2.643c1.838,2.124,2.785,5.241,2.785,9.253c0,2.388-0.318,5.366-0.955,8.392l-8.6,40.713h1.212
		l-0.212,1h21.656l8.279-39.572c0.318-2.707,0.637-5.297,0.637-7.686C702.215,242.627,699.854,236.533,695.386,232.376z
		 M692.936,191.267c0,20.381-11.783,30.733-21.975,30.733h-5.953l9.342-44h7.166c3.517,0,6.278,0.709,8.302,2.477
		C691.896,182.926,692.936,186.4,692.936,191.267z"/>
	<path fill="#FFFFFF" d="M788.516,199.27c0.955-4.458,1.434-8.598,1.434-12.26c0-7.888-2.233-13.821-6.718-17.781
		c-4.45-4.606-11.489-6.943-21.192-6.943c-21.973,0-35.824,13.057-41.238,39.01l-12.738,60.347
		c-0.955,4.618-1.434,8.599-1.434,12.261c0,7.594,2.053,13.319,6.127,17.254c4.405,4.999,11.656,7.471,21.783,7.471
		c21.336,0,35.666-13.057,41.238-39.011L788.516,199.27z M729.283,274.105c0-3.025,0.318-6.688,1.275-10.986l12.896-60.824
		c3.662-17.037,9.076-25.476,16.559-25.476c2.042,0,3.695,0.518,4.976,1.536c1.539,1.885,2.306,4.809,2.306,8.769
		c0,2.866-0.639,6.528-1.275,10.669l-12.896,60.823c-3.662,17.196-9.234,25.795-16.719,25.795c-1.946,0-3.536-0.522-4.783-1.521
		C730.067,280.982,729.283,278.029,729.283,274.105z"/>
	<path fill="#FFFFFF" d="M917.967,198.474c0.477-3.503,0.637-6.688,0.637-9.712c0-9.587-2.369-16.637-7.066-20.822
		c-3.632-3.838-8.873-5.939-15.748-5.939h-1.752c-22.291,0-37.576,21.16-37.576,41.541c0,5.891,1.273,11.694,4.299,16.949
		l24.838,44.141l-0.318-0.3c0.637,2.069,0.957,3.83,0.957,5.582c0,8.279-8.281,14.493-19.268,14.493
		c-3.935,0-7.045-1.034-9.37-3.083c-2.744-3.109-4.118-7.989-4.118-14.701c0-1.752,0.158-3.504,0.318-5.414l-1.1,0.19
		c0.032-0.392,0.065-0.785,0.1-1.189l-12.898,2.229c-0.477,3.186-0.637,6.051-0.637,8.758c0,9.424,2.333,16.288,6.927,20.666
		c4.04,4.511,10.134,6.766,18.276,6.766c20.857,0,36.621-15.604,40.443-32.96l0.158-0.637c0.479-2.389,0.797-4.776,0.797-7.325
		c0-6.05-1.592-12.26-4.936-18.15l-24.84-44.105l0.318,0.318c-0.637-2.07-1.115-3.822-1.115-5.414
		c0-7.961,8.439-13.854,17.992-13.854c2.986,0,5.408,0.826,7.283,2.463c2.555,2.977,3.818,7.872,3.818,14.689
		c0,1.752-0.158,3.821-0.318,6.051l1.085-0.188c-0.028,0.393-0.056,0.784-0.085,1.188L917.967,198.474z"/>
	<polygon fill="#FFFFFF" points="466.512,163 453.137,163 419.985,221.057 414.172,164 413.274,164 413.172,163 387.059,163 
		397.409,247.197 386.9,297 388.111,297 387.9,298 409.554,298 420.7,245.172 467.512,164 465.935,164 	"/>
	<polygon fill="#FFFFFF" points="624.309,222 602.591,222 611.934,178 643.459,178 646.326,164 645.114,164 645.326,163 
		592.145,163 563.803,297 565.015,297 564.803,298 617.984,298 620.691,285 619.486,285 619.691,284 589.378,284 599.514,236 
		622.441,236 625.309,223 624.097,223 	"/>
	<polygon fill="#FFFFFF" points="836.238,222 814.522,222 823.863,178 855.391,178 858.256,164 857.044,164 857.256,163 
		804.076,163 775.732,297 776.944,297 776.732,298 829.914,298 832.621,285 831.416,285 831.621,284 801.308,284 811.443,236 
		834.373,236 837.238,223 836.026,223 	"/>
</g>
<g>
	<path fill="#413D3A" d="M195.453,251.521c0.7-3.325,1.05-6.476,1.05-9.101c0-9.275-4.55-14-13.3-14h-7.875l-14.35,67.727h-23.8
		l31.15-147.003h27.476c25.725,0,37.976,9.101,37.976,27.3c0,19.775-9.625,35.701-26.25,44.451
		c7.875,4.375,12.075,12.075,12.075,23.451c0,2.625-0.35,5.424-0.7,8.399l-9.1,43.401h-23.8L195.453,251.521z M188.978,164.019
		l-10.5,49.876h7.875c11.2,0,24.15-11.375,24.15-33.775c0-10.676-4.55-16.101-13.65-16.101H188.978z"/>
	<path fill="#413D3A" d="M224.923,272.902c0-3.662,0.478-7.643,1.433-12.261l20.858-98.561h21.655l-21.018,99.038
		c-0.955,4.299-1.273,7.961-1.273,10.986c0,7.324,2.707,11.306,8.12,11.306c7.484,0,13.057-8.599,16.719-25.795l20.222-95.535
		h21.655l-20.222,95.535c-5.573,25.954-19.903,39.011-41.239,39.011C233.839,296.627,224.923,288.824,224.923,272.902z"/>
	<path fill="#413D3A" d="M345.934,162.081c20.381,0,30.571,7.006,30.571,21.177c0,14.967-8.121,28.502-17.674,35.508
		c8.439,4.14,12.738,12.738,12.738,25.953c0,34.074-22.451,51.111-48.246,51.111h-28.979l28.342-133.749H345.934z M330.808,226.249
		l-12.101,56.366h7.165c10.509,0,24.202-13.057,24.202-39.011c0-11.464-3.98-17.355-12.101-17.355H330.808z M341.476,175.615
		l-7.961,37.418h5.892c7.643,0,12.897-6.847,15.922-20.699l0.159-0.637c0.319-1.911,0.478-3.662,0.478-5.255
		c0-7.165-3.822-10.827-11.624-10.827H341.476z"/>
	<path fill="#413D3A" d="M418.223,221.473l33.915-59.392h13.375L418.7,243.127l-11.146,52.703H385.9l10.509-49.678l-10.35-84.071
		h26.113L418.223,221.473z"/>
	<path fill="#413D3A" d="M515.512,162.081h21.654l-12.42,58.595h22.77l12.42-58.595h21.654L553.248,295.83h-21.654l13.057-61.619
		h-22.77l-13.057,61.619H487.17L515.512,162.081z"/>
	<path fill="#413D3A" d="M562.803,295.83l28.342-133.749h53.182l-2.867,13.534h-31.525l-9.555,45.061h22.93l-2.867,13.535h-22.928
		l-10.35,48.404h31.527l-2.707,13.215H562.803z"/>
	<path fill="#413D3A" d="M678.242,255.229c0.637-3.025,0.955-5.893,0.955-8.28c0-8.438-4.141-12.737-12.102-12.737h-7.166
		l-13.055,61.619h-21.656l28.344-133.749h24.998c23.406,0,34.551,8.28,34.551,24.839c0,17.992-8.756,32.482-23.883,40.443
		c7.164,3.98,10.986,10.986,10.986,21.336c0,2.389-0.318,4.937-0.637,7.644l-8.279,39.487h-21.656L678.242,255.229z M672.35,175.615
		l-9.553,45.379h7.164c10.191,0,21.975-10.35,21.975-30.73c0-9.713-4.141-14.648-12.42-14.648H672.35z"/>
	<path fill="#413D3A" d="M705.629,272.902c0-3.662,0.479-7.643,1.434-12.261l12.738-60.347c5.414-25.953,19.266-39.01,41.238-39.01
		c17.992,0,26.91,7.961,26.91,23.725c0,3.662-0.479,7.802-1.434,12.26l-12.738,60.347c-5.572,25.954-19.902,39.011-41.238,39.011
		C714.545,296.627,705.629,288.824,705.629,272.902z M741.455,200.295l-12.896,60.824c-0.957,4.299-1.275,7.961-1.275,10.986
		c0,7.324,2.707,11.306,8.121,11.306c7.484,0,13.057-8.599,16.719-25.795l12.896-60.823c0.637-4.141,1.275-7.803,1.275-10.669
		c0-7.483-2.707-11.305-8.281-11.305C750.531,174.819,745.117,183.258,741.455,200.295z"/>
	<path fill="#413D3A" d="M774.732,295.83l28.344-133.749h53.18l-2.865,13.534h-31.527l-9.553,45.061h22.928l-2.865,13.535h-22.93
		l-10.35,48.404h31.527l-2.707,13.215H774.732z"/>
	<path fill="#413D3A" d="M894.789,161.285c14.49,0,21.814,8.598,21.814,25.477c0,3.024-0.16,6.209-0.637,9.712l-12.898,2.229
		c0.16-2.229,0.318-4.299,0.318-6.051c0-12.102-3.98-18.152-12.102-18.152c-9.553,0-17.992,5.893-17.992,13.854
		c0,1.592,0.479,3.344,1.115,5.414l-0.318-0.318l24.84,44.105c3.344,5.891,4.936,12.101,4.936,18.15
		c0,2.549-0.318,4.937-0.797,7.325l-0.158,0.637c-3.822,17.355-19.586,32.96-40.443,32.96c-16.082,0-24.203-8.758-24.203-26.432
		c0-2.707,0.16-5.572,0.637-8.758l12.898-2.229c-0.16,1.91-0.318,3.662-0.318,5.414c0,12.578,4.775,18.788,14.488,18.788
		c10.986,0,19.268-6.21,19.268-14.489c0-1.752-0.32-3.504-0.957-5.573l0.318,0.318l-24.838-44.105
		c-3.025-5.255-4.299-10.987-4.299-16.878c0-20.381,15.285-41.398,37.576-41.398H894.789z"/>
</g>
<polygon fill="#B03911" points="5,225 59,225 59,275 4.677,293.268 "/>
<g>
	<path fill="#FFFFFF" d="M20.499,247.742h1.944l1.512-5.579h3.06l-1.512,5.579h3.383l-1.188,4.464h-3.42l-0.54,1.979h3.419
		l-1.188,4.464h-3.419l-1.476,5.543h-3.06l1.476-5.543h-1.944l-1.476,5.543h-3.06l1.476-5.543h-3.384l1.188-4.464h3.419l0.504-1.979
		h-3.383l1.188-4.464h3.419l1.296-5.579h3.275L20.499,247.742z M18.735,254.186h1.979l0.504-1.979h-1.944L18.735,254.186z"/>
	<path fill="#FFFFFF" d="M43.683,237.664h4.248c-2.052,1.836-6.659,6.659-8.027,10.834c0.72-0.287,1.476-0.396,2.087-0.504h0.72
		c5.867,0,9.035,3.708,9.035,10.512v0.215c-0.18,5.508-3.815,9.359-9.323,9.359c-6.263,0-9.035-4.967-9.035-11.015
		C33.388,249.65,37.204,241.768,43.683,237.664z M42.063,251.09c-0.972,0.108-2.232,0.541-3.096,1.368
		c-0.288,1.728-0.324,3.096-0.324,4.679v0.9c0.108,2.592,1.439,7.055,3.851,7.055c3.024,0,3.96-3.635,3.96-6.515
		c0-3.132-0.72-7.487-4.176-7.487H42.063z"/>
</g>
<g>
	<path fill="#141413" d="M75.696,241.152c-0.384-0.168-0.72-0.312-1.128-0.407c0.72-1.608,2.041-2.4,3.984-2.4
		c3,0,4.801,1.704,4.801,4.296v0.36c-0.12,1.944-1.704,3.48-2.856,3.937c2.136,0.936,3.48,3.168,3.48,5.28v0.216
		c-0.168,3.289-2.208,5.4-5.953,5.4c-2.568,0-4.873-1.439-5.185-4.416l1.152-0.191c0.384,2.399,2.208,3.576,4.08,3.576
		c2.328,0,3.265-2.113,3.336-4.465v-0.096c0-2.16-0.84-4.416-2.064-4.801c-0.288,0.48-1.2,0.912-2.041,0.912
		c-0.744,0-1.392-0.359-1.392-1.32c0-1.031,0.696-1.344,1.44-1.344c0.84,0,1.728,0.408,1.992,0.792
		c0.984-0.552,1.776-1.513,1.848-3.552v-0.217c0-1.729-0.552-3.264-2.665-3.264C77.256,239.449,76.296,240.025,75.696,241.152z
		 M77.352,246.409c-0.36,0-0.624,0.192-0.624,0.552c0.072,0.408,0.384,0.601,0.768,0.601c0.384,0,0.84-0.192,1.224-0.576
		C78.24,246.602,77.736,246.409,77.352,246.409z"/>
	<path fill="#141413" d="M84.839,238.513h10.105v0.72l-5.641,18.482h-3.24l5.688-18.122h-6.913V238.513z"/>
	<path fill="#141413" d="M100.056,240.984v2.281c1.176,0.096,2.064,0.623,2.664,1.56l-1.128,0.576c-0.36-0.72-0.936-1.08-1.752-1.08
		c-1.2,0-1.8,1.008-1.8,3.048v2.856c0,1.753,0.624,2.688,1.872,2.688c0.816,0,1.392-0.408,1.728-1.248
		c0.36,0.168,0.696,0.264,1.008,0.432c-0.48,1.08-1.344,1.705-2.568,1.824v2.064h-1.056v-2.064
		c-2.112-0.191-3.168-1.439-3.168-3.744v-2.809c0-2.52,1.056-3.889,3.144-4.104v-2.281H100.056z"/>
</g>
<polygon fill="#E96736" points="0,215.008 53.745,203.205 42.565,191.404 58.093,147.305 24.553,112.522 0,163.453 "/>
<polygon fill="#E96736" points="102.813,159.727 92.255,117.491 58.093,147.305 "/>
<polygon fill="#E96736" points="120,67.18 83.767,81.466 92.567,117.491 120,96.373 "/>
<polygon fill="#E96736" points="39.459,70.286 74.863,38.609 83.767,81.466 "/>
<polygon fill="#FFFFFF" points="48,82 76,82 92.876,97.615 61.82,129.913 31.385,98.236 "/>
<polygon fill="#C64013" points="15.857,45.038 23.311,0 0,0 0,26 "/>
<polygon fill="#C64013" points="24.553,112.677 39.459,70.364 15.857,45.076 0,49.168 0,106 "/>
<polygon fill="#C64013" points="74.863,38.609 64.925,0 120,0 119.584,36.125 "/>
<g>
	<polygon fill="#302E2B" points="412.172,162 386.059,162 387.167,171.037 412.228,162.57 	"/>
	<path fill="#302E2B" d="M345.934,162h-23.247l-7.012,33.133l23.311-7.645l2.49-11.488h2.866c5.896,0,9.516,1.903,10.934,6.019
		l19.826-6.818C371.672,166.467,361.953,162,345.934,162z"/>
	<polygon fill="#302E2B" points="313.293,162 291.638,162 282.249,206.396 305.567,198.519 	"/>
	<polygon fill="#302E2B" points="268.869,162 247.214,162 234.415,222.52 257.7,214.651 	"/>
	<path fill="#302E2B" d="M207.528,220.895c16.625-8.75,26.25-24.748,26.25-44.523c0-18.199-12.25-27.371-37.976-27.371h-27.476
		l-21.836,103.121l25.63-8.812L175.328,228h7.875c6.294,0,10.402,2.668,12.219,7.491l20.426-6.778
		C213.842,225.385,211.058,222.855,207.528,220.895z M186.353,214h-7.875l10.5-50h7.875c9.1,0,13.65,5.486,13.65,16.162
		C210.503,202.562,197.553,214,186.353,214z"/>
</g>
</svg>
