<?xml version="1.0" encoding="utf-8"?>
<!-- Generator: Adobe Illustrator 15.0.2, SVG Export Plug-In . SVG Version: 6.00 Build 0)  -->
<!DOCTYPE svg PUBLIC "-//W3C//DTD SVG 1.1//EN" "http://www.w3.org/Graphics/SVG/1.1/DTD/svg11.dtd">
<svg version="1.1" id="Layer_1" xmlns="http://www.w3.org/2000/svg" xmlns:xlink="http://www.w3.org/1999/xlink" x="0px" y="0px" width="481.799" height="116.958" viewBox="0 0 481.799 116.958" enable-background="new 0 0 481.799 116.958"
	 xml:space="preserve">
<g>
	<path fill="#FFFFFF" d="M41.302,68.804c-4.5,5.4-10.4,8.001-17.001,8.001C10.1,76.805,0,66.604,0,52.503
		c0-14.1,10.1-24.301,24.301-24.301c6.701,0,12.701,2.9,17.201,8l-4.8,3.601c-3.5-3.801-7.601-6.201-12.401-6.201
		C13.001,33.602,6,42.103,6,52.503s7.001,18.901,18.301,18.901c5.001,0,9.301-2.601,12.401-6.4L41.302,68.804z"/>
	<path fill="#FFFFFF" d="M145.5,67.504h-0.2c-3.7,6.4-11.601,9.301-18.501,9.301c-14.201,0-24.301-10.2-24.301-24.302
		c0-14.101,10.1-24.301,24.301-24.301c6.9,0,14.801,2.9,18.501,9.3h0.2V0h6.001v75.604H149.1L145.5,67.504z M126.799,33.602
		c-11.3,0-18.301,8.5-18.301,18.901c0,10.4,7.001,18.901,18.301,18.901c10.901,0,19.301-8.501,19.301-18.901
		C146.1,42.102,137.7,33.602,126.799,33.602"/>
	<path fill="#FFFFFF" d="M202,66.903c-4.7,7.001-11.8,9.901-20.001,9.901c-14.101,0-23.401-10.101-23.401-24.402
		c0-13.801,9.6-24.201,23.101-24.201c14.201,0,21.701,10.9,21.701,21.601v4.2h-38.802c0,5,3.5,17.401,17.501,17.401
		c6.1,0,12.501-3.2,15.501-8.2L202,66.903z M197.4,48.603c0-8.201-7.101-15.001-16.001-15.001
		c-13.101,0-16.801,12.601-16.801,15.001H197.4z"/>
	<path fill="#FFFFFF" d="M228.897,63.804c2.5,4.9,8,7.601,13.401,7.601c5.199,0,10.6-3.2,10.6-8.501
		c0-12.701-27.401-3.8-27.401-21.4c0-9.001,8.2-13.301,15.801-13.301c7.5,0,13.301,2.8,16.301,8.701l-5.4,3.2
		c-2.301-4.201-5.501-6.501-10.9-6.501c-4.3,0-9.801,2.6-9.801,7.401c0,12.5,27.402,2.8,27.402,21.501
		c0,9.501-7.901,14.301-16.701,14.301c-7.901,0-15.001-3.001-18.601-9.401L228.897,63.804z"/>
	<path fill="#FFFFFF" d="M305.1,68.804c-4.501,5.4-10.401,8.001-17.001,8.001c-14.201,0-24.302-10.2-24.302-24.302
		c0-14.1,10.101-24.301,24.302-24.301c6.7,0,12.7,2.9,17.201,8l-4.801,3.601c-3.5-3.801-7.601-6.201-12.4-6.201
		c-11.301,0-18.302,8.501-18.302,18.901s7.001,18.901,18.302,18.901c5,0,9.3-2.601,12.4-6.4L305.1,68.804z"/>
	<path fill="#FFFFFF" d="M309.496,0h6v37.502h0.2c2.399-5.1,8.3-9.3,15.801-9.3c14.4,0,17.601,9.8,17.601,19.901v27.5l-5.997-8.5
		l-0.003-18.701c0-7.501-2.101-14.801-11.601-14.801c-8.9,0-16.001,6.2-16.001,18.901v23.101h-6V0z"/>
	<path fill="#FFFFFF" d="M379.798,28.201c14.2,0,24.301,10.201,24.301,24.302s-10.101,24.301-24.301,24.301
		c-14.201,0-24.302-10.2-24.302-24.301S365.597,28.201,379.798,28.201 M379.798,71.404c11.301,0,18.301-8.501,18.301-18.901
		c0-10.401-7-18.901-18.301-18.901s-18.302,8.5-18.302,18.901C361.496,62.903,368.497,71.404,379.798,71.404"/>
	<path fill="#FFFFFF" d="M434.196,28.201c14.2,0,24.301,10.201,24.301,24.302s-10.101,24.301-24.301,24.301
		c-14.201,0-24.302-10.2-24.302-24.301S419.995,28.201,434.196,28.201 M434.196,71.404c11.301,0,18.301-8.501,18.301-18.901
		c0-10.401-7-18.901-18.301-18.901s-18.302,8.5-18.302,18.901C415.895,62.903,422.896,71.404,434.196,71.404"/>
	<polygon fill="#FFFFFF" points="464.896,0 470.896,0 470.896,75.604 464.896,66.979 	"/>
	<path fill="#FFFFFF" d="M97.982,50.881L75.751,28.652c-0.302-0.304-0.697-0.453-1.09-0.453c-0.396,0-0.791,0.149-1.091,0.453
		l-0.027,0.025c-0.29,0.29-0.453,0.683-0.453,1.091v6.152c0,0.409,0.163,0.801,0.453,1.091l14.96,14.961l-14.96,14.963
		c-0.29,0.289-0.453,0.683-0.453,1.088v6.156c0,0.405,0.163,0.8,0.453,1.088l0.027,0.027c0.287,0.289,0.682,0.453,1.091,0.453
		c0.409,0,0.8-0.164,1.091-0.453l22.232-22.23C98.585,52.463,98.585,51.484,97.982,50.881"/>
	<path fill="#FFFFFF" d="M41.595,50.881l22.231-22.229c0.299-0.304,0.695-0.453,1.09-0.453c0.394,0,0.791,0.149,1.093,0.453
		l0.026,0.025c0.289,0.29,0.452,0.683,0.452,1.091v6.152c0,0.409-0.163,0.801-0.452,1.091L51.074,51.972l14.961,14.963
		c0.289,0.289,0.452,0.683,0.452,1.088v6.156c0,0.405-0.163,0.8-0.452,1.088l-0.026,0.027c-0.29,0.289-0.683,0.453-1.093,0.453
		c-0.409,0-0.8-0.164-1.092-0.453l-22.229-22.23C40.992,52.463,40.992,51.484,41.595,50.881"/>
	<path fill="#FFFFFF" d="M356.594,73.192c-7.819,3.996-7.458-6.283-7.458-6.283h-6.031c0,0,0,2.904,0.714,4.994
		c0.508,1.48,1.253,3.105,2.53,4.516c3.937,4.346,11.652,1.719,13.638,0.908C358.695,76.089,357.56,74.7,356.594,73.192"/>
	<path fill="#FFFFFF" d="M158.927,73.192c-7.819,3.996-7.458-6.283-7.458-6.283h-6.031c0,0,0,2.904,0.714,4.994
		c0.507,1.48,1.253,3.105,2.53,4.516c3.936,4.346,11.652,1.719,13.638,0.908C161.029,76.089,159.893,74.7,158.927,73.192"/>
	<path fill="#FFFFFF" d="M478.406,73.192c-7.819,3.996-7.525-6.283-7.525-6.283h-5.964c0,0,0,2.904,0.714,4.994
		c0.508,1.48,1.253,3.105,2.53,4.516c3.937,4.346,11.652,1.719,13.638,0.908C480.508,76.089,479.372,74.7,478.406,73.192"/>
</g>
<g>
	<path fill="#FFFFFF" d="M309.857,91.046h2.449v19.761h-2.449V91.046z"/>
	<path fill="#FFFFFF" d="M318.345,104.517c0.056,3.312,2.171,4.676,4.62,4.676c1.754,0,2.811-0.307,3.729-0.695l0.417,1.753
		c-0.862,0.39-2.338,0.862-4.48,0.862c-4.146,0-6.624-2.755-6.624-6.818s2.394-7.264,6.317-7.264c4.398,0,5.566,3.868,5.566,6.346
		c0,0.5-0.055,0.891-0.083,1.141H318.345z M325.525,102.763c0.027-1.559-0.641-3.979-3.396-3.979c-2.478,0-3.562,2.282-3.757,3.979
		H325.525z"/>
	<path fill="#FFFFFF" d="M340.941,107.578c0,1.169,0.057,2.31,0.223,3.229h-2.227l-0.194-1.698h-0.083
		c-0.752,1.059-2.199,2.004-4.119,2.004c-2.729,0-4.119-1.92-4.119-3.868c0-3.257,2.895-5.038,8.099-5.01v-0.278
		c0-1.113-0.306-3.117-3.062-3.117c-1.252,0-2.561,0.39-3.507,1.002l-0.557-1.614c1.113-0.724,2.728-1.196,4.425-1.196
		c4.119,0,5.121,2.811,5.121,5.51V107.578z M338.576,103.933c-2.672-0.057-5.705,0.417-5.705,3.033c0,1.586,1.057,2.338,2.31,2.338
		c1.753,0,2.866-1.113,3.257-2.254c0.083-0.251,0.139-0.529,0.139-0.779V103.933z"/>
	<path fill="#FFFFFF" d="M345.447,101.538c0-1.586-0.027-2.949-0.111-4.202h2.144l0.083,2.644h0.111
		c0.613-1.809,2.088-2.949,3.73-2.949c0.277,0,0.473,0.027,0.695,0.083v2.31c-0.25-0.055-0.501-0.083-0.835-0.083
		c-1.726,0-2.95,1.308-3.284,3.146c-0.056,0.334-0.111,0.723-0.111,1.141v7.181h-2.422V101.538z"/>
	<path fill="#FFFFFF" d="M355.104,100.981c0-1.391-0.028-2.532-0.111-3.646h2.17l0.14,2.227h0.056
		c0.668-1.28,2.227-2.532,4.453-2.532c1.865,0,4.76,1.113,4.76,5.732v8.044h-2.449v-7.765c0-2.172-0.808-3.98-3.117-3.98
		c-1.615,0-2.867,1.141-3.285,2.505c-0.111,0.306-0.166,0.724-0.166,1.142v8.099h-2.449V100.981z"/>
	<path fill="#FFFFFF" d="M377.559,91.046h2.422v8.461h0.056c0.862-1.503,2.421-2.477,4.593-2.477c3.34,0,5.705,2.783,5.678,6.874
		c0,4.815-3.034,7.208-6.04,7.208c-1.948,0-3.507-0.751-4.509-2.532h-0.084l-0.111,2.227h-2.115
		c0.057-0.919,0.111-2.282,0.111-3.479V91.046z M379.98,105.407c0,0.307,0.056,0.612,0.111,0.891
		c0.473,1.697,1.893,2.867,3.674,2.867c2.561,0,4.092-2.088,4.092-5.178c0-2.699-1.393-5.01-4.008-5.01
		c-1.67,0-3.229,1.142-3.73,3.006c-0.055,0.279-0.139,0.613-0.139,1.002V105.407z"/>
	<path fill="#FFFFFF" d="M394.477,97.336l2.951,7.96c0.306,0.891,0.64,1.948,0.862,2.756h0.056c0.25-0.808,0.529-1.838,0.863-2.812
		l2.672-7.904h2.588l-3.674,9.603c-1.754,4.619-2.95,6.985-4.62,8.433c-1.196,1.058-2.394,1.476-3.006,1.587l-0.612-2.061
		c0.612-0.194,1.42-0.584,2.143-1.196c0.668-0.528,1.504-1.476,2.061-2.728c0.111-0.25,0.194-0.445,0.194-0.584
		c0-0.14-0.056-0.334-0.167-0.641l-4.982-12.413H394.477z"/>
	<path fill="#FFFFFF" d="M425.338,91.046v16.281c0,1.197,0.028,2.561,0.111,3.479h-2.198l-0.111-2.338h-0.056
		c-0.752,1.503-2.394,2.644-4.592,2.644c-3.257,0-5.762-2.755-5.762-6.846c-0.027-4.481,2.756-7.236,6.039-7.236
		c2.061,0,3.451,0.974,4.064,2.059h0.055v-8.043H425.338z M422.889,102.819c0-0.307-0.027-0.725-0.111-1.03
		c-0.361-1.559-1.697-2.839-3.534-2.839c-2.532,0-4.036,2.227-4.036,5.205c0,2.727,1.336,4.981,3.98,4.981
		c1.643,0,3.145-1.085,3.59-2.923c0.084-0.334,0.111-0.668,0.111-1.057V102.819z"/>
	<path fill="#FFFFFF" d="M442.146,103.96c0,4.982-3.451,7.152-6.708,7.152c-3.646,0-6.457-2.672-6.457-6.93
		c0-4.509,2.95-7.152,6.68-7.152C439.529,97.03,442.146,99.841,442.146,103.96z M431.459,104.099c0,2.951,1.697,5.178,4.091,5.178
		c2.338,0,4.091-2.199,4.091-5.232c0-2.283-1.141-5.178-4.035-5.178S431.459,101.538,431.459,104.099z"/>
	<path fill="#FFFFFF" d="M448.488,93.551c0.027,0.835-0.585,1.503-1.559,1.503c-0.863,0-1.476-0.668-1.476-1.503
		c0-0.862,0.64-1.53,1.53-1.53C447.903,92.021,448.488,92.688,448.488,93.551z M445.76,110.807V97.336h2.449v13.471H445.76z"/>
	<path fill="#FFFFFF" d="M452.828,100.981c0-1.391-0.027-2.532-0.111-3.646h2.172l0.139,2.227h0.056
		c0.668-1.28,2.227-2.532,4.453-2.532c1.864,0,4.759,1.113,4.759,5.732v8.044h-2.449v-7.765c0-2.172-0.807-3.98-3.117-3.98
		c-1.613,0-2.866,1.141-3.283,2.505c-0.111,0.306-0.168,0.724-0.168,1.142v8.099h-2.449V100.981z"/>
	<path fill="#FFFFFF" d="M480.323,108.858c0,3.09-0.612,4.982-1.921,6.15c-1.308,1.225-3.2,1.615-4.898,1.615
		c-1.613,0-3.395-0.391-4.48-1.113l0.612-1.865c0.891,0.557,2.282,1.058,3.952,1.058c2.505,0,4.342-1.308,4.342-4.704v-1.502h-0.056
		c-0.751,1.252-2.198,2.254-4.286,2.254c-3.34,0-5.733-2.839-5.733-6.568c0-4.564,2.978-7.152,6.067-7.152
		c2.338,0,3.618,1.225,4.203,2.338h0.055l0.111-2.032h2.144c-0.056,0.974-0.111,2.06-0.111,3.702V108.858z M477.902,102.651
		c0-0.417-0.028-0.779-0.14-1.113c-0.445-1.419-1.642-2.588-3.423-2.588c-2.338,0-4.008,1.977-4.008,5.094
		c0,2.644,1.336,4.842,3.979,4.842c1.503,0,2.866-0.945,3.396-2.504c0.139-0.418,0.195-0.891,0.195-1.309V102.651z"/>
</g>
</svg>
