<?xml version="1.0" encoding="utf-8"?>
<!-- Generator: Adobe Illustrator 19.2.1, SVG Export Plug-In . SVG Version: 6.00 Build 0)  -->
<svg version="1.1" xmlns="http://www.w3.org/2000/svg" xmlns:xlink="http://www.w3.org/1999/xlink" x="0px" y="0px"
	 viewBox="0 0 864 864" enable-background="new 0 0 864 864" xml:space="preserve">
<g id="background-delete">
	<path d="M501.2,159.6"/>
</g>
<g id="Layer_5">
	<polyline display="none" points="667.6,269.6 798.3,269.6 798.3,689.5 312.6,689.5 311.6,492.7 281,587.6 255,794 206.4,721 
		155,728 114,620.5 69,614.6 196,503 298,317.2 297,259.4 367.5,259.4 460.7,108 451,74 478,38 525,29 557,51.1 565.8,89 547,128.3 
		516.7,150 533.7,199 608.2,219 708.2,172 667.6,269.6 	"/>
	<path display="none" d="M438,269.4c-9.7,21.9-9.7,21.9-9.7,21.9l65.8,71.9l70.5-35.1l20.3,45.1l69.8-45.7l-33.8-57.9L575.8,292
		L542,246.3L438,269.4z"/>
	<polyline display="none" points="699.6,587.8 712.5,607.1 755.3,591.6 769.3,630.7 788.5,631.3 788.5,654.8 721.7,672 701.1,637.7 
		677.3,644.7 663.6,608 699.6,587.8 712.5,607.1 	"/>
</g>
<g id="white">
	<path fill="#FFFFFF" d="M745.4,627.8c3.5,2.9,3.7,9.2,2.2,13c-2.7,6.6-15.9,1.3-15.9-6.6c0-5.6,8-9.4,12.7-7
		C744.7,627.3,745,627.5,745.4,627.8z"/>
	<path fill="#FFFFFF" d="M694.2,614.6c3.3,0-1.6,12.8-5.4,6.4C686.8,617.6,694.2,614.6,694.2,614.6z"/>
	<path fill="#FFFFFF" d="M712.5,607.1l41.8-12l15,35.7l19.2,0.5v-35.4l-9.4-28.1l-23.8,23.8l-71.4-11.9l-16.1-33.3l-4.1-8.9
		c-0.2,0.2-0.5,8.2-0.9,13.7c-1.1,13.5-3.6,33.6-9,42.5l-57.4,37.1l31.2,49h161v-25L721.7,672l-20.6-34.3l-23.8,7L663.6,608
		l35.9-20.2L712.5,607.1z"/>
	<path fill="#FFFFFF" d="M599.9,311.8c2.4,0.8,1.3,5.5,1,7.2c-0.4,2.5-2,5.5-4.9,5.7c-2.5,0.1-3.8-2.1-4-4.3c-0.1-1,0.1-1.9,0.4-2.7
		c0.5-1.4,1.6-2.5,2.8-3.6C596.2,313.2,598.3,311.2,599.9,311.8z"/>
	<path fill="#FFFFFF" d="M557,388.7l-15.3,35.5c-36.7-4.2-77.1,15.7-77.1,15.7s-2.8-4.5-4.2-18.2c-1.4-13.6,0.1-19.5,0.1-19.5
		S511.3,386.1,557,388.7z"/>
	<path fill="#FFFFFF" d="M521.7,296.3c0,0,12-10.1,12-2s-5,19.2-14,16.2C510.7,307.4,521.7,296.3,521.7,296.3z"/>
	<path fill="#FFFFFF" d="M643.3,297.8l7.1-18.4l3.8-9.8l20.4-53l-59.3,33.1c0,0-20.5-14-38.7-21c-18.2-7-60.2-12.6-60.2-12.6
		l-15.2-56.6l-15.8,24.1L438,269.4l0.3,0.2h3.9l99.8-23.3l17.2,23.3l7.2,9.8l9.3,12.6l25.4-12.6l19.7-9.8l0.5-0.3l0.1,0.3l5.6,9.8
		l27.5,48.1l-69.8,45.7L564.6,328l-70.5,35.1l-65.8-71.9c-23.4,54.7-36.7,103.2-44.1,136.3c-6.3,28.5-8.2,45.7-8.2,45.7
		c-0.3-18.8,0.5-37.1,2.1-54.7c4.8-52.6,17-99.6,31.6-139.2h-0.2c0.1-0.2,0.3-0.4,0.4-0.6c1.1-3.1,2.3-6.2,3.5-9.2
		c23.6-60.6,51.9-102.8,64.7-120.4c4.4-6,7-9.1,7-9.1s3.4-2.2,8-4.8c1.5-0.8,3.2-1.7,4.8-2.6c4.5-2.3,9.4-4.2,12.8-4.5l2-3.2
		c9.2-3.5,17.7-6.5,24-10.3l0,0c6.3-5.8,8.8-13,8.9-20.5c-4.6-10.2-22.8-10.8-28.3,0C517.9,93.2,528.6,71,543,79
		c-4.8-13.2-14.7-24.5-22.1-26.6c-17.4-5-35.4,4.6-44.1,18.2c-8.7,13.6,9.1,33.6,9.1,33.6c-1.8,2.2-3.6,4.4-5.4,6.6
		c-0.5,0.6-1,1.3-1.5,1.9c-0.6,0.7-1.2,1.5-1.8,2.2c-0.2,0.2-0.3,0.4-0.4,0.6c-0.9,1.1-1.8,2.3-2.7,3.4c-0.9,1.1-1.7,2.3-2.6,3.4
		c-5,6.6-9.9,13.2-14.6,19.9c-0.6,0.9-1.3,1.8-1.9,2.7c-0.1,0.2-0.3,0.4-0.4,0.5c-0.6,0.9-1.3,1.8-1.9,2.8c-0.4,0.6-0.9,1.2-1.3,1.9
		c-0.8,1.1-1.5,2.2-2.3,3.3c-2.3,3.4-4.5,6.7-6.7,10.1c-0.6,0.9-1.2,1.8-1.7,2.7c-1.7,2.7-3.4,5.4-5.1,8c-0.6,0.9-1.1,1.8-1.7,2.7
		c-3.5,5.7-6.9,11.3-10.1,17c-0.6,1.1-1.3,2.2-1.9,3.3l-0.1,0.1c-0.5,0.9-1,1.8-1.5,2.7c-1.3,2.3-2.5,4.5-3.8,6.8
		c-0.7,1.3-1.4,2.6-2.1,3.9c-2.1,3.9-4.2,7.7-6.2,11.6c-0.7,1.3-1.3,2.6-2,3.8l0,0.1c-0.6,1.1-1.1,2.2-1.7,3.3c-2.1,4-4,8-6,12
		c-0.6,1.3-1.2,2.6-1.9,3.8c-2.5,5.1-4.8,10.2-7.1,15.2c-0.6,1.3-1.1,2.5-1.7,3.8c-0.3,0.7-0.7,1.5-1,2.2c-0.4,0.9-0.8,1.9-1.3,2.8
		c-0.9,2.1-1.8,4.2-2.7,6.2c-0.5,1.2-1,2.4-1.5,3.6c-1.7,3.9-3.3,7.8-4.9,11.6c-0.5,1.1-0.9,2.2-1.4,3.3c-1,2.4-2,4.9-2.9,7.3
		c-0.5,1.2-1,2.4-1.4,3.6c-0.9,2.4-1.9,4.8-2.8,7.2c-0.4,1-0.8,2-1.1,3c-0.1,0.3-0.2,0.7-0.4,1c-0.5,1.3-1,2.6-1.5,4
		c-0.3,0.9-0.7,1.8-1,2.7c-0.3,0.7-0.5,1.5-0.8,2.2c-0.3,0.9-0.7,1.9-1,2.8c-1.2,3.3-2.3,6.5-3.5,9.7c-0.3,0.8-0.6,1.6-0.8,2.4
		c-0.4,1.1-0.8,2.2-1.2,3.3c-0.4,1.1-0.8,2.2-1.1,3.3c-4.1,12.1-7.7,23.6-10.9,34.4c-0.4,1.4-0.8,2.8-1.2,4.2
		c-0.9,3.2-1.8,6.4-2.7,9.5c-0.1,0.5-0.3,1-0.4,1.5c-0.9,3.1-1.7,6-2.4,8.9c-0.1,0.5-0.3,1-0.4,1.4c-0.6,2.3-1.2,4.5-1.7,6.7
		c-0.1,0.6-0.3,1.1-0.4,1.7c-0.1,0.3-0.1,0.5-0.2,0.7c-0.2,0.6-0.3,1.3-0.5,1.9c-0.4,1.8-0.9,3.5-1.3,5.2c-0.2,0.7-0.3,1.3-0.5,2
		c-0.2,0.8-0.4,1.5-0.6,2.3c-0.3,1.4-0.7,2.8-1,4.1c-0.3,1.2-0.5,2.3-0.8,3.4c-0.1,0.4-0.2,0.7-0.2,1.1c-0.4,1.8-0.8,3.5-1.2,5.2
		c-0.1,0.6-0.2,1.1-0.4,1.7c-0.2,0.7-0.3,1.5-0.5,2.2c-0.1,0.3-0.1,0.6-0.2,0.9c-0.4,2-0.8,3.8-1.1,5.5c-0.1,0.4-0.2,0.8-0.2,1.2
		c-0.6,3.2-1.2,5.9-1.6,8c0,0.2-0.1,0.4-0.1,0.6c0,0.2-0.1,0.3-0.1,0.5c-0.2,1.1-0.4,2.1-0.5,2.8c0,0.1,0,0.3-0.1,0.4
		c-0.2,0.9-0.2,1.4-0.2,1.4v8.4c0.5-0.6,1-1.2,1.6-1.8c-0.5,0.6-1,1.2-1.6,1.8l0,205.3h8.8h74.9c0.2-4.3,0.6-8.7,1.2-13.1
		c0-0.1,0-0.1,0-0.2c0.2-1.7,0.5-3.5,0.8-5.3c0.2-1,0.3-1.9,0.5-2.9c0.3-1.8,0.7-3.6,1-5.4l0-0.1c0.2-0.8,0.3-1.6,0.5-2.4
		c0.2-1.1,0.5-2.2,0.8-3.3c0.2-0.7,0.3-1.5,0.5-2.2c0.2-0.6,0.3-1.3,0.5-1.9c0.2-0.9,0.5-1.8,0.7-2.7c0.3-1.1,0.6-2.1,0.9-3.1
		c0.1-0.5,0.3-1,0.4-1.5c0.5-1.5,0.9-3,1.4-4.5c0.2-0.7,0.5-1.5,0.7-2.2c0.5-1.6,1.1-3.2,1.7-4.7c0.2-0.4,0.3-0.9,0.5-1.3
		c0.2-0.5,0.4-1,0.6-1.5c0.2-0.4,0.3-0.8,0.5-1.2c0.3-0.7,0.6-1.5,0.9-2.2c0.2-0.6,0.5-1.1,0.7-1.7c0-0.1,0.1-0.3,0.2-0.4
		c0.2-0.4,0.3-0.8,0.5-1.1c0.3-0.6,0.6-1.3,0.8-1.9c0.3-0.7,0.6-1.4,0.9-2.1c0-0.1,0.1-0.1,0.1-0.2c0.4-0.8,0.7-1.5,1.1-2.3
		c0.3-0.5,0.5-1.1,0.8-1.6c0.1-0.3,0.3-0.5,0.4-0.8c0.3-0.6,0.6-1.2,0.9-1.7c0.1-0.2,0.2-0.4,0.3-0.6c0.4-0.8,0.8-1.5,1.2-2.3
		c0.4-0.7,0.8-1.5,1.3-2.2c0.4-0.7,0.8-1.5,1.3-2.2c4.9-8.2,10.4-15.3,16.3-20.5c7.2-6.5,15-10.3,23-10.3c0.2,0,0.4,0,0.6,0
		c0.1,0,0.2,0,0.3,0c0.3,0,0.6,0,0.9,0.1c0.3,0,0.6,0,0.9,0.1c0.3,0,0.6,0.1,0.9,0.1c1.2,0.2,2.4,0.5,3.5,0.8
		c0.8,0.3,1.6,0.6,2.3,0.9c0.5,0.2,1.1,0.5,1.6,0.8l0.1,0.1c0.2,0.1,0.3,0.2,0.4,0.3c0.5,0.3,1.1,0.6,1.6,1c0.2,0.1,0.3,0.2,0.5,0.4
		c0.2,0.1,0.3,0.2,0.5,0.4c0.7,0.5,1.3,1,2,1.6c0.3,0.3,0.7,0.6,1,0.9c0.2,0.2,0.3,0.3,0.5,0.5c0.3,0.3,0.6,0.7,0.9,1
		c0.2,0.2,0.3,0.3,0.4,0.5c1.4,1.6,2.7,3.4,3.9,5.3c0.2,0.4,0.5,0.7,0.7,1.1c0.2,0.3,0.4,0.7,0.6,1.1c0.1,0.1,0.1,0.2,0.2,0.3
		c0.2,0.3,0.4,0.7,0.6,1c0.3,0.6,0.6,1.1,0.9,1.7c0.2,0.4,0.4,0.7,0.6,1.1c0,0.1,0.1,0.2,0.2,0.3c0.2,0.4,0.4,0.9,0.6,1.4l0,0.1
		c0.2,0.5,0.4,0.9,0.6,1.4c0.2,0.5,0.4,0.9,0.6,1.4l0.1,0.2c0.2,0.5,0.4,1,0.6,1.6c0.2,0.5,0.4,1.1,0.6,1.6c0.2,0.5,0.4,1.1,0.6,1.7
		c0.2,0.6,0.4,1.1,0.6,1.7c0.2,0.6,0.4,1.1,0.6,1.7c0.4,1.1,0.7,2.3,1,3.5c0.1,0.5,0.3,0.9,0.4,1.4c0,0.1,0.1,0.3,0.1,0.4l0,0
		c0.2,0.7,0.4,1.4,0.5,2.1c0.2,0.7,0.4,1.4,0.5,2.1c0.9,3.5,1.6,7.2,2.3,11c0.1,0.8,0.3,1.5,0.4,2.3c0.1,0.8,0.3,1.5,0.4,2.3
		c0.1,0.8,0.2,1.5,0.4,2.3c0.1,0.8,0.2,1.5,0.3,2.3c0.1,0.8,0.2,1.6,0.3,2.3c0.1,0.7,0.2,1.5,0.3,2.2c0,0.1,0,0.3,0,0.4
		c0.1,0.7,0.2,1.4,0.3,2.1c0.6,4.8,1,9.7,1.4,14.5c0.1,1.6,0.2,3.1,0.3,4.7c0.1,0.8,0.1,1.6,0.1,2.4c0,0.8,0.1,1.6,0.1,2.4
		c0,0.8,0.1,1.6,0.1,2.4c0,0.8,0.1,1.6,0.1,2.4c0,0.8,0.1,1.6,0.1,2.5c0,0.7,0,1.3,0.1,2c0,0.6,0,1.2,0.1,1.8c0,0.8,0,1.7,0.1,2.5
		c0,0.8,0,1.7,0.1,2.5c0,0.8,0,1.7,0,2.5c0,0.1,0,0.3,0,0.4h42.1h1.2h2.3c-3-16.7-5-32.7-6.2-47.9c-1.5-19.1-1.7-36.9-1.1-53
		c0,0,0-2.1,0.1-2.2c0.2-4.8,0.5-9.5,0.8-14c1.3-18.5,3.6-34.1,5.8-46.1c0.8-4.2,1.6-8,2.3-11.3c2.3-10.5,4.2-16.3,4.2-16.3
		c3.2-3.4,7.2-7,11.8-10.5c9.2-6.9,20.9-13.9,33.5-20.6c43.8-23.1,98.8-42.5,98.8-42.5L643.3,297.8z M332,466.5
		c0.6-0.5,1.1-1,1.7-1.4C333.2,465.5,332.6,466,332,466.5z M489.5,525.9l-8.3,23.6l-7.9-9.8l-8.8,5.9l-2.4,1.6l-0.9-6.5L459,526
		l6.8,10.5l8.9-8.6l6.7,8.8l7.7-11.4l1.3-1.9L489.5,525.9z M589.5,385.8c-12.6,0.5-25.2,1.9-25.2,1.9
		c-16.7,55.1-55.8,116.9-72.6,119.2c-37,5.1-42.2-111.7-42.2-111.7s58.6-19.6,114.3-16.3C573.1,379.3,598.3,385.5,589.5,385.8z"/>
	<path fill="#FFFFFF" d="M322.4,334.7c-3.1,3.5-6.3,7.7-9.8,12.7c-6.2,9-13.1,20.6-20.6,35.6c-47.6,95.2-74.2,158.9-171.5,221.9
		c0,0,28.7-5.6,30.1,43.4s17,67.1,44.8,58.1c0.1,0,0.2,0,0.2-0.1c0.1,0,0.2-0.1,0.4-0.1l0,0c21.9-7.2,24-42.8,26.4-61.4
		c6.6-50.7,20.9-101.2,40.4-148.5l0,0c16.6-57.4,34.4-97.5,49.8-124.9c3.4-6.1,6.7-11.5,9.8-16.4c15.7-24.5,27.4-34.6,30-36.7
		c0.1-0.2,0.1-0.4,0.2-0.5C350.6,317,340,314.4,322.4,334.7z M150.6,646.8c0,0,1.4-28-15.4-39.2c0,0,42-21,79.8-68.6
		S153.4,617.4,150.6,646.8z"/>
	<path fill="#FFFFFF" d="M564.2,594C564.2,594,564.2,594,564.2,594c0-0.6,0-0.9,0-0.9C564.2,593.4,564.2,593.7,564.2,594z"/>
	<path fill="#FFFFFF" d="M653.8,549.6c0.2-1.1,3.7-21.9,3.8-23c0.1-0.5,0.2-1.1,0.2-1.6c0.1-0.7,0.2-1.4,0.3-2
		c0.1-0.4,0.1-0.9,0.2-1.3c0.2-1,0.3-2,0.4-3c0-0.3,0.1-0.7,0.1-1c0-0.3,0.1-0.7,0.1-1c0-0.2,0.1-0.4,0.1-0.6l0-0.1
		c0-0.2,0.1-0.5,0.1-0.7c0.1-0.5,0.1-1,0.2-1.4c0-0.3,0.1-0.5,0.1-0.8l0-0.2c0-0.2,0-0.3,0.1-0.5c0-0.1,0-0.3,0.1-0.4
		c0-0.1,0-0.2,0-0.3c0.1-0.9,0.2-1.5,0.3-1.9c0-0.1,0-0.1,0-0.2c0-0.1,0-0.1,0-0.1l11.2,22.6c15-16.4,27.1-34.9,17.5-43
		c-13.3-11.2-51.4-18.6-74.2-21.7l-1,0.7c-0.1,0-0.1,0-0.2,0c-12.9,6.8-27,16.7-35.2,23.8c0.1,0,0.3,0,0.4-0.1l-1.1,0.8
		c3.1-0.1,6.8-0.6,9.4-0.2c0,0,138.5-6.3-6.7,91.1l-0.6,0.2l-2.2,1.7c-4.2,2.8-8.7,5.7-13.4,8.7c0,1.4,0,4.2,0,7.1c0,0,0,0,0,0
		c0,1.4,0,2.8,0.1,4.3c0,3.1,0.1,5.6,0.1,5.5c13.5-8.8,40.7-26.6,58.5-38.3C630.4,567.8,646.9,555.9,653.8,549.6"/>
	<path fill="#FFFFFF" d="M671.3,532.2"/>
</g>
<g id="med_gray">
	<path fill="#FFC200" d="M696.6,250.6l32.5-100.3l-112.3,58.8c0,0,4.1,2.6-16.6-5.4c-20.7-8-61.1-16.7-61.1-16.7l-9.8-37.8
		c12.6-6.3,19.4-9.8,28.7-16.8c9.7-7.3,16.2-20.5,19-33.5c7.6-35.9-11.9-73.7-49.8-80.7c-29-5.3-64.4,9.9-79.4,36.5
		c-13.6,24.1,2.1,56.7,2.1,56.7c-47.7,57.6-69.7,91.8-90.3,139.1h-67.4v63.6c-9.3,12.1-19.3,28.4-30,50.3
		c-59.1,121.3-91,180.5-226.4,259.2c0,0,87.2-16.5,88.9,41.3c1.7,57.8,32.5,87.2,64.4,74.2c33.4-13.6,73.5,81.6,73.5,106.4
		c0,0,3.2-123.7,17.2-198.7c4.3-23.2,8.2-42.2,12.5-59.6v120.6h526.5V250.6H696.6z M798.3,684.6v4.9H312.6V491.1
		c-0.3,0.5-0.6,1.1-1,1.6c-1.3,2.2-2.5,4.5-3.8,6.9c-0.3,0.6-0.6,1.2-0.9,1.8c-0.6,1.2-1.2,2.4-1.9,3.7c-0.5,1.1-1.1,2.2-1.6,3.3
		c-0.4,0.8-0.7,1.6-1.1,2.4c-0.3,0.6-0.6,1.3-0.9,2c-0.3,0.6-0.6,1.3-0.9,1.9c-0.9,2-1.8,4.1-2.7,6.2c-0.3,0.7-0.5,1.3-0.8,2
		c-0.3,0.8-0.7,1.6-1,2.4c-0.3,0.6-0.5,1.3-0.8,1.9c-0.3,0.8-0.6,1.6-0.9,2.4c-0.5,1.4-1.1,2.7-1.6,4.1c-0.2,0.6-0.5,1.2-0.7,1.8
		c-0.1,0.2-0.2,0.5-0.3,0.7c-0.2,0.6-0.5,1.3-0.7,1.9c-1.4,3.7-2.7,7.5-4,11.3c-0.3,0.8-0.5,1.5-0.8,2.3c-0.3,0.8-0.5,1.5-0.8,2.3
		c-0.3,0.8-0.5,1.6-0.8,2.4c-1,3.1-2,6.3-2.9,9.4c-0.5,1.6-1,3.2-1.4,4.8s-0.9,3.2-1.4,4.8c-0.4,1.4-0.8,2.8-1.2,4.3
		c-0.2,0.6-0.3,1.1-0.5,1.7c-0.3,1-0.5,1.9-0.8,2.9c-0.8,3.1-1.6,6.2-2.4,9.3c-0.2,0.8-0.4,1.6-0.6,2.4c-0.7,2.6-1.3,5.3-1.9,7.9
		c-0.2,0.7-0.3,1.4-0.5,2.2c-0.3,1.4-0.7,2.9-1,4.3c-0.3,1.4-0.6,2.9-0.9,4.3c-0.3,1.4-0.6,2.9-0.9,4.3c-0.4,1.9-0.8,3.7-1.1,5.6
		c-0.3,1.6-0.6,3.2-0.9,4.8c-0.3,1.7-0.7,3.3-1,5c-12.9,69.2-14,155.4-14,155.4c0-22.9-32.2-81.2-63-68.6
		c-29.5,12.1-47.5-11-49-64.4c-1.5-53.3-53.2-44.8-53.2-44.8c105.9-68.6,140-128.8,194.6-240.8c1.1-2.3,2.2-4.5,3.3-6.6
		c0.3-0.6,0.6-1.2,0.9-1.8c0.4-0.8,0.8-1.5,1.2-2.2c0.3-0.6,0.6-1.2,0.9-1.7c0.7-1.3,1.4-2.6,2.1-3.9c0.3-0.6,0.6-1.1,1-1.7
		c0.3-0.6,0.7-1.2,1-1.8c0.6-1.1,1.2-2.1,1.8-3.1c0.4-0.7,0.8-1.4,1.3-2.1c0.7-1.1,1.3-2.2,2-3.2c0.2-0.3,0.3-0.5,0.5-0.8
		c0.5-0.8,1-1.6,1.5-2.3c0.1-0.2,0.2-0.4,0.4-0.6c0.4-0.6,0.8-1.2,1.2-1.8c0.1-0.2,0.3-0.4,0.4-0.6c0.3-0.5,0.7-1,1-1.4
		c0.3-0.5,0.6-0.9,1-1.4l0.1-0.1c0.9-1.3,1.9-2.6,2.8-3.8c0.3-0.4,0.6-0.8,1-1.3c0.3-0.4,0.6-0.8,1-1.2l0-0.1
		c0.9-1.2,1.8-2.3,2.8-3.4c0.3-0.4,0.6-0.7,0.9-1.1c0.1-0.1,0.2-0.3,0.4-0.4c0.5-0.6,1-1.1,1.5-1.7v-51.2h59.1
		C394.9,216,427.3,158,471.9,104.1c0,0-16.6-21-7.9-35.7c11.4-19.4,40.8-35.3,59-30.1c12.1,3.5,36,26.5,31.2,49.1
		c3.1,3.2,4.5,7.5,3.7,13.5c-0.2,1.6-0.5,3.2-0.9,4.9c-2.6,10.2-10.4,21.8-36.9,30.8c0,0-2.5,3.6-9.2,13.9l15.5,53.4
		c0,0,42.3,8.6,61.5,16c19.1,7.3,24.6,12.6,24.6,12.6l82.9-43.3l-27.9,80.4h130.8V684.6z"/>
	<path fill="#FFC200" d="M750.2,604.4l-39,11.9l-13.6-19.1l-24.4,12.9l9.4,24.1l21.9-6.1l20.5,33.8l63.6-14.7v-8.3l-24.3-0.4
		L750.2,604.4z M697.9,622.3c-1.1,2.1-2.7,3.9-4.8,5c-2.1,1.1-4.7,1.2-6.8,0c-2.6-1.5-3.7-4.9-3-7.8c0.6-2.9,2.8-5.2,5.2-7
		c3.2-2.4,5-3.4,8.8-4.1C702.6,610.1,699.8,619,697.9,622.3z M752.9,644.9c-4.7,11.7-28,2.3-28-11.7c0-9.6,14-15.9,22.3-12.1
		c0.8,0.4,1.5,0.8,2.2,1.3C755.1,627.1,755.4,638.6,752.9,644.9z"/>
	<path fill="#FFC200" d="M658.7,295l27.6,49c3.9-2.4,7.8-5.8,9.8-10.3l11.9,0.9c0,0-5.3,9-17.8,16.4l3.7,6.5c3.9-2.9,8.8-6,13.7-7.5
		l11.2,7.2c0,0-11.3,2.2-20.1,9l31.3,55.4c0,0-17.7,5.5-41.5,14.2c4.3,9.7,0.8,20.4,0.8,20.4l-7.8-2.5c0.3-6.8-1.5-11.2-3.5-14
		c-3.5,1.3-7.1,2.7-10.7,4.2c2.1,6.9,8.1,16.4,8.1,16.4l-9.6,0.9c-3.6-2.9-6.3-9.3-7.8-13.6c-10.1,4.2-20.5,8.7-30.3,13.4
		c26.5,4.8,58.6,12.7,71.5,24c12.2,10.6-4,33.3-23.9,53.9l16.9,32.1l60.2,10.1l30.1-29.4l5.9,19.3V279.4H664.2L658.7,295z"/>
	<path fill="#FFC200" d="M564.8,623.8c0.1,2.1,0.2,4.1,0.3,6.2c0.3,4.3,0.6,8.7,0.9,13.2c0.1,1.8,0.3,3.6,0.5,5.4
		c0.2,1.8,0.3,3.6,0.5,5.5c0.3,2.8,0.6,5.6,0.9,8.4c0.3,2.8,0.6,5.5,1,8.3c0,0.1,0,0.1,0,0.2c0.4,2.9,0.7,5.8,1.1,8.7h45.6
		l-8.6-13.4l-13.1,4.3l-1.5-7.5l9.6-4.4l-5.1-8l-8.6,6.7l-4.6-6.8l8.5-7.2l-9.2-14.4l22.8-15.8l-6.3-8.7l7.1-5l6.1,9l5.8-4
		l-4.7-10.1l7.3-4.5l4.8,9.5l18.6-12.9c2.2-4,4.7-13.9,7-25.3c-9.7,8.5-17.9,14.9-21.4,17.5C622.7,584.4,590,606.7,564.8,623.8z"/>
	<path fill="#FFC200" d="M570.6,515.7c-0.1,0.8-0.3,1.6-0.4,2.4c-0.2,1-0.3,2.1-0.5,3.1c-0.3,1.6-0.5,3.3-0.8,5.1
		c-0.2,1.2-0.3,2.4-0.5,3.6c-0.4,3.1-0.8,6.4-1.2,9.8c-0.5,4.6-1,9.5-1.4,14.7c43.9-27,60.3-30.9,51.4-38.3
		C613.8,513.3,590.2,514.3,570.6,515.7z"/>
	<path fill="#FFC200" d="M591.9,354.3l48.3-30.8l-25.5-39.2l-42.3,21.3l-21.5-26.2l-8-9.8l-8.3-10.1l-42.7,10.1l-41.2,9.8l-10.3,2.4
		l54.6,65.4l76.3-36.4L591.9,354.3z M586.3,317c3.1-5.2,6.7-9.7,12-12.8c1.6-0.9,3.5-1.7,5.3-1.2c1.5,0.5,2.5,1.8,3,3.3
		c0.5,1.5,0.6,3,0.6,4.6c0.1,4.2,0,8.6-1.6,12.5c-1.6,3.9-5,7.4-9.1,7.9c-2.8,0.4-5.7-0.6-7.7-2.6C585.7,325.7,585.7,321,586.3,317z
		 M514.3,318.6c-17.8-5.9,4-27.7,4-27.7s23.8-19.8,23.8-4C542,302.7,532.1,324.5,514.3,318.6z"/>
	<path fill="#FFC200" d="M322.4,311.3c0.3-0.3,0.6-0.5,1-0.8c0.6-0.5,1.2-1,1.9-1.4l0,0c0.3-0.2,0.6-0.4,0.9-0.7
		c0.6-0.4,1.2-0.9,1.8-1.3c0.3-0.2,0.6-0.4,0.9-0.6c0.3-0.2,0.6-0.4,0.9-0.6c1.1-0.7,2.3-1.3,3.4-1.9c0.3-0.2,0.7-0.3,1-0.5
		c0.3-0.1,0.6-0.3,0.8-0.4c0.3-0.1,0.6-0.3,0.8-0.4c0.6-0.2,1.1-0.5,1.6-0.7c0.3-0.1,0.5-0.2,0.8-0.3c0.8-0.3,1.6-0.5,2.4-0.7
		c0.3-0.1,0.5-0.1,0.8-0.2c0.3-0.1,0.5-0.1,0.8-0.2c0.5-0.1,1-0.2,1.5-0.3c0.2,0,0.5-0.1,0.7-0.1c0.5-0.1,1-0.1,1.4-0.2
		c0.3,0,0.5-0.1,0.8-0.1c4.3-0.3,8,0.4,11.1,1.5c0.2,0.1,0.5,0.2,0.7,0.3c2.8-7.4,5.9-15,9.1-22.6h-45.1V311.3z"/>
</g>
<g id="light_gray">
	<path fill="#FFC200" d="M312.6,404c-21.3,15.4-36,59.5-44.7,80.4c-0.1,0.2-0.1,0.3-0.2,0.5c0,0.1-0.1,0.3-0.2,0.4
		c-0.2,0.4-0.3,0.8-0.5,1.2l-0.1,0.1l0,0c-0.1,0.2-0.2,0.4-0.3,0.7c-1.1,2.7-2.1,5-2.8,6.6c-0.8,1.9-1.2,3-1.3,3.2
		c0.1-0.3,0.2-0.5,0.2-0.8c-19.6,47.3-33.9,97.8-40.4,148.5c-2.4,18.6-4.4,54.2-26.4,61.4l0.2-0.1c0.1,0,0.2-0.1,0.3-0.1
		c0.2,0,0.3-0.1,0.5-0.1c0.5-0.1,0.9-0.3,1.4-0.3c0.2-0.1,0.5-0.1,0.7-0.2c0.2,0,0.4-0.1,0.7-0.1c0.4-0.1,0.8-0.1,1.2-0.2
		c0.1,0,0.2,0,0.2,0c0.2,0,0.4-0.1,0.5-0.1c0.3,0,0.5-0.1,0.8-0.1c0.4,0,0.8-0.1,1.3-0.1c0.3,0,0.5,0,0.8,0l0.1,0c0.2,0,0.3,0,0.5,0
		c0.2,0,0.4,0,0.7,0c0.1,0,0.3,0,0.4,0c1.3,0,2.5,0.1,3.8,0.2c0.1,0,0.2,0,0.3,0c1,0.1,2,0.3,3,0.4c0.2,0,0.4,0.1,0.7,0.1
		c1.5,0.3,2.9,0.7,4.3,1.2c0.2,0.1,0.4,0.1,0.5,0.2c0.2,0.1,0.3,0.1,0.5,0.2c0.6,0.2,1.2,0.4,1.7,0.7c0.8,0.3,1.5,0.7,2.3,1
		c0.3,0.1,0.5,0.3,0.8,0.4c0.2,0.1,0.4,0.2,0.5,0.3c0.1,0.1,0.2,0.1,0.3,0.2c0.2,0.1,0.5,0.3,0.7,0.4c0.2,0.1,0.5,0.3,0.7,0.4
		c1.2,0.8,2.4,1.6,3.5,2.5c0.2,0.2,0.4,0.3,0.7,0.5c0.2,0.2,0.4,0.4,0.6,0.6c0.9,0.8,1.8,1.7,2.6,2.5c0.1,0.1,0.3,0.3,0.4,0.5
		c0.3,0.3,0.5,0.6,0.8,0.9c0.7,0.8,1.3,1.7,1.9,2.6c0.2,0.2,0.3,0.5,0.5,0.7c0.1,0.1,0.2,0.3,0.2,0.4c0.1,0.2,0.2,0.4,0.3,0.5
		c0.4,0.7,0.8,1.4,1.1,2.1c0.2,0.4,0.4,0.8,0.5,1.2c0.1,0.2,0.2,0.4,0.3,0.7c0,0.1,0.1,0.2,0.1,0.3c0.1,0.2,0.2,0.5,0.3,0.7l0,0.1
		c0.1,0.2,0.2,0.5,0.2,0.7c0.1,0.3,0.2,0.7,0.3,1.1c0.1,0.2,0.1,0.4,0.2,0.6c0.3,1.4,0.5,2.8,0.6,4.2c0-0.9,0-2.2-0.1-3.8
		c0-0.6,0-1.3,0-2.1c0-0.3,0-0.7,0-1c0-2,0-4.3,0.1-7c0-1.4,0.1-2.8,0.1-4.3c0.1-4.4,0.3-9.4,0.7-14.9c0.1-0.9,0.1-1.9,0.2-2.9
		c0.2-2.9,0.4-6,0.7-9.2c0.7-8.5,1.7-18,3-28.3c1.3-10.3,3.1-21.4,5.3-33.2c10.6-56.9,39.2-155.5,61.2-207c3.5-8.1,6.8-15,9.8-20.4
		v0v-0.6l0,0c-0.2,0.1-0.4,0.1-0.6,0.2C320.6,399.8,313.8,403.2,312.6,404"/>
	<path fill="#FFC200" d="M587,492.4c-2.7-0.4-5.8-0.5-9.1-0.5c-1,0.9-1.9,1.8-2.7,2.8l0,0c0,0.1-0.1,0.3-0.2,0.8
		c0,0.1-0.1,0.2-0.1,0.4c-0.1,0.5-0.3,1.2-0.5,2.1c-0.1,0.4-0.2,0.8-0.3,1.2c-0.1,0.5-0.2,1-0.4,1.5c-0.1,0.4-0.2,0.9-0.3,1.4
		c-0.2,0.9-0.4,1.9-0.7,2.9c0.5,0,1,0,1.6,0c0.7,0,1.3,0,2,0c0.3,0,0.7,0,1,0c0.7,0,1.4,0,2.1,0c0.6,0,1.2,0,1.9,0
		c0.6,0,1.3,0,1.9,0c2.5,0,5.2,0.1,7.9,0.2c1.3,0,2.7,0.1,4,0.1h0c0.7,0,1.3,0.1,2,0.1c2,0.1,4.1,0.2,6,0.4c0.7,0,1.3,0.1,2,0.2h0
		c0.7,0.1,1.3,0.1,1.9,0.2c0.7,0.1,1.3,0.1,1.9,0.2c0.6,0.1,1.3,0.1,1.9,0.2c1.9,0.2,3.8,0.5,5.6,0.8c0.5,0.1,0.9,0.2,1.4,0.3
		c6.7,1.3,11.9,3.1,13.9,5.8c0.9,1.2,1.4,2.5,1.4,3.9c0,0.2,0,0.3,0,0.5c0,0.2,0,0.4-0.1,0.6c0,0.1,0,0.3-0.1,0.4l0,0
		c0,0.2-0.1,0.3-0.1,0.5l0,0.1c0,0.1-0.1,0.3-0.2,0.4c0,0.1-0.1,0.2-0.2,0.4c0,0.1-0.1,0.2-0.2,0.3c-0.1,0.2-0.2,0.5-0.4,0.7
		c-0.1,0.1-0.1,0.2-0.2,0.3c-0.1,0.2-0.2,0.3-0.3,0.5c-0.1,0.2-0.2,0.3-0.4,0.5c-0.8,1.2-1.9,2.4-3.2,3.6c-0.2,0.2-0.4,0.4-0.7,0.7
		c-0.2,0.2-0.5,0.4-0.7,0.7c-0.2,0.2-0.5,0.4-0.8,0.7c-0.8,0.7-1.7,1.4-2.6,2.2c-0.3,0.2-0.5,0.4-0.8,0.6c-0.3,0.3-0.6,0.5-1,0.7
		c-0.3,0.3-0.7,0.5-1,0.8c-1.1,0.8-2.3,1.7-3.6,2.6c-0.7,0.5-1.3,0.9-2,1.4c-3.4,2.3-7.2,4.9-11.5,7.6c-0.8,0.5-1.6,1-2.4,1.6
		c-0.6,0.4-1.3,0.8-1.9,1.2c-0.8,0.5-1.6,1-2.4,1.6c-1.2,0.8-2.5,1.6-3.8,2.4c-1.3,0.8-2.7,1.7-4.1,2.6c-1.2,0.7-2.4,1.5-3.6,2.3
		c-3.4,2.1-6.9,4.3-10.6,6.7c-1.1,0.7-2.2,1.4-3.3,2.1c-2,1.3-4,2.5-6.1,3.9c0,0.7-0.1,1.4-0.1,2.2c0,0.3,0,0.7,0,1.1
		c-0.1,2.7-0.2,5.5-0.3,8.3c0,0.6,0,1.1,0,1.7c-0.1,3.7-0.2,7.5-0.2,11.4c0,0.3,0,0.6,0,1C735.4,485.7,587,492.4,587,492.4z"/>
	<path fill="#FFC200" d="M513.5,676.8c0-0.8,0-1.7-0.1-2.5c0-0.8,0-1.7-0.1-2.5c0-0.6,0-1.2-0.1-1.8c0-0.7,0-1.3-0.1-2
		c0-0.8-0.1-1.6-0.1-2.5c0-0.8-0.1-1.6-0.1-2.4c0-0.8-0.1-1.6-0.1-2.4c0-0.8-0.1-1.6-0.1-2.4c0-0.8-0.1-1.6-0.1-2.4
		c-0.1-1.6-0.2-3.1-0.3-4.7c-0.4-4.9-0.8-9.7-1.4-14.5c-0.1-0.7-0.2-1.4-0.3-2.1c0-0.1,0-0.3,0-0.4c-0.1-0.7-0.2-1.5-0.3-2.2
		c-0.1-0.8-0.2-1.6-0.3-2.3c-0.1-0.8-0.2-1.6-0.3-2.3c-0.1-0.8-0.2-1.5-0.4-2.3c-0.1-0.8-0.3-1.5-0.4-2.3c-0.1-0.8-0.3-1.5-0.4-2.3
		c-0.7-3.8-1.4-7.4-2.3-11c-0.2-0.7-0.3-1.4-0.5-2.1c-0.2-0.7-0.4-1.4-0.5-2.1c0-0.1-0.1-0.3-0.1-0.4c-0.1-0.5-0.3-0.9-0.4-1.4
		c-0.3-1.2-0.7-2.4-1-3.5c-0.2-0.6-0.4-1.1-0.6-1.7c-0.2-0.6-0.4-1.1-0.6-1.7c-0.2-0.6-0.4-1.1-0.6-1.7c-0.2-0.5-0.4-1.1-0.6-1.6
		c-0.2-0.5-0.4-1.1-0.6-1.6l-0.1-0.2c-0.2-0.5-0.4-0.9-0.6-1.4c-0.2-0.5-0.4-0.9-0.6-1.4l0-0.1c-0.2-0.5-0.4-0.9-0.6-1.4
		c-0.1-0.1-0.1-0.2-0.2-0.3c-0.2-0.4-0.4-0.7-0.6-1.1c-0.3-0.6-0.6-1.1-0.9-1.7c-0.2-0.4-0.4-0.7-0.6-1c-0.1-0.1-0.1-0.2-0.2-0.3
		c-0.2-0.4-0.4-0.7-0.6-1.1c-0.2-0.4-0.5-0.8-0.7-1.1c-1.2-1.9-2.5-3.7-3.9-5.3c-0.1-0.2-0.3-0.3-0.4-0.5c-0.3-0.3-0.6-0.7-0.9-1
		c-0.2-0.2-0.3-0.3-0.5-0.5c-0.3-0.3-0.7-0.6-1-0.9c-0.6-0.6-1.3-1.1-2-1.6c-0.2-0.1-0.3-0.3-0.5-0.4c-0.2-0.1-0.3-0.2-0.5-0.4
		c-0.5-0.3-1-0.7-1.6-1c-0.1-0.1-0.3-0.2-0.4-0.3l-0.1-0.1c-0.5-0.3-1.1-0.6-1.6-0.8c-0.8-0.3-1.5-0.6-2.3-0.9
		c-1.1-0.4-2.3-0.7-3.5-0.8c-0.3,0-0.6-0.1-0.9-0.1c-0.3,0-0.6-0.1-0.9-0.1c-0.3,0-0.6,0-0.9-0.1c-0.1,0-0.2,0-0.3,0
		c-0.2,0-0.4,0-0.6,0c-8,0-15.8,3.8-23,10.3c-5.9,5.3-11.4,12.3-16.3,20.5c-0.4,0.7-0.9,1.4-1.3,2.2c-0.4,0.7-0.8,1.5-1.3,2.2
		c-0.4,0.8-0.8,1.5-1.2,2.3c-0.1,0.2-0.2,0.4-0.3,0.6c-0.3,0.6-0.6,1.2-0.9,1.7c-0.1,0.3-0.3,0.5-0.4,0.8c-0.3,0.5-0.5,1-0.8,1.6
		c-0.4,0.8-0.7,1.5-1.1,2.3c0,0.1-0.1,0.1-0.1,0.2c-0.3,0.7-0.6,1.4-0.9,2.1c-0.3,0.6-0.6,1.3-0.8,1.9c-0.2,0.4-0.3,0.8-0.5,1.1
		c-0.1,0.1-0.1,0.3-0.2,0.4c-0.2,0.5-0.5,1.1-0.7,1.7c-0.3,0.7-0.6,1.5-0.9,2.2c-0.2,0.4-0.3,0.8-0.5,1.2c-0.2,0.5-0.4,1-0.6,1.5
		c-0.2,0.4-0.3,0.9-0.5,1.3c-0.6,1.6-1.1,3.1-1.7,4.7c-0.3,0.7-0.5,1.5-0.7,2.2c-0.5,1.5-1,3-1.4,4.5c-0.1,0.5-0.3,1-0.4,1.5
		c-0.3,1-0.6,2.1-0.9,3.1c-0.2,0.9-0.5,1.8-0.7,2.7c-0.2,0.6-0.3,1.3-0.5,1.9c-0.2,0.7-0.4,1.5-0.5,2.2c-0.3,1.1-0.5,2.2-0.8,3.3
		c-0.2,0.8-0.3,1.6-0.5,2.4l0,0.1c-0.4,1.8-0.7,3.6-1,5.4c-0.2,1-0.3,1.9-0.5,2.9c-0.3,1.8-0.5,3.5-0.8,5.3c0,0.1,0,0.1,0,0.2
		c-0.6,4.4-1,8.8-1.2,13.1h105.6c0-0.1,0-0.3,0-0.4C513.5,678.5,513.5,677.7,513.5,676.8z"/>
	<path fill="#FFC200" d="M215,539.1c-37.8,47.6-79.8,68.6-79.8,68.6c16.8,11.2,15.4,39.2,15.4,39.2
		C153.4,617.4,252.8,491.5,215,539.1z"/>
	<path fill="#FFC200" d="M498,132.8c-1.7,0.8-3.3,1.7-4.8,2.6c-4.5,2.5-8,4.8-8,4.8s-2.6,3.1-7,9.1c-12.9,17.6-41.2,59.8-64.7,120.4
		l-3.5,9.2c-0.1,0.2-0.1,0.4-0.2,0.6c-14.6,39.7-26.8,86.6-31.6,139.2c-1.6,17.6-2.4,35.8-2.1,54.7c3-30.7,8.3-54.6,8.3-54.6
		s0.1-1.8,0.5-5.3c0.1-1.1,0.3-2.3,0.5-3.7c0.1-0.4,0.1-0.9,0.2-1.3c0.1-0.4,0.1-0.8,0.2-1.3l0-0.2c0.1-0.5,0.2-1.1,0.2-1.7
		c0.1-0.7,0.2-1.3,0.3-2c0.1-0.4,0.1-0.9,0.2-1.3c0.2-1.1,0.4-2.2,0.6-3.4c0.1-0.3,0.1-0.7,0.2-1c0.1-0.3,0.1-0.7,0.2-1
		c0.1-0.5,0.2-1.1,0.3-1.7c0.1-0.4,0.2-0.9,0.2-1.3c0-0.2,0.1-0.5,0.1-0.7c0.2-1.3,0.5-2.7,0.8-4.1c0.1-0.3,0.1-0.7,0.2-1
		c0.1-0.7,0.3-1.4,0.4-2.2c0.1-0.6,0.3-1.2,0.4-1.9c0.1-0.5,0.2-1,0.3-1.5c0.1-0.7,0.3-1.4,0.5-2.1c0-0.1,0.1-0.3,0.1-0.4
		c0.1-0.7,0.3-1.3,0.4-2c0.1-0.5,0.2-0.9,0.3-1.4c0.2-0.7,0.3-1.5,0.5-2.2c0.2-0.9,0.4-1.8,0.7-2.7c0.2-0.8,0.4-1.5,0.6-2.3
		c0.9-3.6,1.9-7.5,3-11.4c0.2-0.7,0.4-1.5,0.6-2.2c1.1-3.8,2.2-7.7,3.5-11.8c0.2-0.5,0.3-1,0.5-1.5c1.7-5.6,3.7-11.5,5.8-17.6
		c0.2-0.6,0.4-1.1,0.6-1.7c1.2-3.5,2.5-7,3.9-10.6c0.4-1,0.8-2,1.1-3c0.7-1.9,1.5-3.8,2.3-5.8c0.2-0.6,0.5-1.2,0.7-1.8
		c2.9-7.2,6.1-14.6,9.6-22.2c0.4-1,0.9-1.9,1.3-2.9c0.1-0.3,0.3-0.6,0.4-0.9c0.5-1.1,1.3-2.7,2.4-4.9c0.1-0.3,0.3-0.6,0.4-0.8
		c0-0.1,0.1-0.2,0.1-0.3c0.2-0.3,0.3-0.6,0.5-1c0.6-1.1,1.2-2.2,1.8-3.5c0.2-0.5,0.5-0.9,0.8-1.4c0.8-1.5,1.7-3.2,2.6-4.9
		c0.3-0.7,0.7-1.3,1.1-2l0,0c0.3-0.6,0.6-1.2,1-1.8c0.1-0.1,0.1-0.2,0.2-0.3c0.3-0.5,0.6-1,0.8-1.6c1.7-3.2,3.6-6.6,5.5-10.2
		c0.6-1.1,1.2-2.1,1.7-3.2c3-5.6,6.2-11.4,9.3-17.1c0.2-0.4,0.5-0.9,0.7-1.3c0.3-0.5,0.6-1,0.9-1.6c0.6-1,1.1-2,1.7-3
		c0.3-0.6,0.7-1.2,1-1.8c0.3-0.6,0.7-1.2,1-1.8c0.4-0.7,0.7-1.3,1.1-2c0.2-0.4,0.4-0.8,0.7-1.2c2-3.7,4-7.2,5.8-10.5
		c0.2-0.4,0.4-0.8,0.7-1.2c2.7-4.9,5.2-9.4,7.2-13.1c0.1-0.2,0.3-0.5,0.4-0.7c2.7-4.8,4.5-8.1,5.1-9.3l0.1-0.1
		c0.1-0.2,0.1-0.3,0.1-0.3l25.5-39.8l4.3-6.7C507.4,128.5,502.5,130.5,498,132.8z"/>
</g>
</svg>
