<svg id="Layer_1" data-name="Layer 1" xmlns="http://www.w3.org/2000/svg" xmlns:xlink="http://www.w3.org/1999/xlink" viewBox="0 0 1024 324.28">
  <defs>
    <style>
      .cls-1 {
        fill: #1c3c6d;
      }

      .cls-2 {
        fill: #fff;
      }

      .cls-3 {
        fill: #ffc200;
      }

      .cls-4 {
        fill: url(#linear-gradient);
      }

      .cls-5 {
        fill: url(#linear-gradient-2);
      }

      .cls-6 {
        fill: url(#linear-gradient-3);
      }

      .cls-7 {
        fill: url(#linear-gradient-4);
      }

      .cls-8 {
        fill: url(#linear-gradient-5);
      }

      .cls-9 {
        fill: url(#linear-gradient-6);
      }

      .cls-10 {
        fill: url(#linear-gradient-7);
      }
    </style>
    <linearGradient id="linear-gradient" x1="467.81" y1="276.92" x2="506.79" y2="276.92" gradientTransform="matrix(1, 0, 0, -1, 0, 416.2)" gradientUnits="userSpaceOnUse">
      <stop offset="0" stop-color="#111"/>
      <stop offset="0.97" stop-color="#303030"/>
    </linearGradient>
    <linearGradient id="linear-gradient-2" x1="416.63" y1="315.8" x2="438.97" y2="315.8" xlink:href="#linear-gradient"/>
    <linearGradient id="linear-gradient-3" x1="412.93" y1="162.63" x2="412.93" y2="360.96" xlink:href="#linear-gradient"/>
    <linearGradient id="linear-gradient-4" x1="196.05" y1="264.65" x2="216.68" y2="264.65" xlink:href="#linear-gradient"/>
    <linearGradient id="linear-gradient-5" x1="204.06" y1="321.46" x2="222.61" y2="321.46" xlink:href="#linear-gradient"/>
    <linearGradient id="linear-gradient-6" x1="98.98" y1="310.07" x2="123.75" y2="310.07" xlink:href="#linear-gradient"/>
    <linearGradient id="linear-gradient-7" x1="179.09" y1="160.67" x2="179.09" y2="360.51" xlink:href="#linear-gradient"/>
  </defs>
  <title>header</title>
  <rect class="cls-1" x="-88" y="-107.9" width="1200" height="630"/>
  <g>
    <g id="white">
      <path class="cls-2" d="M866.22,154.15c2,0.67,1.09,4.62.84,6-0.34,2.1-1.68,4.62-4.12,4.79-2.1.08-3.19-1.76-3.36-3.61a5,5,0,0,1,.34-2.27,8,8,0,0,1,2.35-3C863.11,155.33,864.87,153.65,866.22,154.15Z"/>
      <path class="cls-2" d="M830.18,218.75l-12.85,29.82c-30.83-3.53-64.77,13.19-64.77,13.19S750.2,258,749,246.47s0.08-16.38.08-16.38S791.79,216.57,830.18,218.75Z"/>
      <path class="cls-2" d="M800.52,141.13s10.08-8.48,10.08-1.68-4.2,16.13-11.76,13.61S800.52,141.13,800.52,141.13Z"/>
      <path class="cls-2" d="M902.67,142.39l6-15.46,3.19-8.23L929,74.18,879.15,102s-17.22-11.76-32.51-17.64-50.57-10.58-50.57-10.58L783.3,26.21,770,46.46l-39.82,72.08,0.25,0.17h3.28l83.84-19.57L832,118.7l6,8.23,7.81,10.58,21.34-10.58,16.55-8.23,0.42-.25,0.08,0.25,4.7,8.23,23.1,40.41-58.64,38.39-16.89-38-59.22,29.49-55.28-60.4a659.74,659.74,0,0,0-37,114.5c-5.29,23.94-6.89,38.39-6.89,38.39a431.69,431.69,0,0,1,1.76-46,459.4,459.4,0,0,1,26.55-116.94h-0.17c0.08-.17.25-0.34,0.34-0.5,0.92-2.6,1.93-5.21,2.94-7.73,19.83-50.91,43.6-86.36,54.35-101.14,3.7-5,5.88-7.64,5.88-7.64s2.86-1.85,6.72-4c1.26-.67,2.69-1.43,4-2.18,3.78-1.93,7.9-3.53,10.75-3.78L793-2.86c7.73-2.94,14.87-5.46,20.16-8.65h0a23,23,0,0,0,7.48-17.22c-3.86-8.57-19.15-9.07-23.77,0,0.5-.76,9.49-19.41,21.59-12.68-4-11.09-12.35-20.58-18.57-22.35-14.62-4.2-29.74,3.86-37,15.29s7.64,28.23,7.64,28.23l-4.54,5.54c-0.42.5-.84,1.09-1.26,1.6s-1,1.26-1.51,1.85a1.76,1.76,0,0,0-.34.5c-0.76.92-1.51,1.93-2.27,2.86S759.11-6,758.35-5C754.15,0.5,750,6,746.09,11.68c-0.5.76-1.09,1.51-1.6,2.27a1.83,1.83,0,0,1-.34.42c-0.5.76-1.09,1.51-1.6,2.35-0.34.5-.76,1-1.09,1.6-0.67.92-1.26,1.85-1.93,2.77-1.93,2.86-3.78,5.63-5.63,8.48-0.5.76-1,1.51-1.43,2.27-1.43,2.27-2.86,4.54-4.28,6.72-0.5.76-.92,1.51-1.43,2.27-2.94,4.79-5.8,9.49-8.48,14.28-0.5.92-1.09,1.85-1.6,2.77L716.6,58l-1.26,2.27c-1.09,1.93-2.1,3.78-3.19,5.71l-1.76,3.28c-1.76,3.28-3.53,6.47-5.21,9.74-0.59,1.09-1.09,2.18-1.68,3.19v0.08c-0.5.92-.92,1.85-1.43,2.77-1.76,3.36-3.36,6.72-5,10.08-0.5,1.09-1,2.18-1.6,3.19-2.1,4.28-4,8.57-6,12.77-0.5,1.09-.92,2.1-1.43,3.19-0.25.59-.59,1.26-0.84,1.85-0.34.76-.67,1.6-1.09,2.35-0.76,1.76-1.51,3.53-2.27,5.21l-1.26,3c-1.43,3.28-2.77,6.55-4.12,9.74-0.42.92-.76,1.85-1.18,2.77-0.84,2-1.68,4.12-2.44,6.13-0.42,1-.84,2-1.18,3-0.76,2-1.6,4-2.35,6-0.34.84-.67,1.68-0.92,2.52a3.51,3.51,0,0,1-.34.84c-0.42,1.09-.84,2.18-1.26,3.36-0.25.76-.59,1.51-0.84,2.27-0.25.59-.42,1.26-0.67,1.85-0.25.76-.59,1.6-0.84,2.35-1,2.77-1.93,5.46-2.94,8.15a18.9,18.9,0,0,0-.67,2l-1,2.77c-0.34.92-.67,1.85-0.92,2.77-3.44,10.16-6.47,19.83-9.16,28.9l-1,3.53c-0.76,2.69-1.51,5.38-2.27,8-0.08.42-.25,0.84-0.34,1.26-0.76,2.6-1.43,5-2,7.48-0.08.42-.25,0.84-0.34,1.18-0.5,1.93-1,3.78-1.43,5.63-0.08.5-.25,0.92-0.34,1.43a5.35,5.35,0,0,1-.17.59c-0.17.5-.25,1.09-0.42,1.6-0.34,1.51-.76,2.94-1.09,4.37-0.17.59-.25,1.09-0.42,1.68s-0.34,1.26-.5,1.93c-0.25,1.18-.59,2.35-0.84,3.44s-0.42,1.93-.67,2.86a3.57,3.57,0,0,0-.17.92c-0.34,1.51-.67,2.94-1,4.37a8.79,8.79,0,0,1-.34,1.43c-0.17.59-.25,1.26-0.42,1.85-0.08.25-.08,0.5-0.17,0.76-0.34,1.68-.67,3.19-0.92,4.62a4.22,4.22,0,0,0-.17,1c-0.5,2.69-1,5-1.34,6.72,0,0.17-.08.34-0.08,0.5s-0.08.25-.08,0.42c-0.17.92-.34,1.76-0.42,2.35a0.51,0.51,0,0,1-.08.34,6.06,6.06,0,0,0-.17,1.18v7.06c0.42-.5.84-1,1.34-1.51-0.42.5-.84,1-1.34,1.51V463.12h70.31c0.17-3.61.5-7.31,1-11v-0.17c0.17-1.43.42-2.94,0.67-4.45,0.17-.84.25-1.6,0.42-2.44,0.25-1.51.59-3,.84-4.54v-0.08c0.17-.67.25-1.34,0.42-2,0.17-.92.42-1.85,0.67-2.77,0.17-.59.25-1.26,0.42-1.85s0.25-1.09.42-1.6c0.17-.76.42-1.51,0.59-2.27,0.25-.92.5-1.76,0.76-2.6,0.08-.42.25-0.84,0.34-1.26,0.42-1.26.76-2.52,1.18-3.78,0.17-.59.42-1.26,0.59-1.85,0.42-1.34.92-2.69,1.43-3.95,0.17-.34.25-0.76,0.42-1.09l0.5-1.26c0.17-.34.25-0.67,0.42-1,0.25-.59.5-1.26,0.76-1.85s0.42-.92.59-1.43a0.64,0.64,0,0,1,.17-0.34,9.85,9.85,0,0,1,.42-0.92,12.92,12.92,0,0,0,.67-1.6l0.76-1.76c0-.08.08-0.08,0.08-0.17,0.34-.67.59-1.26,0.92-1.93,0.25-.42.42-0.92,0.67-1.34,0.08-.25.25-0.42,0.34-0.67,0.25-.5.5-1,0.76-1.43l0.25-.5c0.34-.67.67-1.26,1-1.93a53525727.53,53525727.53,0,0,0,2.18-3.7,72.73,72.73,0,0,1,13.69-17.22c6-5.46,12.6-8.65,19.32-8.65h0.76a5240064.42,5240064.42,0,0,0,1.51.17c0.25,0,.5.08,0.76,0.08a30.15,30.15,0,0,1,2.94.67c0.67,0.25,1.34.5,1.93,0.76a10,10,0,0,1,1.34.67l0.08,0.08a1.16,1.16,0,0,1,.34.25,11.76,11.76,0,0,1,1.34.84,3705540.54,3705540.54,0,0,0,.84.67c0.59,0.42,1.09.84,1.68,1.34,0.25,0.25.59,0.5,0.84,0.76l0.42,0.42c0.25,0.25.5,0.59,0.76,0.84a1.47,1.47,0,0,1,.34.42,35.82,35.82,0,0,1,3.28,4.45c0.17,0.34.42,0.59,0.59,0.92a9.16,9.16,0,0,1,.5.92c0.08,0.08.08,0.17,0.17,0.25,0.17,0.25.34,0.59,0.5,0.84,0.25,0.5.5,0.92,0.76,1.43,0.17,0.34.34,0.59,0.5,0.92a0.45,0.45,0,0,0,.17.25c0.17,0.34.34,0.76,0.5,1.18v0.08c0.17,0.42.34,0.76,0.5,1.18s0.34,0.76.5,1.18l0.08,0.17c0.17,0.42.34,0.84,0.5,1.34s0.34,0.92.5,1.34,0.34,0.92.5,1.43,0.34,0.92.5,1.43,0.34,0.92.5,1.43a30,30,0,0,1,.84,2.94c0.08,0.42.25,0.76,0.34,1.18,0,0.08.08,0.25,0.08,0.34h0a141974219.19,141974219.19,0,0,0,.84,3.53c0.76,2.94,1.34,6,1.93,9.24,0.08,0.67.25,1.26,0.34,1.93s0.25,1.26.34,1.93a15.51,15.51,0,0,0,.34,1.93c0.08,0.67.17,1.26,0.25,1.93s0.17,1.34.25,1.93,0.17,1.26.25,1.85v0.34l0.25,1.76c0.5,4,.84,8.15,1.18,12.18,0.08,1.34.17,2.6,0.25,3.95a16.19,16.19,0,0,1,.08,2c0,0.67.08,1.34,0.08,2s0.08,1.34.08,2,0.08,1.34.08,2,0.08,1.34.08,2.1a11.26,11.26,0,0,0,.08,1.68,9.13,9.13,0,0,0,.08,1.51,44211614.31,44211614.31,0,0,0,.17,4.2v2.44h38.31c-2.52-14-4.2-27.47-5.21-40.24a385.85,385.85,0,0,1-.92-44.52,14.24,14.24,0,0,1,.08-1.85c0.17-4,.42-8,0.67-11.76A351.25,351.25,0,0,1,831,326.28c0.67-3.53,1.34-6.72,1.93-9.49,1.93-8.82,3.53-13.69,3.53-13.69a81.53,81.53,0,0,1,9.91-8.82A221.62,221.62,0,0,1,874.53,277c36.79-19.41,83-35.7,83-35.7ZM641.17,284.11a17.6,17.6,0,0,1,1.43-1.18ZM773.47,334l-7,19.83-6.64-8.23-7.39,5-2,1.34-0.76-5.46-1.85-12.35,5.71,8.82,7.48-7.22,5.63,7.39,6.47-9.58,1.09-1.6Zm84-117.69c-10.58.42-21.17,1.6-21.17,1.6-14,46.29-46.88,98.2-61,100.13-31.08,4.28-35.45-93.83-35.45-93.83s49.23-16.47,96-13.69C843.7,210.85,864.87,216.06,857.48,216.31Z"/>
      <path class="cls-2" d="M633.1,173.39a119.71,119.71,0,0,0-8.23,10.67A249.43,249.43,0,0,0,607.56,214c-40,80-62.33,133.48-144.07,186.41,0,0,24.11-4.7,25.29,36.46s14.28,56.37,37.63,48.81c0.08,0,.17,0,0.17-0.08a1.91,1.91,0,0,1,.34-0.08h0c18.4-6,20.16-36,22.18-51.58,5.54-42.59,17.56-85,33.94-124.75h0c13.94-48.22,28.9-81.91,41.83-104.92,2.86-5.12,5.63-9.66,8.23-13.78,13.19-20.58,23-29.07,25.2-30.83a2.16,2.16,0,0,1,.17-0.42C656.79,158.52,647.89,156.33,633.1,173.39ZM488.78,435.57S490,412,475.84,402.64c0,0,35.28-17.64,67-57.63S491.13,410.87,488.78,435.57Z"/>
      <path class="cls-2" d="M911.49,353.91c0.17-.92,3.11-18.4,3.19-19.32a7.35,7.35,0,0,0,.17-1.34c0.08-.59.17-1.18,0.25-1.68,0.08-.34.08-0.76,0.17-1.09,0.17-.84.25-1.68,0.34-2.52,0-.25.08-0.59,0.08-0.84s0.08-.59.08-0.84,0.08-.34.08-0.5v-0.08c0-.17.08-0.42,0.08-0.59,0.08-.42.08-0.84,0.17-1.18s0.08-.42.08-0.67v-0.17a0.76,0.76,0,0,1,.08-0.42,0.51,0.51,0,0,1,.08-0.34v-0.25a12.81,12.81,0,0,1,.25-1.6v-0.25l9.41,19c12.6-13.78,22.77-29.32,14.7-36.12-11.17-9.41-43.18-15.63-62.33-18.23l-0.84.59h-0.17a175.18,175.18,0,0,0-29.57,20,0.51,0.51,0,0,0,.34-0.08l-0.92.67c2.6-.08,5.71-0.5,7.9-0.17,0,0,116.35-5.29-5.63,76.53l-0.5.17L847.15,384c-3.53,2.35-7.31,4.79-11.26,7.31v6h0c0,1.18,0,2.35.08,3.61,0,2.6.08,4.7,0.08,4.62,11.34-7.39,34.19-22.35,49.14-32.17,6.64-4.12,20.5-14.11,26.29-19.41"/>
    </g>
    <g id="med_gray" data-name="med gray">
      <path class="cls-3" d="M947.45,102.74l27.3-84.26-94.34,49.4s3.44,2.18-13.94-4.54-51.33-14-51.33-14l-8.23-31.75c10.58-5.29,16.3-8.23,24.11-14.11,8.15-6.13,13.61-17.22,16-28.14,6.38-30.16-1-41.91-32.83-47.79-24.36-4.45-63.1-11.68-75.7,10.66C727-41.58,740.21-14.2,740.21-14.2c-40.07,48.39-58.55,77.12-75.86,116.85H607.73v53.43c-7.81,10.16-16.21,23.86-25.2,42.25C532.88,300.24,506.08,350,392.34,416.08c0,0,73.25-13.86,74.68,34.69s27.3,73.25,54.1,62.33c28.06-11.42,75.83,148,75.83,172.35,0,0-11.4-186.89.36-249.89,3.61-19.49,6.89-35.45,10.5-50.07V486.81H1050.1V102.74H947.45Zm85.43,364.58v4.12h-408V304.77a11.76,11.76,0,0,1-.84,1.34c-1.09,1.85-2.1,3.78-3.19,5.8l-0.76,1.51c-0.5,1-1,2-1.6,3.11-0.42.92-.92,1.85-1.34,2.77-0.34.67-.59,1.34-0.92,2-0.25.5-.5,1.09-0.76,1.68s-0.5,1.09-.76,1.6c-0.76,1.68-1.51,3.44-2.27,5.21-0.25.59-.42,1.09-0.67,1.68s-0.59,1.34-.84,2c-0.25.5-.42,1.09-0.67,1.6l-0.76,2c-0.42,1.18-.92,2.27-1.34,3.44-0.17.5-.42,1-0.59,1.51-0.08.17-.17,0.42-0.25,0.59-0.17.5-.42,1.09-0.59,1.6-1.18,3.11-2.27,6.3-3.36,9.49-0.25.67-.42,1.26-0.67,1.93s-0.42,1.26-.67,1.93-0.42,1.34-.67,2c-0.84,2.6-1.68,5.29-2.44,7.9-0.42,1.34-.84,2.69-1.18,4s-0.76,2.69-1.18,4c-0.34,1.18-.67,2.35-1,3.61-0.17.5-.25,0.92-0.42,1.43-0.25.84-.42,1.6-0.67,2.44l-2,7.81-0.5,2c-0.59,2.18-1.09,4.45-1.6,6.64-0.17.59-.25,1.18-0.42,1.85-0.25,1.18-.59,2.44-0.84,3.61s-0.5,2.44-.76,3.61-0.5,2.44-.76,3.61c-0.34,1.6-.67,3.11-0.92,4.7l-0.76,4c-0.25,1.43-.59,2.77-0.84,4.2-10.84,58.13-2.76,150.54-2.76,150.54,0-19.24-36-88.21-61.92-77.63-24.78,10.16-39.9-9.24-41.16-54.1s-44.69-37.63-44.69-37.63C523.47,348.71,552.12,298.14,598,204q1.39-2.9,2.77-5.54l0.76-1.51c0.34-.67.67-1.26,1-1.85s0.5-1,.76-1.43l1.76-3.28a12.65,12.65,0,0,1,.84-1.43c0.25-.5.59-1,0.84-1.51,0.5-.92,1-1.76,1.51-2.6a20.1,20.1,0,0,1,1.09-1.76c0.59-.92,1.09-1.85,1.68-2.69,0.17-.25.25-0.42,0.42-0.67,0.42-.67.84-1.34,1.26-1.93a1.76,1.76,0,0,1,.34-0.5l1-1.51c0.08-.17.25-0.34,0.34-0.5a14.25,14.25,0,0,1,.84-1.18A10.19,10.19,0,0,1,616,173l0.08-.08c0.76-1.09,1.6-2.18,2.35-3.19,0.25-.34.5-0.67,0.84-1.09a8.9,8.9,0,0,1,.84-1v-0.08c0.76-1,1.51-1.93,2.35-2.86,0.25-.34.5-0.59,0.76-0.92a1.27,1.27,0,0,1,.34-0.34c0.42-.5.84-0.92,1.26-1.43V119h49.65c19.49-45.28,46.71-94,84.17-139.28,0,0-13.94-17.64-6.64-30,9.58-16.3,34.27-29.65,49.56-25.29,10.16,2.94,30.24,22.26,26.21,41.25,2.6,2.69,3.78,6.3,3.11,11.34a38.91,38.91,0,0,1-.76,4.12C828-10.33,821.44-.59,799.18,7c0,0-2.1,3-7.73,11.68l13,44.86S840,70.73,856.14,76.95,876.8,87.53,876.8,87.53l69.64-36.37L923,118.7h109.88V467.32h0Z"/>
      <path class="cls-3" d="M915.61,140L938.8,181.2c3.28-2,6.55-4.87,8.23-8.65l10,0.76s-4.45,7.56-15,13.78l3.11,5.46a40.25,40.25,0,0,1,11.51-6.3l9.41,6s-9.49,1.85-16.89,7.56l26.29,46.54s-14.87,4.62-34.86,11.93c3.61,8.15.67,17.14,0.67,17.14l-6.55-2.1c0.25-5.71-1.26-9.41-2.94-11.76-2.94,1.09-6,2.27-9,3.53,1.76,5.8,6.8,13.78,6.8,13.78l-8.06.76c-3-2.44-5.29-7.81-6.55-11.42-8.48,3.53-17.22,7.31-25.45,11.26,22.26,4,49.23,10.67,60.06,20.16,10.25,8.9-3.36,28-20.08,45.28l14.2,27,50.57,8.48,25.29-24.7,5,16.21v-245H920.23Z"/>
      <path class="cls-3" d="M859.5,189.85L900.07,164,878.65,131l-35.53,17.89-18.06-22-6.72-8.23-7-8.48-35.87,8.48-34.61,8.23-8.65,2,45.87,54.94,64.1-30.58Zm-4.7-31.33c2.6-4.37,5.63-8.15,10.08-10.75a6.09,6.09,0,0,1,4.45-1,4.16,4.16,0,0,1,2.52,2.77,11.92,11.92,0,0,1,.5,3.86c0.08,3.53,0,7.22-1.34,10.5s-4.2,6.22-7.64,6.64a7.71,7.71,0,0,1-6.47-2.18C854.29,165.83,854.29,161.88,854.79,158.52Zm-60.48,1.34c-15-5,3.36-23.27,3.36-23.27s20-16.63,20-3.36S809.26,164.82,794.31,159.86Z"/>
      <path class="cls-3" d="M633.1,153.73a7.35,7.35,0,0,1,.84-0.67,11.18,11.18,0,0,1,1.6-1.18h0a4.62,4.62,0,0,0,.76-0.59c0.5-.34,1-0.76,1.51-1.09l0.76-.5,0.76-.5c0.92-.59,1.93-1.09,2.86-1.6,0.25-.17.59-0.25,0.84-0.42a16522497191622.09,16522497191622.09,0,0,0,1.34-.67c0.5-.17.92-0.42,1.34-0.59,0.25-.08.42-0.17,0.67-0.25a18.25,18.25,0,0,1,2-.59c0.25-.08.42-0.08,0.67-0.17s0.42-.08.67-0.17l1.26-.25c0.17,0,.42-0.08.59-0.08,0.42-.08.84-0.08,1.18-0.17s0.42-.08.67-0.08a22.84,22.84,0,0,1,9.32,1.26c0.17,0.08.42,0.17,0.59,0.25,2.35-6.22,5-12.6,7.64-19H633.1v27h0Z"/>
    </g>
    <g id="light_gray" data-name="light gray">
      <path class="cls-3" d="M624.87,231.6c-17.89,12.94-30.24,50-37.55,67.54-0.08.17-.08,0.25-0.17,0.42a0.64,0.64,0,0,1-.17.34c-0.17.34-.25,0.67-0.42,1l-0.08.08h0a4.09,4.09,0,0,0-.25.59c-0.92,2.27-1.76,4.2-2.35,5.54-0.67,1.6-1,2.52-1.09,2.69a2,2,0,0,0,.17-0.67C566.48,348.87,554.47,391.3,549,433.89c-2,15.62-3.7,45.53-22.18,51.58l0.17-.08c0.08,0,.17-0.08.25-0.08s0.25-.08.42-0.08a5.89,5.89,0,0,1,1.18-.25c0.17-.08.42-0.08,0.59-0.17s0.34-.08.59-0.08,0.67-.08,1-0.17h0.17a3.64,3.64,0,0,0,.42-0.08c0.25,0,.42-0.08.67-0.08s0.67-.08,1.09-0.08h2.1c1.09,0,2.1.08,3.19,0.17h0.25c0.84,0.08,1.68.25,2.52,0.34,0.17,0,.34.08,0.59,0.08a25.45,25.45,0,0,1,3.61,1,2.15,2.15,0,0,1,.42.17c0.17,0.08.25,0.08,0.42,0.17a7.27,7.27,0,0,1,1.43.59c0.67,0.25,1.26.59,1.93,0.84,0.25,0.08.42,0.25,0.67,0.34a1.84,1.84,0,0,1,.42.25c0.08,0.08.17,0.08,0.25,0.17s0.42,0.25.59,0.34,0.42,0.25.59,0.34c1,0.67,2,1.34,2.94,2.1a3.56,3.56,0,0,0,.59.42l0.5,0.5c0.76,0.67,1.51,1.43,2.18,2.1a1.83,1.83,0,0,1,.34.42c0.25,0.25.42,0.5,0.67,0.76a20.8,20.8,0,0,1,1.6,2.18c0.17,0.17.25,0.42,0.42,0.59a0.64,0.64,0,0,1,.17.34,1.84,1.84,0,0,0,.25.42,17.78,17.78,0,0,1,.92,1.76,5.14,5.14,0,0,1,.42,1,4.1,4.1,0,0,1,.25.59c0,0.08.08,0.17,0.08,0.25s0.17,0.42.25,0.59v0.08a1.56,1.56,0,0,1,.17.59c0.08,0.25.17,0.59,0.25,0.92,0.08,0.17.08,0.34,0.17,0.5a25.49,25.49,0,0,1,.5,3.53c0-.76,0-1.85-0.08-3.19v-2.6c0-1.68,0-3.61.08-5.88,0-1.18.08-2.35,0.08-3.61,0.08-3.7.25-7.9,0.59-12.52,0.08-.76.08-1.6,0.17-2.44,0.17-2.44.34-5,.59-7.73,0.59-7.14,1.43-15.12,2.52-23.77s2.6-18,4.45-27.89c8.9-47.8,32.93-130.63,51.41-173.89,2.94-6.8,5.71-12.6,8.23-17.14h0v-0.5h0c-0.17.08-.34,0.08-0.5,0.17a82.77,82.77,0,0,0-7.73,3.86"/>
      <path class="cls-3" d="M855.38,305.86a53.75,53.75,0,0,0-7.64-.42,19.88,19.88,0,0,0-2.27,2.35h0c0,0.08-.08.25-0.17,0.67a1.91,1.91,0,0,0-.08.34c-0.08.42-.25,1-0.42,1.76l-0.25,1a7,7,0,0,1-.34,1.26c-0.08.34-.17,0.76-0.25,1.18-0.17.76-.34,1.6-0.59,2.44h8.82c2.1,0,4.37.08,6.64,0.17,1.09,0,2.27.08,3.36,0.08h0c0.59,0,1.09.08,1.68,0.08,1.68,0.08,3.44.17,5,.34a11.38,11.38,0,0,1,1.68.17h0c0.59,0.08,1.09.08,1.6,0.17s1.09,0.08,1.6.17,1.09,0.08,1.6.17c1.6,0.17,3.19.42,4.7,0.67l1.18,0.25c5.63,1.09,10,2.6,11.68,4.87a5.4,5.4,0,0,1,1.18,3.28v0.42a1.07,1.07,0,0,1-.08.5,0.51,0.51,0,0,1-.08.34h0c0,0.17-.08.25-0.08,0.42v0.08a0.64,0.64,0,0,1-.17.34,1.2,1.2,0,0,1-.17.34,0.44,0.44,0,0,1-.17.25,2.1,2.1,0,0,1-.34.59c-0.08.08-.08,0.17-0.17,0.25s-0.17.25-.25,0.42a1.47,1.47,0,0,1-.34.42,17.39,17.39,0,0,1-2.69,3l-0.59.59a3.88,3.88,0,0,0-.59.59c-0.17.17-.42,0.34-0.67,0.59-0.67.59-1.43,1.18-2.18,1.85-0.25.17-.42,0.34-0.67,0.5a3,3,0,0,1-.84.59c-0.25.25-.59,0.42-0.84,0.67-0.92.67-1.93,1.43-3,2.18L878.48,343c-2.86,1.93-6,4.12-9.66,6.38-0.67.42-1.34,0.84-2,1.34-0.5.34-1.09,0.67-1.6,1-0.67.42-1.34,0.84-2,1.34-1,.67-2.1,1.34-3.19,2s-2.27,1.43-3.44,2.18c-1,.59-2,1.26-3,1.93-2.86,1.76-5.8,3.61-8.9,5.63l-2.77,1.76c-1.68,1.09-3.36,2.1-5.12,3.28,0,0.59-.08,1.18-0.08,1.85v0.92c-0.08,2.27-.17,4.62-0.25,7V381c-0.08,3.11-.17,6.3-0.17,9.58v0.84C980,300.24,855.38,305.86,855.38,305.86Z"/>
      <path class="cls-3" d="M780.61,3.78a45.56,45.56,0,0,0-4,2.18c-3.78,2.1-6.72,4-6.72,4s-2.18,2.6-5.88,7.64c-10.84,14.78-34.61,50.24-54.35,101.14l-2.94,7.73c-0.08.17-.08,0.34-0.17,0.5A460.24,460.24,0,0,0,680,244a430.82,430.82,0,0,0-1.76,46,428,428,0,0,1,7-45.87s0.08-1.51.42-4.45c0.08-.92.25-1.93,0.42-3.11,0.08-.34.08-0.76,0.17-1.09s0.08-.67.17-1.09v-0.17a7.4,7.4,0,0,0,.17-1.43c0.08-.59.17-1.09,0.25-1.68,0.08-.34.08-0.76,0.17-1.09,0.17-.92.34-1.85,0.5-2.86,0.08-.25.08-0.59,0.17-0.84s0.08-.59.17-0.84c0.08-.42.17-0.92,0.25-1.43a4.92,4.92,0,0,0,.17-1.09c0-.17.08-0.42,0.08-0.59,0.17-1.09.42-2.27,0.67-3.44,0.08-.25.08-0.59,0.17-0.84,0.08-.59.25-1.18,0.34-1.85,0.08-.5.25-1,0.34-1.6l0.25-1.26a13.43,13.43,0,0,1,.42-1.76c0-.08.08-0.25,0.08-0.34,0.08-.59.25-1.09,0.34-1.68,0.08-.42.17-0.76,0.25-1.18,0.17-.59.25-1.26,0.42-1.85a22.52,22.52,0,0,1,.59-2.27c0.17-.67.34-1.26,0.5-1.93,0.76-3,1.6-6.3,2.52-9.58,0.17-.59.34-1.26,0.5-1.85,0.92-3.19,1.85-6.47,2.94-9.91,0.17-.42.25-0.84,0.42-1.26,1.43-4.7,3.11-9.66,4.87-14.78,0.17-.5.34-0.92,0.5-1.43,1-2.94,2.1-5.88,3.28-8.9,0.34-.84.67-1.68,0.92-2.52,0.59-1.6,1.26-3.19,1.93-4.87,0.17-.5.42-1,0.59-1.51q3.65-9.07,8.06-18.65c0.34-.84.76-1.6,1.09-2.44,0.08-.25.25-0.5,0.34-0.76,0.42-.92,1.09-2.27,2-4.12A5,5,0,0,1,723,119c0-.08.08-0.17,0.08-0.25a7.81,7.81,0,0,0,.42-0.84c0.5-.92,1-1.85,1.51-2.94a8.4,8.4,0,0,1,.67-1.18l2.18-4.12a16.66,16.66,0,0,1,.92-1.68h0a13.59,13.59,0,0,1,.84-1.51c0.08-.08.08-0.17,0.17-0.25a6.7,6.7,0,0,0,.67-1.34c1.43-2.69,3-5.54,4.62-8.57,0.5-.92,1-1.76,1.43-2.69,2.52-4.7,5.21-9.58,7.81-14.36,0.17-.34.42-0.76,0.59-1.09s0.5-.84.76-1.34c0.5-.84.92-1.68,1.43-2.52,0.25-.5.59-1,0.84-1.51s0.59-1,.84-1.51,0.59-1.09.92-1.68a6.27,6.27,0,0,1,.59-1c1.68-3.11,3.36-6,4.87-8.82a6.27,6.27,0,0,1,.59-1c2.27-4.12,4.37-7.9,6-11,0.08-.17.25-0.42,0.34-0.59,2.27-4,3.78-6.8,4.28-7.81l0.08-.08a0.65,0.65,0,0,0,.08-0.25L788,5.63,791.62,0C788.51,0.17,784.39,1.85,780.61,3.78Z"/>
    </g>
  </g>
  <g>
    <g id="Black_AWARDS" data-name="Black AWARDS">
      <path class="cls-2" d="M231.38,272h-8.88l-1.81,7h-6.77l9.18-29.42h8L240.26,279h-7.07ZM230,266.82l-0.68-2.71c-0.38-1.5-.75-3-1.2-4.66s-0.75-3.24-1.2-4.82h-0.15c-0.38,1.58-.75,3.16-1.13,4.82s-0.75,3.24-1.2,4.66l-0.68,2.71H230Z"/>
      <path class="cls-2" d="M240.79,249.51h6.77l1,15.65c0,1.28.08,2.48,0.08,3.76s0.08,2.48.08,3.76h0.15c0.23-1.28.53-2.48,0.83-3.76s0.53-2.48.83-3.76l2-8.2h4l2,8.2c0.23,1.2.53,2.41,0.75,3.69s0.53,2.56.75,3.76h0.15c0.08-1.28.08-2.56,0.15-3.76s0.08-2.48.15-3.76l0.83-15.65h6.32l-3.69,29.42H257l-1.88-9.25c-0.15-.9-0.38-1.88-0.53-2.86s-0.23-1.88-.3-2.78h-0.15c-0.08.9-.23,1.81-0.38,2.78s-0.3,2-.45,2.86l-1.73,9.25H244.7Z"/>
      <path class="cls-2" d="M285.63,272h-8.88l-1.81,7h-6.77l9.18-29.42h8L294.51,279h-7.15Zm-1.35-5.19-0.68-2.71c-0.38-1.5-.75-3-1.2-4.66s-0.75-3.24-1.2-4.82H281c-0.38,1.58-.75,3.16-1.13,4.82s-0.75,3.24-1.2,4.66L278,266.82h6.24Z"/>
      <path class="cls-2" d="M313.77,279l-5.64-10.61h-3.46V279H298V249.59h10.38a21.14,21.14,0,0,1,4.44.45,11.1,11.1,0,0,1,3.61,1.5A7.09,7.09,0,0,1,319,254.4a9.6,9.6,0,0,1,.9,4.36,8.69,8.69,0,0,1-5.19,8.5l6.62,11.81h-7.52V279Zm-9.1-15.88h3.24c3.61,0,5.34-1.43,5.34-4.36a3.24,3.24,0,0,0-1.35-3,7.33,7.33,0,0,0-4-.83h-3.24v8.2Z"/>
      <path class="cls-2" d="M324.91,249.51h8a20,20,0,0,1,5.79.83,11.44,11.44,0,0,1,4.44,2.63,12.54,12.54,0,0,1,2.86,4.51A18.65,18.65,0,0,1,347,264a17.73,17.73,0,0,1-1.05,6.62,13.2,13.2,0,0,1-2.86,4.66,11.87,11.87,0,0,1-4.36,2.71,16.31,16.31,0,0,1-5.57.9h-8.35V249.51h0.08Zm7.6,24.08a8.71,8.71,0,0,0,3.16-.53,5.85,5.85,0,0,0,2.41-1.58,7.79,7.79,0,0,0,1.58-2.93,16.67,16.67,0,0,0,0-8.88,7.45,7.45,0,0,0-1.58-2.86,6.21,6.21,0,0,0-2.41-1.5,10.69,10.69,0,0,0-3.16-.45h-1v18.73h1Z"/>
      <path class="cls-2" d="M355.15,270.73a14.92,14.92,0,0,0,3.61,2.18,10.44,10.44,0,0,0,3.91.83,5.94,5.94,0,0,0,3.39-.75,2.53,2.53,0,0,0,1.05-2.11,2.21,2.21,0,0,0-.3-1.2,5.11,5.11,0,0,0-.9-0.9,12.38,12.38,0,0,0-1.43-.75c-0.53-.23-1.2-0.45-2-0.75l-3.76-1.66a12,12,0,0,1-2.41-1.2,8.86,8.86,0,0,1-2-1.73,7,7,0,0,1-1.35-2.26,7.05,7.05,0,0,1-.53-2.93,7.5,7.5,0,0,1,.83-3.39,8.75,8.75,0,0,1,2.18-2.78,10.61,10.61,0,0,1,3.39-1.88,13.6,13.6,0,0,1,4.36-.68,14.2,14.2,0,0,1,5.27,1,16.19,16.19,0,0,1,4.59,2.86l-3.39,4.21a13.93,13.93,0,0,0-3-1.73,9.37,9.37,0,0,0-3.39-.6,5.57,5.57,0,0,0-3,.68,2.27,2.27,0,0,0-1.05,2,2.17,2.17,0,0,0,1.35,2,35.18,35.18,0,0,0,3.46,1.43l3.54,1.5a11.66,11.66,0,0,1,4.66,3,7.31,7.31,0,0,1,1.73,5,8.31,8.31,0,0,1-.75,3.54,9,9,0,0,1-2.18,2.86,10.74,10.74,0,0,1-3.54,2,13.92,13.92,0,0,1-4.89.75A17.15,17.15,0,0,1,351.39,275Z"/>
    </g>
    <g id="RUBY_HEROES" data-name="RUBY HEROES">
      <g>
        <path class="cls-4" d="M485.17,97.3c-1.05-4.51-2.56-9.18-5.34-12.79-2.18-2.78-4.36-4.21-6.55-4.36s-3.76,1.13-4.74,3.61-0.9,6.47.3,12q9.37,41.87,18.66,83.74a32.62,32.62,0,0,0,5.42,12.87c2.41,3.08,4.89,5,7.37,5.79s4.36,0.08,5.57-2.11,1.13-6.09-.23-11.81Q495.48,140.87,485.17,97.3Z"/>
        <path class="cls-5" d="M437.24,101.29c-0.75-3.76-1.43-7-2.26-9.86a33.5,33.5,0,0,0-2.86-7.37,13.29,13.29,0,0,0-3.91-4.59,9.88,9.88,0,0,0-5.49-1.66c-2.48-.08-3.69-0.15-6.09-0.23,2.56,14.9,5.19,29.8,7.75,44.69,2.86,0.3,4.29.53,7.15,0.83,2.26,0.3,3.91,0,5-.9a6.32,6.32,0,0,0,2.18-4.06,27,27,0,0,0,0-7C438.45,108.29,438,105.05,437.24,101.29Z"/>
        <path class="cls-6" d="M523.47,191.43c-0.38-1.58-1.58-6.47-3.31-13.54-5.27-21.07-15.57-61.47-22.72-90.14-0.08-.45-0.3-0.9-0.45-1.5-0.75-2-2.11-5.12-3.54-8.13-0.68-1.5-1.43-2.93-2-4.14a31.82,31.82,0,0,0-1.66-3A56.12,56.12,0,0,0,484,62.54a23.51,23.51,0,0,0-7.15-5.72,17.07,17.07,0,0,0-3.76-1.5H458.46a15,15,0,0,0-8,2.26,27,27,0,0,0-7.37,7.22c-0.83,1.13-1.58,2.18-2.11,2.86l-0.15.15a39.39,39.39,0,0,0-4.51-5.57,27,27,0,0,0-5.94-4.74,15.81,15.81,0,0,0-7.75-2.26h-0.38c-7.45.23-9.25,0.15-16.7,0.15-23.47.08-46.95,0.08-70.42,0.15a1.6,1.6,0,0,0-.9.23,5.68,5.68,0,0,0-1.28.75,26.69,26.69,0,0,0-2.56,2.11c-1.2,1.05-2.48,2.26-3.46,3.24l-0.15-6.32H308.58l-7.67,30.55V222.73h1.35c7.15,0.23,13.77.53,20.77,1.05h0l6.09,0.3c12.57,1,25.73,2.41,37.47,4.06l1.2,0.15,2-7.15,2,8,0.9,0.15c15.65,2.41,30.7,5.27,44.32,8.2,0.15,0.08,1.35.38,2.56,0.68,0.68,0.15,1.35.38,1.88,0.45a3.82,3.82,0,0,0,.68.15,0.82,0.82,0,0,0,.38.08c5.87,1.28,12.26,2.63,17.31,3.84l1.73,0.45v-5.34a11,11,0,0,1,.68,1,33.08,33.08,0,0,0,3.46,3.91,12.79,12.79,0,0,0,4.36,2.71h0c5.34,1.35,9.93,2.86,13.92,4.21s7.45,2.41,10.46,3.08a40.15,40.15,0,0,0,7.45.9,13.39,13.39,0,0,0,6-1.13,6.31,6.31,0,0,0,1.73-1.28L520,223.33h0a15.73,15.73,0,0,0,2.48-4.29,34,34,0,0,0,2.33-13.32A45.77,45.77,0,0,0,523.47,191.43ZM347,187.14c-1.35-19.11-2.71-38.3-4.06-57.41-5.27-.23-10.53-0.53-15.73-0.68q1.35,28.44,2.78,56.88-6.88-.45-13.77-0.68-1.92-63.54-3.91-127h11.44c0.9,18.21,1.73,36.49,2.63,54.7,5.12,0.15,10.23.38,15.42,0.53-1.28-18.43-2.56-36.79-3.91-55.23h11.44q5.76,65.12,11.44,130.32C356.21,188,351.62,187.51,347,187.14ZM373.81,190Q367,124.09,360.2,58.18c11.36,0,22.8,0,34.16.08,0.9,6.24,1.88,12.41,2.78,18.66l-23.32-.68,4.74,39.28c7.22,0.53,14.37,1.13,21.59,1.73,0.9,6.17,1.81,12.41,2.71,18.58q-11.06-1.24-22.12-2.26l4.74,39.28q13.43,1.81,26.86,4.06c1,6.62,2,13.24,3,19.86C401.5,194.14,387.73,191.88,373.81,190Zm85.77,16.7q-12.3-32.5-24.3-65.23l-7.75-1.13,10.61,61.17c-4.66-1.05-9.25-2-13.92-3Q413.05,128.41,401.8,58.25c6.17,0,12.26,0,18.43.08,20.16,0,26.41,30.1,29.27,44.54a88.73,88.73,0,0,1,2.18,22.35c-0.23,5-1.81,10.23-5.57,13.77,9.25,24,18.66,47.85,28.21,71.78C469.44,209.33,464.48,208,459.59,206.7Zm59.74,10a10,10,0,0,1-5.72,5,12.46,12.46,0,0,1-7.9-.3,29.71,29.71,0,0,1-9-5.19,49.43,49.43,0,0,1-9.1-9.48,76.66,76.66,0,0,1-7.9-13.32,77.57,77.57,0,0,1-5.57-17.15q-8.69-40.74-17.31-81.56A75.05,75.05,0,0,1,455,78.34a35.94,35.94,0,0,1,2-11.74,17.39,17.39,0,0,1,4.66-7.15c2-1.66,3.91-1.5,6.24-1.5s4.89-.15,7.6,1.58a33,33,0,0,1,8.05,7.67,75.77,75.77,0,0,1,7.67,13,105.82,105.82,0,0,1,6.17,18.21q10.95,44.81,22,89.61c1.28,5.79,2.56,11.59,2.41,17.61C521.59,210.39,520.76,214.07,519.33,216.71Z"/>
      </g>
      <g>
        <path class="cls-7" d="M212.88,130.63a9.34,9.34,0,0,0-5.49-.83c-2.26.23-3.39,0.3-5.64,0.53-1.88,14.37-3.84,28.67-5.72,43,2.33-.3,3.54-0.53,5.87-0.83a13.88,13.88,0,0,0,6.62-2.48,15,15,0,0,0,4.06-5,26.31,26.31,0,0,0,2.26-7.22c0.45-2.71.9-5.72,1.28-8.88a79.75,79.75,0,0,0,.6-8.65,18,18,0,0,0-.9-6.09A6.3,6.3,0,0,0,212.88,130.63Z"/>
        <path class="cls-8" d="M213.85,76.16c-2,.08-2.93.08-4.89,0.15l-5,37,5.64-.38c4.14-.3,7.15-2,9-5.27a36.1,36.1,0,0,0,3.69-13.92c0.38-4.44.83-9-.75-13.24C220.4,77.59,217.77,76.08,213.85,76.16Z"/>
        <path class="cls-9" d="M121.61,81.58a6.27,6.27,0,0,0-4.82-1.28l-6.09.38C106.79,97.75,102.95,114.83,99,132l7.07-1.28a12.14,12.14,0,0,0,5.64-2.56,18.47,18.47,0,0,0,4.06-5.27,44.41,44.41,0,0,0,3.08-7.9c0.9-3.08,1.81-6.62,2.63-10.61s1.5-7.52,2-10.53a27,27,0,0,0,.23-7.67A7.71,7.71,0,0,0,121.61,81.58Z"/>
        <path class="cls-10" d="M288.34,55.69H271.41l-1.58,7.37L264,55.69H239.89l0.9,7.22a26.2,26.2,0,0,0-2.11-1.81,25.6,25.6,0,0,0-16-5.42H197.68l-1.2,7-3.54-7H175.48l-1.13,5.42-4.06-5.42H149l-1.35,7A47,47,0,0,0,143.43,60c-3.61-2-8.43-4.14-13.54-4.21-4.29-.08-10.16-0.08-15.42-0.08H101.52L61.79,229l29.57,26.56,0.75-.23s0.3-.08,1-0.3c4.66-1.43,25.05-7.67,54.1-14.3l1.35-.3-1-4.36a19,19,0,0,0,9.33,2.11h0.3C162.09,237,168,236,172.92,235c2.48-.45,4.82-0.9,6.62-1.2s3.24-.6,4.06-0.83a12.25,12.25,0,0,0,4.14-1.88,17.74,17.74,0,0,0,3.24-2.93l0.3,3.76,1.43-.23c13.39-2.26,27.46-4.36,42-5.87a10.7,10.7,0,0,0,5-1.88,16,16,0,0,0,4.06-4.06v0.68c0.08,1.28.08,2.41,0.08,2.63h0v1.5l1.5-.15c12-1.05,25.58-1.73,37.7-2h1.35l1.43-91.79,10.53-44.54ZM114.54,144c-0.53,22.42-.83,44.77-0.68,67.19-4.89,1.5-9.71,3-14.52,4.59q0.9-32.39,2.63-64.63c-3.08.68-4.59,1-7.6,1.66-5.34,23.4-10.61,46.8-16,70.27-4.59,1.66-9.1,3.39-13.69,5.19Q84.48,143.35,104.3,58.55c6.17,0,12.26-.08,18.43-0.08,20.47-.53,13,34.46,10.83,45.07a122.69,122.69,0,0,1-7.15,23.32A58.57,58.57,0,0,1,114.54,144Zm57.11,22.35a55,55,0,0,1-3.76,13,54.17,54.17,0,0,1-6.47,11.29,45.4,45.4,0,0,1-8.28,8.65A26.49,26.49,0,0,1,144,204a12.27,12.27,0,0,1-8.13-.45,12.4,12.4,0,0,1-5.64-5.49,24.22,24.22,0,0,1-2.56-9.78,49.55,49.55,0,0,1,1.05-13.32q11.74-58.35,23.4-116.62h11.44Q153,114.19,142.38,170c-1,5.19-.9,8.88.15,11a4.33,4.33,0,0,0,5.27,2.33c2.41-.53,4.59-2.18,6.62-4.89s3.46-6.62,4.36-11.66q9.48-54.17,19-108.42h11.44Q180.33,112.27,171.64,166.3Zm62.22-75.24c-0.15,1.88-.3,2.86-0.45,4.74a57.32,57.32,0,0,1-1.43,9,32.45,32.45,0,0,1-2.26,6.47,26,26,0,0,1-3.16,5,31.16,31.16,0,0,1-4.14,4.21c2.78,1.88,4.66,4.89,5.64,8.8,1.28,5.19,1.13,10.83.6,16.25-0.3,2.93-.45,4.36-0.68,7.3-0.9,9.41-3.08,19.19-8.65,27-4.89,6.85-12.64,10.68-20.84,12-6.32,1-12.64,2.11-19,3.24q10.16-68.39,20.31-136.86h16.78a14.27,14.27,0,0,1,9.1,2.78,18.36,18.36,0,0,1,5.64,7.3,31.39,31.39,0,0,1,2.56,10.46A61.57,61.57,0,0,1,233.87,91.06ZM267,131.54c-0.75,17.91-1.43,35.81-2.18,53.72-4.66.23-9.33,0.45-14,.75,1.05-18.06,2.18-36,3.24-54.1-4.44-24.53-8.13-49.13-11.29-73.81h12.11c2,16.93,4.21,33.78,6.62,50.64h0.23q6.21-25.28,11.74-50.64h12.11C280.06,82.78,273.74,107.23,267,131.54Z"/>
      </g>
      <g>
        <path class="cls-2" d="M104.23,58.48c6.17,0,12.26-.08,18.43-0.08,20.47-.53,13,34.46,10.83,45.07a122.69,122.69,0,0,1-7.15,23.32A53.82,53.82,0,0,1,114.54,144c-0.53,22.42-.83,44.77-0.68,67.19-4.89,1.5-9.71,3-14.52,4.59q0.9-32.39,2.63-64.63c-3.08.68-4.59,1-7.6,1.66-5.34,23.4-10.61,46.8-16,70.27-4.59,1.66-9.1,3.39-13.69,5.19Q84.37,143.24,104.23,58.48ZM99,131.91l7.07-1.28a12.14,12.14,0,0,0,5.64-2.56,18.47,18.47,0,0,0,4.06-5.27,44.41,44.41,0,0,0,3.08-7.9c0.9-3.08,1.81-6.62,2.63-10.61s1.5-7.52,2-10.53a27,27,0,0,0,.23-7.67,7.08,7.08,0,0,0-2-4.59,6.27,6.27,0,0,0-4.82-1.28l-6.09.38C106.71,97.75,102.87,114.83,99,131.91Z"/>
        <path class="cls-2" d="M171.64,166.3a55,55,0,0,1-3.76,13,54.17,54.17,0,0,1-6.47,11.29,45.4,45.4,0,0,1-8.28,8.65A26.49,26.49,0,0,1,144,204a12.27,12.27,0,0,1-8.13-.45,12.4,12.4,0,0,1-5.64-5.49,24.22,24.22,0,0,1-2.56-9.78,49.55,49.55,0,0,1,1.05-13.32q11.74-58.35,23.4-116.62h11.44Q153,114.19,142.38,170c-1,5.19-.9,8.88.15,11a4.33,4.33,0,0,0,5.27,2.33c2.41-.53,4.59-2.18,6.62-4.89s3.46-6.62,4.36-11.66q9.48-54.17,19-108.42h11.44Q180.33,112.27,171.64,166.3Z"/>
        <path class="cls-2" d="M199.93,58.25h16.78a14.27,14.27,0,0,1,9.1,2.78,18.9,18.9,0,0,1,5.64,7.3A31.39,31.39,0,0,1,234,78.79a67.74,67.74,0,0,1-.08,12.34c-0.15,1.88-.3,2.86-0.45,4.74a57.32,57.32,0,0,1-1.43,9,32.45,32.45,0,0,1-2.26,6.47,26,26,0,0,1-3.16,5,31.16,31.16,0,0,1-4.14,4.21c2.78,1.88,4.66,4.89,5.64,8.8,1.28,5.19,1.13,10.83.6,16.25-0.3,2.93-.45,4.36-0.68,7.3-0.9,9.41-3.08,19.19-8.65,27-4.89,6.85-12.64,10.68-20.84,12-6.32,1-12.64,2.11-19,3.24Q189.78,126.61,199.93,58.25Zm4.14,55.08,5.64-.38c4.14-.3,7.15-2,9-5.27a36.1,36.1,0,0,0,3.69-13.92c0.38-4.44.83-9-.75-13.24-1.05-2.86-3.69-4.36-7.67-4.29-2,.08-2.93.08-4.89,0.15C207.38,88.65,205.73,101,204.07,113.33Zm-8.05,60c2.33-.3,3.54-0.53,5.87-0.83a13.88,13.88,0,0,0,6.62-2.48,15,15,0,0,0,4.06-5,26.31,26.31,0,0,0,2.26-7.22c0.45-2.71.9-5.72,1.28-8.88a79.75,79.75,0,0,0,.6-8.65,18,18,0,0,0-.9-6.09,6.77,6.77,0,0,0-2.86-3.54,9.34,9.34,0,0,0-5.49-.83c-2.26.23-3.39,0.3-5.64,0.53C199.86,144.7,198,159,196,173.37Z"/>
        <path class="cls-2" d="M254,132c-4.44-24.53-8.13-49.13-11.29-73.81h12.11c2,16.93,4.21,33.78,6.62,50.64h0.23q6.21-25.28,11.74-50.64h12.11c-5.64,24.6-12,49.06-18.73,73.36-0.75,17.91-1.43,35.81-2.18,53.72-4.66.23-9.33,0.45-14,.75C251.85,168,253,150,254,132Z"/>
        <path class="cls-2" d="M312.34,58.1h11.44c0.9,18.21,1.73,36.49,2.63,54.7,5.12,0.15,10.23.38,15.42,0.53-1.28-18.43-2.56-36.79-3.91-55.23h11.44q5.76,65.12,11.44,130.32c-4.59-.53-9.18-1-13.84-1.35-1.35-19.11-2.71-38.3-4.06-57.41-5.27-.23-10.53-0.53-15.73-0.68q1.35,28.44,2.78,56.88-6.88-.45-13.77-0.68Z"/>
        <path class="cls-2" d="M360.2,58.18c11.36,0,22.8,0,34.16.08,0.9,6.24,1.88,12.41,2.78,18.66l-23.32-.68,4.74,39.28c7.22,0.53,14.37,1.13,21.59,1.73,0.9,6.17,1.81,12.41,2.71,18.58q-11.06-1.24-22.12-2.26l4.74,39.28q13.43,1.81,26.86,4.06c1,6.62,2,13.24,3,19.86q-20.65-3.84-41.38-6.7Q367,124,360.2,58.18Z"/>
        <path class="cls-2" d="M401.8,58.25c6.17,0,12.26,0,18.43.08,20.16,0,26.41,30.1,29.27,44.54a88.73,88.73,0,0,1,2.18,22.35c-0.23,5-1.81,10.23-5.57,13.77,9.25,24,18.66,47.85,28.21,71.78-5-1.35-9.86-2.71-14.82-4q-12.3-32.5-24.3-65.23l-7.75-1.13,10.61,61.17c-4.66-1.05-9.25-2-13.92-3Q413.09,128.38,401.8,58.25Zm22.57,64c2.86,0.3,4.29.53,7.15,0.83,2.26,0.3,3.91,0,5-.9a6.32,6.32,0,0,0,2.18-4.06,27,27,0,0,0,0-7c-0.3-2.78-.83-6.09-1.5-9.86s-1.43-7-2.26-9.86a33.5,33.5,0,0,0-2.86-7.37,13.29,13.29,0,0,0-3.91-4.59,9.88,9.88,0,0,0-5.49-1.66c-2.48-.08-3.69-0.15-6.09-0.23C419.18,92.49,421.82,107.38,424.38,122.28Z"/>
        <path class="cls-2" d="M456.73,94.82a75.05,75.05,0,0,1-1.81-16.4,35.94,35.94,0,0,1,2-11.74,17.39,17.39,0,0,1,4.66-7.15c2-1.66,3.91-1.5,6.24-1.5s4.89-.15,7.6,1.58a33,33,0,0,1,8.05,7.67,75.77,75.77,0,0,1,7.67,13,105.82,105.82,0,0,1,6.17,18.21q10.95,44.81,22,89.61c1.28,5.79,2.56,11.59,2.41,17.61-0.08,4.66-.83,8.35-2.26,11a10,10,0,0,1-5.72,5,12.46,12.46,0,0,1-7.9-.3,29.71,29.71,0,0,1-9-5.19,49.43,49.43,0,0,1-9.1-9.48,76.66,76.66,0,0,1-7.9-13.32,77.57,77.57,0,0,1-5.57-17.15C468.32,149.22,462.52,122,456.73,94.82Zm30.77,84.8a32.62,32.62,0,0,0,5.42,12.87c2.41,3.08,4.89,5,7.37,5.79s4.36,0.08,5.57-2.11,1.13-6.09-.23-11.81q-10.27-43.45-20.54-87c-1.05-4.51-2.56-9.18-5.34-12.79-2.18-2.78-4.36-4.21-6.55-4.36s-3.76,1.13-4.74,3.61-0.9,6.47.3,12Q478.13,137.78,487.5,179.61Z"/>
      </g>
    </g>
    <g id="The_Tab" data-name="The Tab">
      <path d="M82.86,70.67a4.3,4.3,0,0,0,.53-0.6,1.48,1.48,0,0,0,.3-0.6,1.09,1.09,0,0,0-.15-0.53,0.4,0.4,0,0,0-.3-0.23,1.77,1.77,0,0,0-.6.15,0.75,0.75,0,0,0-.38.3,1.27,1.27,0,0,0-.23.45,5.18,5.18,0,0,0-.23.6,2.33,2.33,0,0,0-.15.6v0.38a2.33,2.33,0,0,0,.6-0.15A1.64,1.64,0,0,0,82.86,70.67Z"/>
      <path d="M47.2,55.54L57.43,67.06,45.62,79.24H93.24l4.82-23.32ZM85.95,73.6l-0.68.45a2.78,2.78,0,0,1-.83.38,4.24,4.24,0,0,1-.9.3,3.66,3.66,0,0,1-.9.08,2.47,2.47,0,0,1-1.28-.3,2.84,2.84,0,0,1-.9-0.68,1.21,1.21,0,0,1-.3-0.53,1,1,0,0,1-.3.23c-0.15.08-.3,0.23-0.45,0.3a2.29,2.29,0,0,0-.53.38,2.25,2.25,0,0,1-.6.3l-0.6.23a1.66,1.66,0,0,1-.6.08,1.27,1.27,0,0,1-.75-0.23,1.76,1.76,0,0,1-.53-0.53,2.25,2.25,0,0,1-.3-0.75,2.56,2.56,0,0,1-.08-0.75A1.28,1.28,0,0,1,75.49,72c0.08-.23.08-0.38,0.15-0.6s0.15-.38.23-0.6a3.67,3.67,0,0,1,.23-0.53,1.27,1.27,0,0,0,.15-0.38,0.23,0.23,0,0,0,.08-0.15H76.16l-0.45.45A8,8,0,0,0,75,71c-0.23.38-.53,0.75-0.83,1.2a12.17,12.17,0,0,0-.75,1.35,4.47,4.47,0,0,1-.3.6,1.64,1.64,0,0,1-.23.38l-0.23.23a0.36,0.36,0,0,1-.3.08A0.57,0.57,0,0,1,72,74.73a1.64,1.64,0,0,1-.23-0.38,1.12,1.12,0,0,1-.08-0.53v-2A16.36,16.36,0,0,1,71.8,70c0.08-.68.15-1.43,0.23-2.18s0.23-1.5.3-2.18a9.85,9.85,0,0,1,.45-2H72.55c-0.45-.08-0.9-0.08-1.35-0.15l-1.43-.23c-0.53-.08-1-0.08-1.5-0.15a15,15,0,0,1-.38,2c-0.15.68-.38,1.35-0.53,2s-0.38,1.35-.53,2-0.38,1.35-.53,2-0.3,1.2-.45,1.73-0.23,1-.38,1.35a1.27,1.27,0,0,1-.23.45A0.75,0.75,0,0,1,65,75c-0.08.08-.23,0.15-0.3,0.23a0.57,0.57,0,0,1-.3.08A1.27,1.27,0,0,1,63.6,75a0.73,0.73,0,0,1-.3-0.68,0.45,0.45,0,0,1,.08-0.3c0.08-.45.23-0.9,0.3-1.35a13.57,13.57,0,0,1,.38-1.43c0.15-.53.3-1,0.45-1.58s0.38-1.13.6-1.81,0.45-1.35.75-2.18,0.53-1.73.9-2.71c-0.3,0-.53.08-0.83,0.08s-0.53.08-.83,0.08-0.53.08-.75,0.15a2.67,2.67,0,0,0-.68.3,0.77,0.77,0,0,0-.45.38,0.63,0.63,0,0,0-.15.53v0.15a1.27,1.27,0,0,1-.15.38,0.89,0.89,0,0,1-.38.38,1.6,1.6,0,0,1-1.35,0,1.64,1.64,0,0,1-.38-0.3,1.09,1.09,0,0,1-.15-0.53,1.81,1.81,0,0,1,.3-1.13,2.6,2.6,0,0,1,.75-0.83,3.93,3.93,0,0,1,1.13-.53c0.45-.15,1-0.23,1.5-0.38a12.35,12.35,0,0,1,1.73-.15c0.6,0,1.28-.08,2-0.08,0.9,0,1.81,0,2.78.08,0.83,0.08,1.66.15,2.56,0.3,0.08-.08.08-0.15,0.15-0.23a4.18,4.18,0,0,1,1.05-1.2A2.32,2.32,0,0,1,76,60a1.5,1.5,0,0,1,.68.15,2,2,0,0,1,.45.38,3.67,3.67,0,0,1,.23.53,2.08,2.08,0,0,1,.08.68A8.38,8.38,0,0,1,77.29,63a5.25,5.25,0,0,1-.45,1.43,12.54,12.54,0,0,1-.6,1.5c-0.23.53-.45,1-0.68,1.5l-0.68,1.35c-0.23.45-.45,0.83-0.6,1.13L74.43,70l0.68-.9A12.55,12.55,0,0,1,76.16,68a7.57,7.57,0,0,1,1.05-.9,2,2,0,0,1,.75-0.3H78.2a0.69,0.69,0,0,1,.38.38,0.69,0.69,0,0,1,.08.45,5.08,5.08,0,0,1-.15,1.05,7.34,7.34,0,0,1-.53,1.2,3.89,3.89,0,0,0-.53,1.2,5.12,5.12,0,0,0-.15,1.13,1.12,1.12,0,0,0,.08.53,0.21,0.21,0,0,0,.23.15A0.68,0.68,0,0,0,78,72.77a1.64,1.64,0,0,0,.38-0.23,1.32,1.32,0,0,0,.38-0.3c0.15-.08.23-0.23,0.38-0.3l0.53-.53V71.34a5.18,5.18,0,0,1,.15-1c0.08-.38.23-0.75,0.3-1.05a5.44,5.44,0,0,1,1.05-1.58,4.57,4.57,0,0,1,.75-0.53,2.07,2.07,0,0,1,1-.15,3.2,3.2,0,0,1,.83.15,2,2,0,0,1,.68.38,4.17,4.17,0,0,1,.45.6,2.67,2.67,0,0,1,.15.75,2.06,2.06,0,0,1-.3,1.05,4.77,4.77,0,0,1-1.73,1.73,8.36,8.36,0,0,1-1.2.53,1,1,0,0,0,.23.3l0.23,0.23a0.28,0.28,0,0,0,.23.08h0.3a5.18,5.18,0,0,0,1-.15c0.38-.15.68-0.3,1-0.45a6.28,6.28,0,0,0,.9-0.6,6.58,6.58,0,0,0,.75-0.6l1,1A3.54,3.54,0,0,1,85.95,73.6Z"/>
      <path d="M74.89,66.15a8.83,8.83,0,0,1,.38-0.83c0.3-.75.53-1.43,0.68-2a4.62,4.62,0,0,0,.23-1.2,0.69,0.69,0,0,0-.15-0.6,1.31,1.31,0,0,0-.6.68,15,15,0,0,0-.9,1.88l-0.23.9a3.78,3.78,0,0,0-.15.9c-0.08.3-.08,0.6-0.15,0.9s-0.08.53-.15,0.83a14.8,14.8,0,0,0-.23,1.81c0.15-.3.3-0.68,0.45-1.05l0.45-1.13A5,5,0,0,1,74.89,66.15Z"/>
    </g>
    <g id="The">
      <path class="cls-2" d="M60.89,64.65a1.81,1.81,0,0,1,.3-1.13,2.6,2.6,0,0,1,.75-0.83,3.93,3.93,0,0,1,1.13-.53c0.45-.15,1-0.23,1.5-0.38a12.35,12.35,0,0,1,1.73-.15c0.6,0,1.28-.08,2-0.08,0.9,0,1.81,0,2.78.08a21.92,21.92,0,0,1,3,.38,1.8,1.8,0,0,1,.53.23,0.79,0.79,0,0,1,.15.38,0.45,0.45,0,0,1-.08.3c-0.08.08-.08,0.23-0.15,0.3a1,1,0,0,1-.3.23,0.45,0.45,0,0,1-.3.08,6.47,6.47,0,0,1-1.2-.08c-0.45-.08-0.9-0.08-1.35-0.15l-1.43-.23c-0.53-.08-1-0.08-1.5-0.15a15,15,0,0,1-.38,2c-0.15.68-.38,1.35-0.53,2s-0.38,1.35-.53,2-0.38,1.35-.53,2-0.3,1.2-.45,1.73-0.23,1-.38,1.35a1.27,1.27,0,0,1-.23.45,0.75,0.75,0,0,1-.3.38C65,74.88,64.88,75,64.8,75a0.57,0.57,0,0,1-.3.08,1.27,1.27,0,0,1-.75-0.23,0.73,0.73,0,0,1-.3-0.68,0.45,0.45,0,0,1,.08-0.3c0.08-.45.23-0.9,0.3-1.35a13.57,13.57,0,0,1,.38-1.43c0.15-.53.3-1,0.45-1.58s0.38-1.13.6-1.81,0.45-1.35.75-2.18,0.53-1.73.9-2.71c-0.3,0-.53.08-0.83,0.08S65.56,63,65.25,63s-0.53.08-.75,0.15a2.67,2.67,0,0,0-.68.3,0.77,0.77,0,0,0-.45.38,0.63,0.63,0,0,0-.15.53V64.5a1.27,1.27,0,0,1-.15.38,0.89,0.89,0,0,1-.38.38,1.6,1.6,0,0,1-1.35,0,1.64,1.64,0,0,1-.38-0.3A0.44,0.44,0,0,1,60.89,64.65Z"/>
      <path class="cls-2" d="M74.51,70.14l0.68-.9a12.55,12.55,0,0,1,1.05-1.13,7.57,7.57,0,0,1,1.05-.9A2,2,0,0,1,78,66.9h0.23a0.69,0.69,0,0,1,.38.38,0.69,0.69,0,0,1,.08.45,5.08,5.08,0,0,1-.15,1.05A7.34,7.34,0,0,1,78,70a3.89,3.89,0,0,0-.53,1.2,5.12,5.12,0,0,0-.15,1.13,1.12,1.12,0,0,0,.08.53,0.21,0.21,0,0,0,.23.15A0.68,0.68,0,0,0,78,72.92a1.64,1.64,0,0,0,.38-0.23,1.32,1.32,0,0,0,.38-0.3c0.15-.08.23-0.23,0.38-0.3a4.91,4.91,0,0,0,.83-0.9l0.15,2a1.65,1.65,0,0,1-.38.23c-0.15.08-.3,0.23-0.45,0.3a2.29,2.29,0,0,0-.53.38,2.25,2.25,0,0,1-.6.3l-0.6.23a1.66,1.66,0,0,1-.6.08,1.27,1.27,0,0,1-.75-0.23A1.76,1.76,0,0,1,75.71,74a2.25,2.25,0,0,1-.3-0.75,2.56,2.56,0,0,1-.08-0.75,1.28,1.28,0,0,1,.08-0.53c0.08-.23.08-0.38,0.15-0.6s0.15-.38.23-0.6A3.67,3.67,0,0,1,76,70.22a1.27,1.27,0,0,0,.15-0.38,0.23,0.23,0,0,0,.08-0.15H76.09l-0.45.45A8,8,0,0,0,75,71c-0.23.38-.53,0.75-0.83,1.2a12.17,12.17,0,0,0-.75,1.35,4.47,4.47,0,0,1-.3.6,1.64,1.64,0,0,1-.23.38l-0.23.23a0.36,0.36,0,0,1-.3.08A0.57,0.57,0,0,1,72,74.65a1.64,1.64,0,0,1-.23-0.38,1.12,1.12,0,0,1-.08-0.53v-2a16.36,16.36,0,0,1,.08-1.88c0.08-.68.15-1.43,0.23-2.18s0.23-1.5.3-2.18a17.33,17.33,0,0,1,.45-2.11,7.46,7.46,0,0,1,.75-1.73,4.18,4.18,0,0,1,1.05-1.2,2.32,2.32,0,0,1,1.43-.45,1.5,1.5,0,0,1,.68.15,2,2,0,0,1,.45.38,3.67,3.67,0,0,1,.23.53,2.08,2.08,0,0,1,.08.68,8.38,8.38,0,0,1-.15,1.28,5.25,5.25,0,0,1-.45,1.43,12.54,12.54,0,0,1-.6,1.5c-0.23.53-.45,1-0.68,1.5l-0.68,1.35c-0.23.45-.45,0.83-0.6,1.13Zm0.68-4.82c0.3-.75.53-1.43,0.68-2a4.62,4.62,0,0,0,.23-1.2,0.69,0.69,0,0,0-.15-0.6,1.31,1.31,0,0,0-.6.68,15,15,0,0,0-.9,1.88l-0.23.9a3.78,3.78,0,0,0-.15.9c-0.08.3-.08,0.6-0.15,0.9s-0.08.53-.15,0.83a14.8,14.8,0,0,0-.23,1.81c0.15-.3.3-0.68,0.45-1.05l0.45-1.13c0.15-.38.3-0.75,0.45-1.05S75.11,65.55,75.19,65.32Z"/>
      <path class="cls-2" d="M82.71,74.8a2.47,2.47,0,0,1-1.28-.3,2.84,2.84,0,0,1-.9-0.68A2.78,2.78,0,0,1,80,72.77a3.31,3.31,0,0,1-.15-1.2,5.18,5.18,0,0,1,.15-1c0.08-.38.23-0.75,0.3-1.05A5.44,5.44,0,0,1,81.36,68a4.57,4.57,0,0,1,.75-0.53,2.07,2.07,0,0,1,1-.15,3.2,3.2,0,0,1,.83.15,2,2,0,0,1,.68.38,4.17,4.17,0,0,1,.45.6,2.67,2.67,0,0,1,.15.75,2.06,2.06,0,0,1-.3,1.05,4.77,4.77,0,0,1-1.73,1.73,8.36,8.36,0,0,1-1.2.53,1,1,0,0,0,.23.3L82.41,73a0.28,0.28,0,0,0,.23.08h0.3a5.18,5.18,0,0,0,1-.15c0.38-.15.68-0.3,1-0.45a6.28,6.28,0,0,0,.9-0.6,6.58,6.58,0,0,0,.75-0.6l1,1a11.57,11.57,0,0,1-1.43,1.28L85.42,74a2.78,2.78,0,0,1-.83.38,4.24,4.24,0,0,1-.9.3A2.39,2.39,0,0,1,82.71,74.8Zm-1.05-3.61a2.33,2.33,0,0,0,.6-0.15,1.64,1.64,0,0,0,.6-0.38,4.3,4.3,0,0,0,.53-0.6,1.48,1.48,0,0,0,.3-0.6,1.09,1.09,0,0,0-.15-0.53,0.4,0.4,0,0,0-.3-0.23,1.77,1.77,0,0,0-.6.15,0.75,0.75,0,0,0-.38.3,1.27,1.27,0,0,0-.23.45,5.18,5.18,0,0,0-.23.6,2.33,2.33,0,0,0-.15.6v0.38Z"/>
    </g>
  </g>
</svg>
