<svg xmlns="http://www.w3.org/2000/svg" width="920" height="300" viewBox="320 -130 920 300" enable-background="new 320 -130 920 300"><path fill="#DC4A17" d="M320-130h120v259l-120 41z"/><g fill="#D6CEC9"><path d="M536.2 98.3c-1.3-1.3-2.7-2.5-4.3-3.6 16.4-8.8 25.9-24.6 25.9-44.3 0-8-2.3-14.2-7.1-18.7-6-6.4-16.6-9.7-31.8-9.7h-27.5l-31.1 147h1.2l-.2 1h23.7l14.3-68h7.9c3.9 0 7 1.2 9.2 3.1 2 2.3 3.1 5.8 3.1 10.2 0 2.6-.4 5.8-1.1 9.1l-9.4 44.6h1.2l-.2 1h23.8l9.1-43.3c.4-3 .7-5.7.7-8.4 0-8.9-2.6-15.5-7.4-20zm-2.7-45.1c0 22.4-13 33.8-24.1 33.8h-6.7l10.3-49h7.9c3.9 0 6.9 1 9.1 3 2.3 2.7 3.5 6.8 3.5 12.2zM636.1 36l.2-1h-21.7l-20.2 95.6c-3.7 17.2-9.2 25.8-16.7 25.8-1.9 0-3.5-.5-4.8-1.5-1.6-1.9-2.3-4.9-2.3-8.8 0-3 .3-6.7 1.3-11l21-99.1h-1.2l.2-1h-21.7l-20.9 98.6c-1 4.6-1.4 8.6-1.4 12.3 0 7.6 2.1 13.3 6.1 17.3 4.4 5 11.7 7.5 21.8 7.5 21.3 0 35.7-13.1 41.2-39l20.3-95.7h-1.2zM700.5 57.3c0-6.1-1.9-10.9-5.7-14.4-4.8-5.3-13.5-7.9-25.9-7.9h-23.2l-28.3 134h1.2l-.2 1h29c25.8 0 48.2-17.1 48.2-51.2 0-10.3-2.6-17.8-7.7-22.6-1.4-1.5-2.9-2.7-4.7-3.7 9.4-7.1 17.3-20.5 17.3-35.2zm-21.5 2.1c0 1.6-.2 3.3-.5 5.3l-.2.6c-3 13.9-8.3 20.7-15.9 20.7h-4.7l7.7-36h2.9c3.7 0 6.5.6 8.4 2.3 1.5 1.8 2.3 4 2.3 7.1zm-24.2 40.6h7.2c3 0 5.5.9 7.4 2.6 2.5 2.9 3.7 7.8 3.7 14.2 0 26-13.7 39.3-24.2 39.3h-6l11.9-56.1zM904.4 36l.2-1h-21.7l-12.4 59h-21.5l12.2-58h-1.2l.2-1h-21.7l-28.3 134h1.2l-.2 1h21.6l13.1-62h21.5l-12.8 61h1.2l-.2 1h21.6l28.4-134zM1017.4 104.4c-1.1-1.2-2.4-2.3-3.8-3.2 14.9-8 23.5-22.4 23.5-40.2 0-7.3-2.1-13-6.5-17.1-5.5-5.9-15.1-8.9-29-8.9h-25l-28.3 134h1.2l-.2 1h21.7l13.1-62h7.2c3.5 0 6.3 1 8.3 2.6 1.8 2.1 2.8 5.2 2.8 9.3 0 2.4-.3 5.4-1 8.4l-8.6 40.7h1.2l-.2 1h21.7l8.3-39.6c.3-2.7.6-5.3.6-7.7-.2-8.1-2.5-14.2-7-18.3zm-2.5-41.1c0 20.4-11.8 30.7-22 30.7h-6l9.3-44h7.2c3.5 0 6.3.7 8.3 2.5 2.2 2.4 3.2 5.9 3.2 10.8zM1110.5 71.3c1-4.5 1.4-8.6 1.4-12.3 0-7.9-2.2-13.8-6.7-17.8-4.4-4.6-11.5-6.9-21.2-6.9-22 0-35.8 13.1-41.2 39l-12.7 60.3c-1 4.6-1.4 8.6-1.4 12.3 0 7.6 2.1 13.3 6.1 17.3 4.4 5 11.7 7.5 21.8 7.5 21.3 0 35.7-13.1 41.2-39l12.7-60.4zm-59.2 74.8c0-3 .3-6.7 1.3-11l12.9-60.8c3.7-17 9.1-25.5 16.6-25.5 2 0 3.7.5 5 1.5 1.5 1.9 2.3 4.8 2.3 8.8 0 2.9-.6 6.5-1.3 10.7l-12.9 60.8c-3.7 17.2-9.2 25.8-16.7 25.8-1.9 0-3.5-.5-4.8-1.5-1.6-1.9-2.4-4.9-2.4-8.8zM1240 70.5c.5-3.5.6-6.7.6-9.7 0-9.6-2.4-16.6-7.1-20.8-3.6-3.8-8.9-5.9-15.7-5.9h-1.8c-22.3 0-37.6 21.2-37.6 41.5 0 5.9 1.3 11.7 4.3 16.9l24.8 44.1-.3-.3c.6 2.1 1 3.8 1 5.6 0 8.3-8.3 14.5-19.3 14.5-3.9 0-7-1-9.4-3.1-2.7-3.1-4.1-8-4.1-14.7 0-1.8.2-3.5.3-5.4l-1.1.2.1-1.2-12.9 2.2c-.5 3.2-.6 6.1-.6 8.8 0 9.4 2.3 16.3 6.9 20.7 4 4.5 10.1 6.8 18.3 6.8 20.9 0 36.6-15.6 40.4-33l.2-.6c.5-2.4.8-4.8.8-7.3 0-6.1-1.6-12.3-4.9-18.1l-24.8-44.1.3.3c-.6-2.1-1.1-3.8-1.1-5.4 0-8 8.4-13.9 18-13.9 3 0 5.4.8 7.3 2.5 2.6 3 3.8 7.9 3.8 14.7 0 1.8-.2 3.8-.3 6.1l1.1-.2-.1 1.2 12.9-2.4zM788.5 35h-13.4l-33.1 58.1-5.8-57.1h-.9l-.1-1h-26.1l10.3 84.2-10.5 49.8h1.2l-.2 1h21.7l11.1-52.8 46.8-81.2h-1.6zM946.3 94h-21.7l9.3-44h31.6l2.8-14h-1.2l.2-1h-53.2l-28.3 134h1.2l-.2 1h53.2l2.7-13h-1.2l.2-1h-30.3l10.1-48h22.9l2.9-13h-1.2zM1158.2 94h-21.7l9.4-44h31.5l2.9-14h-1.3l.3-1h-53.2l-28.4 134h1.2l-.2 1h53.2l2.7-13h-1.2l.2-1h-30.3l10.1-48h23l2.8-13h-1.2z"/></g><g fill="#fff"><path d="M534.2 96.3c-1.3-1.3-2.7-2.5-4.3-3.6 16.4-8.8 25.9-24.6 25.9-44.3 0-8-2.3-14.2-7.1-18.7-6-6.4-16.6-9.7-31.8-9.7h-27.5l-31.1 147h1.2l-.2 1h23.7l14.3-68h7.9c3.9 0 7 1.2 9.2 3.1 2 2.3 3.1 5.8 3.1 10.2 0 2.6-.4 5.8-1.1 9.1l-9.4 44.6h1.2l-.2 1h23.8l9.1-43.3c.4-3 .7-5.7.7-8.4 0-8.9-2.6-15.5-7.4-20zm-2.7-45.1c0 22.4-13 33.8-24.1 33.8h-6.7l10.3-49h7.9c3.9 0 6.9 1 9.1 3 2.3 2.7 3.5 6.8 3.5 12.2zM634.1 34l.2-1h-21.7l-20.2 95.6c-3.7 17.2-9.2 25.8-16.7 25.8-1.9 0-3.5-.5-4.8-1.5-1.6-1.9-2.3-4.9-2.3-8.8 0-3 .3-6.7 1.3-11l21-99.1h-1.2l.2-1h-21.7l-20.9 98.6c-1 4.6-1.4 8.6-1.4 12.3 0 7.6 2.1 13.3 6.1 17.3 4.4 5 11.7 7.5 21.8 7.5 21.3 0 35.7-13.1 41.2-39l20.3-95.7h-1.2zM698.5 55.3c0-6.1-1.9-10.9-5.7-14.4-4.8-5.3-13.5-7.9-25.9-7.9h-23.2l-28.3 134h1.2l-.2 1h29c25.8 0 48.2-17.1 48.2-51.2 0-10.3-2.6-17.8-7.7-22.6-1.4-1.5-2.9-2.7-4.7-3.7 9.4-7.1 17.3-20.5 17.3-35.2zm-21.5 2.1c0 1.6-.2 3.3-.5 5.3l-.2.6c-3 13.9-8.3 20.7-15.9 20.7h-4.7l7.7-36h2.9c3.7 0 6.5.6 8.4 2.3 1.5 1.8 2.3 4 2.3 7.1zm-24.2 40.6h7.2c3 0 5.5.9 7.4 2.6 2.5 2.9 3.7 7.8 3.7 14.2 0 26-13.7 39.3-24.2 39.3h-6l11.9-56.1zM902.4 34l.2-1h-21.7l-12.4 59h-21.5l12.2-58h-1.2l.2-1h-21.7l-28.3 134h1.2l-.2 1h21.6l13.1-62h21.5l-12.8 61h1.2l-.2 1h21.6l28.4-134zM1015.4 102.4c-1.1-1.2-2.4-2.3-3.8-3.2 14.9-8 23.5-22.4 23.5-40.2 0-7.3-2.1-13-6.5-17.1-5.5-5.9-15.1-8.9-29-8.9h-25l-28.3 134h1.2l-.2 1h21.7l13.1-62h7.2c3.5 0 6.3 1 8.3 2.6 1.8 2.1 2.8 5.2 2.8 9.3 0 2.4-.3 5.4-1 8.4l-8.6 40.7h1.2l-.2 1h21.7l8.3-39.6c.3-2.7.6-5.3.6-7.7-.2-8.1-2.5-14.2-7-18.3zm-2.5-41.1c0 20.4-11.8 30.7-22 30.7h-6l9.3-44h7.2c3.5 0 6.3.7 8.3 2.5 2.2 2.4 3.2 5.9 3.2 10.8zM1108.5 69.3c1-4.5 1.4-8.6 1.4-12.3 0-7.9-2.2-13.8-6.7-17.8-4.4-4.6-11.5-6.9-21.2-6.9-22 0-35.8 13.1-41.2 39l-12.7 60.3c-1 4.6-1.4 8.6-1.4 12.3 0 7.6 2.1 13.3 6.1 17.3 4.4 5 11.7 7.5 21.8 7.5 21.3 0 35.7-13.1 41.2-39l12.7-60.4zm-59.2 74.8c0-3 .3-6.7 1.3-11l12.9-60.8c3.7-17 9.1-25.5 16.6-25.5 2 0 3.7.5 5 1.5 1.5 1.9 2.3 4.8 2.3 8.8 0 2.9-.6 6.5-1.3 10.7l-12.9 60.8c-3.7 17.2-9.2 25.8-16.7 25.8-1.9 0-3.5-.5-4.8-1.5-1.6-1.9-2.4-4.9-2.4-8.8zM1238 68.5c.5-3.5.6-6.7.6-9.7 0-9.6-2.4-16.6-7.1-20.8-3.6-3.8-8.9-5.9-15.7-5.9h-1.8c-22.3 0-37.6 21.2-37.6 41.5 0 5.9 1.3 11.7 4.3 16.9l24.8 44.1-.3-.3c.6 2.1 1 3.8 1 5.6 0 8.3-8.3 14.5-19.3 14.5-3.9 0-7-1-9.4-3.1-2.7-3.1-4.1-8-4.1-14.7 0-1.8.2-3.5.3-5.4l-1.1.2.1-1.2-12.9 2.2c-.5 3.2-.6 6.1-.6 8.8 0 9.4 2.3 16.3 6.9 20.7 4 4.5 10.1 6.8 18.3 6.8 20.9 0 36.6-15.6 40.4-33l.2-.6c.5-2.4.8-4.8.8-7.3 0-6.1-1.6-12.3-4.9-18.1l-24.8-44.1.3.3c-.6-2.1-1.1-3.8-1.1-5.4 0-8 8.4-13.9 18-13.9 3 0 5.4.8 7.3 2.5 2.6 3 3.8 7.9 3.8 14.7 0 1.8-.2 3.8-.3 6.1l1.1-.2-.1 1.2 12.9-2.4zM786.5 33h-13.4l-33.1 58.1-5.8-57.1h-.9l-.1-1h-26.1l10.3 84.2-10.5 49.8h1.2l-.2 1h21.7l11.1-52.8 46.8-81.2h-1.6zM944.3 92h-21.7l9.3-44h31.6l2.8-14h-1.2l.2-1h-53.2l-28.3 134h1.2l-.2 1h53.2l2.7-13h-1.2l.2-1h-30.3l10.1-48h22.9l2.9-13h-1.2zM1156.2 92h-21.7l9.4-44h31.5l2.9-14h-1.3l.3-1h-53.2l-28.4 134h1.2l-.2 1h53.2l2.7-13h-1.2l.2-1h-30.3l10.1-48h23l2.8-13h-1.2z"/></g><path fill="#B03911" d="M325 95h54v50l-54.3 18.3z"/><path fill="#fff" d="M340.5 117.7h1.9l1.5-5.6h3.1l-1.5 5.6h3.4l-1.2 4.5h-3.4l-.5 2h3.4l-1.2 4.5h-3.4l-1.5 5.5h-3.1l1.5-5.5h-1.9l-1.5 5.5h-3.1l1.5-5.5h-3.4l1.2-4.5h3.4l.5-2h-3.4l1.2-4.5h3.4l1.3-5.6h3.3l-1.5 5.6zm-1.8 6.5h2l.5-2h-1.9l-.6 2z"/><g fill="#141413"><path d="M395.7 111.2c-.4-.2-.7-.3-1.1-.4.7-1.6 2-2.4 4-2.4 3 0 4.8 1.7 4.8 4.3v.4c-.1 1.9-1.7 3.5-2.9 3.9 2.1.9 3.5 3.2 3.5 5.3v.2c-.2 3.3-2.2 5.4-6 5.4-2.6 0-4.9-1.4-5.2-4.4l1.2-.2c.4 2.4 2.2 3.6 4.1 3.6 2.3 0 3.3-2.1 3.3-4.5v-.1c0-2.2-.8-4.4-2.1-4.8-.3.5-1.2.9-2 .9-.7 0-1.4-.4-1.4-1.3 0-1 .7-1.3 1.4-1.3.8 0 1.7.4 2 .8 1-.6 1.8-1.5 1.8-3.6v-.2c0-1.7-.6-3.3-2.7-3.3-1.1-.1-2.1.5-2.7 1.7zm1.7 5.2c-.4 0-.6.2-.6.6.1.4.4.6.8.6s.8-.2 1.2-.6c-.6-.4-1.1-.6-1.4-.6zM404.8 108.5h10.1v.7l-5.6 18.5h-3.2l5.7-18.1h-6.9l-.1-1.1zM420.1 111v2.3c1.2.1 2.1.6 2.7 1.6l-1.1.6c-.4-.7-.9-1.1-1.8-1.1-1.2 0-1.8 1-1.8 3v2.9c0 1.8.6 2.7 1.9 2.7.8 0 1.4-.4 1.7-1.2.4.2.7.3 1 .4-.5 1.1-1.3 1.7-2.6 1.8v2.1h-1.1v-2.1c-2.1-.2-3.2-1.4-3.2-3.7v-2.8c0-2.5 1.1-3.9 3.1-4.1v-2.4h1.2z"/></g><path fill="#E96736" d="M320 85l53.7-11.8-11.1-11.8 15.5-44.1-33.5-34.8-24.6 51zM422.8 29.7l-10.5-42.2-34.2 29.8zM440-62.8l-36.2 14.3 8.8 36 27.4-21.1zM359.5-59.7l35.4-31.7 8.9 42.9z"/><path fill="#fff" d="M368-48h28l16.9 15.6-31.1 32.3-30.4-31.7z"/><path fill="#C64013" d="M335.9-85l7.4-45h-23.3v26zM344.6-17.3l14.9-42.3-23.6-25.3-15.9 4.1v56.8zM394.9-91.4l-10-38.6h55.1l-.4 36.1z"/><g fill="#413D3A"><path d="M603.2 75.4l.1-.4-.8.3-11.1 52.3c-3.7 17.2-9.2 25.8-16.7 25.8-5.4 0-8.1-4-8.1-11.3 0-3 .3-6.7 1.3-11l10-47.2-22.5 7.6.1-.4-.8.3-8.3 39.2c-1 4.6-1.4 8.6-1.4 12.3 0 15.9 8.9 23.7 26.9 23.7 21.3 0 35.7-13.1 41.2-39l12.7-59.8-22.6 7.6zM539.6 82.1c-3.2 3-6.9 5.7-11.1 7.8.1.1.2.1.4.2 4-2.3 7.6-5 10.7-8zM696.5 53.3c0-3.3-.6-6.1-1.6-8.6l-18.6 6.3-.1-.3-.9.3c-1.4-4.1-5-6-10.9-6h-1.9l-.1.6h2c7.8 0 11.6 3.7 11.6 10.8 0 1.6-.2 3.3-.5 5.3l-.2.6c-3 13.9-8.3 20.7-15.9 20.7h-5.9l5.6-26.3-22.4 7.4.1-.4-.8.3-21.6 101.8h29c25.8 0 48.2-17 48.2-51.1 0-13.2-4.3-21.8-12.7-26 9.5-6.9 17.6-20.5 17.6-35.4zm-50.6 99.3h-7.2l12.1-56.4h7.2c8.1 0 12.1 5.9 12.1 17.4 0 26-13.7 39-24.2 39zM509.8 34h7.1c9 0 13.5 5.3 13.6 15.7v-.6c0-10.7-4.5-16.2-13.6-16.2h-6.9l-.2 1.1zM516.4 104.5l-.1-.3-.9.3c-1.8-4.8-5.9-7.5-12.2-7.5h-6.9l-.3 1.4h7.2c8.8 0 13.3 4.7 13.3 14 0 2.6-.3 5.8-1 9.1l-9.4 44.6h23.8l9.1-43.4c.3-3 .7-5.8.7-8.4 0-6.6-1.4-12-4.2-16.2l-19.1 6.4zM467.5 121.1l.1-.3-.9.2-9.5 45.1h23.8l11.3-53.5zM738.2 91.5l-6-59.4h-.5l-23.5 7.9-.1-.3-.9.3-1-7.9h-.1l10.3 84.1-10.5 49.6h21.7l11.1-52.7 46.8-81h-13.4zM1107.9 55c0-15.8-8.9-23.7-26.9-23.7-22 0-35.8 13.1-41.2 39l-12.7 60.3c-1 4.6-1.4 8.6-1.4 12.3 0 15.9 8.9 23.7 26.9 23.7 21.3 0 35.7-13.1 41.2-39l12.7-60.3c1-4.5 1.4-8.6 1.4-12.3zm-22.9 11.8l-12.9 60.8c-3.7 17.2-9.2 25.8-16.7 25.8-5.4 0-8.1-4-8.1-11.3 0-3 .3-6.7 1.3-11l12.9-60.8c3.7-17 9.1-25.5 16.6-25.5 5.6 0 8.3 3.8 8.3 11.3-.1 2.9-.7 6.6-1.4 10.7zM879.9 32.1l-12.4 58.6h-22.8l12.5-58.6h-21.7l-28.3 133.7h21.6l13.1-61.6h22.8l-13.1 61.6h21.6l28.4-133.7zM1236 66.5c.5-3.5.6-6.7.6-9.7 0-16.9-7.3-25.5-21.8-25.5h-1.8c-22.3 0-37.6 21-37.6 41.4 0 5.9 1.3 11.6 4.3 16.9l24.8 44.1-.3-.3c.6 2.1 1 3.8 1 5.6 0 8.3-8.3 14.5-19.3 14.5-9.7 0-14.5-6.2-14.5-18.8 0-1.8.2-3.5.3-5.4l-12.9 2.2c-.5 3.2-.6 6.1-.6 8.8 0 17.7 8.1 26.4 24.2 26.4 20.9 0 36.6-15.6 40.4-33l.2-.6c.5-2.4.8-4.8.8-7.3 0-6-1.6-12.3-4.9-18.1l-24.8-44.1.3.3c-.6-2.1-1.1-3.8-1.1-5.4 0-8 8.4-13.9 18-13.9 8.1 0 12.1 6.1 12.1 18.2 0 1.8-.2 3.8-.3 6.1l12.9-2.4zM1141.9 45.6h31.5l2.9-13.5h-53.2l-28.4 133.7h53.2l2.7-13.2h-31.5l10.3-48.4h23l2.8-13.5h-22.9zM1009.2 97.4c15.1-8 23.9-22.5 23.9-40.4 0-16.6-11.1-24.8-34.6-24.8h-25l-28.3 133.7h21.7l13.1-61.6h7.2c8 0 12.1 4.3 12.1 12.7 0 2.4-.3 5.3-1 8.3l-8.6 40.6h21.7l8.3-39.5c.3-2.7.6-5.3.6-7.6-.1-10.4-3.9-17.5-11.1-21.4zm-19.2-6.4h-7.2l9.6-45.4h7.2c8.3 0 12.4 4.9 12.4 14.6-.1 20.4-11.8 30.8-22 30.8zM929.9 45.6h31.6l2.8-13.5h-53.2l-28.3 133.7h53.2l2.7-13.2h-31.5l10.3-48.4h22.9l2.9-13.5h-22.9z"/></g><g fill="#302E2B"><path d="M732.2 32h-26.1l1.1 9 25-8.4zM665.9 32h-23.2l-7 33.1 23.3-7.6 2.5-11.5h2.9c5.9 0 9.5 1.9 10.9 6l19.8-6.8c-3.4-8.7-13.1-13.2-29.2-13.2zM633.3 32h-21.7l-9.4 44.4 23.4-7.9zM588.9 32h-21.7l-12.8 60.5 23.3-7.9zM527.5 90.9c16.6-8.8 26.2-24.7 26.2-44.5 0-18.2-12.2-27.4-38-27.4h-27.5l-21.8 103.1 25.6-8.8 3.2-15.3h7.9c6.3 0 10.4 2.7 12.2 7.5l20.4-6.8c-1.9-3.3-4.6-5.8-8.2-7.8zm-21.1-6.9h-7.9l10.5-50h7.9c9.1 0 13.6 5.5 13.6 16.2 0 22.4-12.9 33.8-24.1 33.8z"/></g><path fill="#fff" d="M353.2 130.1c0-3.8 2.2-6.4 5.9-8v-.1c-3.3-1.6-4.7-4.1-4.7-6.7 0-4.7 4-7.9 9.2-7.9 5.8 0 8.7 3.6 8.7 7.3 0 2.5-1.2 5.2-4.9 7v.1c3.7 1.5 6 4.1 6 7.7 0 5.2-4.4 8.7-10.1 8.7-6.3 0-10.1-3.8-10.1-8.1zm16.1-.2c0-3.6-2.5-5.4-6.6-6.5-3.5 1-5.4 3.3-5.4 6.1-.1 3 2.2 5.7 6 5.7 3.6 0 6-2.2 6-5.3zm-11.1-14.9c0 3 2.2 4.6 5.7 5.5 2.6-.9 4.5-2.7 4.5-5.4 0-2.4-1.4-4.9-5-4.9-3.4 0-5.2 2.2-5.2 4.8z"/></svg>