<svg xmlns="http://www.w3.org/2000/svg" width="1339.8" height="242.2" viewBox="530 -113 1339.8 242.2" enable-background="new 530 -113 1339.8 242.2"><path fill="#fff" d="M905.3 39c-20.5 0-33.3-12.3-33.3-38s12.8-38 33.3-38c7.6 0 15.2 2.4 21.8 6.4l12.7-24.5c-11.1-5.8-23.8-9.1-36.9-9.1-38.9 0-66.9 23.9-66.9 65.2 0 41.3 27.9 65.2 66.9 65.2 11.2 0 22.1-2.4 31.9-6.7l-12.5-24.3c-5.5 2.4-11.3 3.8-17 3.8zM1464.9-3.3c5.4 0 10.2 2 13.8 5.6l7.4-21.1c-7.8-4.7-17.2-7.1-27.4-7.1-26.7 0-48.3 16.9-48.3 45.5s21.6 45.5 48.3 45.5c10.2 0 19.6-2.5 27.4-7.1l-7.4-21.1c-3.6 3.6-8.5 5.6-13.8 5.6-11.1 0-20.1-6.6-20.1-22.8 0-16.4 9-23 20.1-23zM987.6-26c-26.7 0-48.3 16.9-48.3 45.5s21.6 45.5 48.3 45.5 48.3-16.9 48.3-45.5-21.6-45.5-48.3-45.5zm0 71.1c-7.7 0-13.9-9.4-13.9-25.6s6.3-25.6 13.9-25.6c7.7 0 13.9 9.4 13.9 25.6 0 16.2-6.2 25.6-13.9 25.6zM1656-26c-26.7 0-48.3 16.9-48.3 45.5s21.6 45.5 48.3 45.5c26.7 0 48.3-16.9 48.3-45.5s-21.6-45.5-48.3-45.5zm0 71.1c-7.7 0-13.9-9.4-13.9-25.6s6.2-25.6 13.9-25.6 13.9 9.4 13.9 25.6c.1 16.2-6.2 25.6-13.9 25.6zM1763.1-26c-26.7 0-48.3 16.9-48.3 45.5s21.6 45.5 48.3 45.5 48.3-16.9 48.3-45.5-21.6-45.5-48.3-45.5zm0 71.1c-7.7 0-13.9-9.4-13.9-25.6s6.2-25.6 13.9-25.6 13.9 9.4 13.9 25.6c.1 16.2-6.2 25.6-13.9 25.6zM1214.2 43.8c-8.3 0-13.7-4.7-15.8-14.1 28.7.8 46.6-11 46.6-28.2 0-16.6-15.3-27.6-33.7-27.6-26.7 0-48.3 16.9-48.3 45.5s19.2 45.5 45.8 45.5c25.4 0 40.4-19.2 40.4-19.2l-8.9-14.4c.1.1-12.8 12.5-26.1 12.5zm-2.9-49.9c5 0 7.3 4.2 7.3 8.4 0 7.8-5.1 12.3-21.1 13.1 1-13.7 6.8-21.5 13.8-21.5zM1141.9 31.1v-98.4h-32.9v55.4c-6.5-9.1-16-14.1-26.7-14.1-19.6 0-35.5 16.9-35.5 45.5s15.9 45.5 35.5 45.5c11.8 0 22.2-6.1 28.7-17.2 4.2 12.3 14.5 17.2 25.6 17.2 11.2 0 16.9-3.2 16.9-3.2l2-23.5s-13.6 7.8-13.6-7.2zm-46.7 12.9c-7.7 0-13.9-9-13.9-24.5s6.2-24.5 13.9-24.5 13.9 9 13.9 24.5-6.3 24.5-13.9 24.5zM1585.9 31.1v-33c0-14.7-5.1-24.1-20.8-24.1-12.6 0-23.9 6.4-29.8 17.2v-58.5h-32.9v129.7h32.9v-31c0-28.4 8.8-36.3 13.9-36.3 3.5 0 5.2 2.5 5.2 8.5v30.9c0 22.3 12.6 30.6 27 30.6 11.2 0 16.9-3.2 16.9-3.2l2-23.5c.1-.1-14.4 6.8-14.4-7.3zM1856.2 31.1v-98.4h-32.9v101.7c0 22.3 13.1 30.6 27.6 30.6 11.2 0 16.9-3.2 16.9-3.2l2-23.5s-13.6 7.8-13.6-7.2zM1365.3-13.9c-20.2-7.3-24.6-9.4-24.6-16.4 0-6.4 4.3-10 11.2-10 16.3 0 36.6 10.9 36.6 10.9l9.2-21.4s-14.9-13.5-43.5-13.5c-30.8 0-46.8 16.3-46.8 37.7 0 15.8 7.7 30.3 33.4 38.8 19.8 6.5 23.6 11.1 23.6 17.4 0 7.9-5.7 11.3-14.8 11.3-18.5 0-40.2-14.1-40.2-14.1l-11 21.8s21.8 17.7 51.1 17.7c32.5 0 49.6-16.4 49.6-40.2-.1-18.2-4.8-29.4-33.8-40z"/><g fill="#fff"><path d="M1415.3 96.9h7.2v26h16.2v6.5h-23.4v-32.5zM1446.8 96.9h24.5v6.4h-17.3v6.6h15.3v6.4h-15.3v6.8h17.7v6.4h-24.8v-32.6zM1491.9 96.7h6.6l13.9 32.8h-7.5l-3-7.3h-13.8l-3 7.3h-7.3l14.1-32.8zm7.6 19.2l-4.3-10.6-4.3 10.6h8.6zM1520.3 96.9h14.9c4.1 0 7.3 1.2 9.5 3.3 1.8 1.8 2.8 4.4 2.8 7.4v.1c0 5.3-2.8 8.6-7 10.1l8 11.6h-8.4l-7-10.4h-5.6v10.4h-7.2v-32.5zm14.4 15.9c3.5 0 5.5-1.9 5.5-4.6v-.1c0-3.1-2.1-4.6-5.6-4.6h-7.1v9.3h7.2zM1556.7 96.9h6.6l15.2 20v-20h7.1v32.5h-6.1l-15.8-20.7v20.7h-7.1v-32.5zM1612.9 96.9h15.1c3.7 0 6.6 1 8.5 2.9 1.5 1.5 2.2 3.3 2.2 5.5v.1c0 3.7-2 5.7-4.3 7 3.8 1.4 6.1 3.6 6.1 8v.1c0 6-4.8 8.9-12.2 8.9h-15.5v-32.5zm18.8 9.7c0-2.1-1.7-3.3-4.7-3.3h-7.1v6.9h6.6c3.2-.1 5.2-1.1 5.2-3.6zm-3.5 9.5h-8.3v7.2h8.5c3.2 0 5.1-1.1 5.1-3.5v-.1c0-2.3-1.6-3.6-5.3-3.6zM1657.1 116.7l-12.5-19.7h8.4l7.8 13.1 7.9-13.1h8.1l-12.5 19.6v13h-7.2v-12.9zM1700.7 96.9h12.7c10.2 0 17.3 7 17.3 16.2v.1c0 9.2-7.1 16.3-17.3 16.3h-12.7v-32.6zm7.2 6.5v19.6h5.5c5.9 0 9.8-4 9.8-9.7v-.1c0-5.8-4-9.8-9.8-9.8h-5.5zM1738.4 113.3c0-9.3 7.3-16.9 17.3-16.9s17.2 7.5 17.2 16.7v.1c0 9.3-7.3 16.8-17.3 16.8s-17.2-7.4-17.2-16.7zm27.1 0c0-5.7-4.1-10.3-9.9-10.3-5.8 0-9.8 4.6-9.8 10.1v.1c0 5.6 4.1 10.2 9.9 10.2 5.8 0 9.8-4.5 9.8-10.1zM1782.5 96.9h7.2v32.5h-7.2v-32.5zM1800.6 96.9h6.6l15.2 20v-20h7.1v32.5h-6.1l-15.8-20.7v20.7h-7.1v-32.5zM1838.6 113.3c0-9.3 7.2-16.9 17.1-16.9 5.9 0 9.4 1.6 12.8 4.5l-4.5 5.4c-2.5-2.1-4.7-3.3-8.5-3.3-5.2 0-9.3 4.6-9.3 10.1v.1c0 6 4.1 10.3 9.9 10.3 2.6 0 4.9-.7 6.7-2v-4.6h-7.2v-6.2h14.1v14.1c-3.3 2.8-8 5.2-13.9 5.2-10.2 0-17.2-7.1-17.2-16.7z"/></g><g fill="#fff"><path d="M663.7-56.6v31l35.3 33.2-35.3 33.2v31l68-64.2zM637.5 40.8l-35.3-33.2 35.3-33.2v-31l-68 64.2 68 64.2z"/></g><path fill="#fff" d="M650.6-113c-66.6 0-120.6 54-120.6 120.6s54 120.6 120.6 120.6 120.6-54 120.6-120.6-54-120.6-120.6-120.6zm0 219.6c-54.7 0-99-44.3-99-99s44.3-99 99-99 99 44.3 99 99-44.3 99-99 99z"/></svg>