<?xml version="1.0" encoding="utf-8"?>
<!-- Generator: Adobe Illustrator 19.2.1, SVG Export Plug-In . SVG Version: 6.00 Build 0)  -->
<svg version="1.1" id="Layer_1" xmlns="http://www.w3.org/2000/svg" xmlns:xlink="http://www.w3.org/1999/xlink" x="0px" y="0px"
	 viewBox="0 0 600.6 114.6" style="enable-background:new 0 0 600.6 114.6;" xml:space="preserve">
<style type="text/css">
	.st0{fill:#FFFFFF;}
</style>
<path class="st0" d="M168.2,68.2c-9.2,0-14.9-5.5-14.9-17s5.7-17,14.9-17c3.4,0,6.8,1.1,9.8,2.9l5.7-11c-5-2.6-10.7-4.1-16.6-4.1
	c-17.5,0-30,10.7-30,29.2s12.5,29.2,30,29.2c5,0,9.9-1.1,14.3-3l-5.6-10.9C173.4,67.6,170.8,68.2,168.2,68.2L168.2,68.2z
	 M419.1,49.2c2.4,0,4.6,0.9,6.2,2.5l3.3-9.5c-3.5-2.1-7.7-3.2-12.3-3.2c-12,0-21.6,7.6-21.6,20.4s9.7,20.4,21.6,20.4
	c4.6,0,8.8-1.1,12.3-3.2l-3.3-9.5c-1.6,1.6-3.8,2.5-6.2,2.5c-5,0-9-3-9-10.2S414.1,49.2,419.1,49.2z M205.1,39
	c-12,0-21.6,7.6-21.6,20.4s9.7,20.4,21.6,20.4s21.6-7.6,21.6-20.4C226.8,46.6,217.1,39,205.1,39L205.1,39z M205.1,70.9
	c-3.4,0-6.2-4.2-6.2-11.5s2.8-11.5,6.2-11.5c3.4,0,6.2,4.2,6.2,11.5C211.4,66.7,208.6,70.9,205.1,70.9z M504.8,39
	c-12,0-21.6,7.6-21.6,20.4s9.7,20.4,21.6,20.4s21.6-7.6,21.6-20.4S516.7,39,504.8,39z M504.8,70.9c-3.4,0-6.2-4.2-6.2-11.5
	s2.8-11.5,6.2-11.5s6.2,4.3,6.2,11.5C511,66.7,508.2,70.9,504.8,70.9z M552.8,39c-12,0-21.6,7.6-21.6,20.4s9.7,20.4,21.6,20.4
	c12,0,21.6-7.6,21.6-20.4S564.7,39,552.8,39z M552.8,70.9c-3.4,0-6.2-4.2-6.2-11.5s2.8-11.5,6.2-11.5s6.2,4.3,6.2,11.5
	C559,66.7,556.2,70.9,552.8,70.9z M306.7,70.3c-3.7,0-6.1-2.1-7.1-6.3c12.9,0.4,20.9-4.9,20.9-12.6c0-7.4-6.8-12.4-15.1-12.4
	c-12,0-21.6,7.6-21.6,20.4s8.6,20.4,20.5,20.4c11.4,0,18.1-8.6,18.1-8.6l-4-6.5C318.4,64.7,312.7,70.3,306.7,70.3L306.7,70.3z
	 M305.4,47.9c2.2,0,3.3,1.9,3.3,3.8c0,3.5-2.3,5.5-9.5,5.9C299.7,51.5,302.3,47.9,305.4,47.9z M274.3,64.6V20.5h-14.7v24.8
	c-2.9-4.1-7.2-6.3-12-6.3c-8.8,0-15.9,7.6-15.9,20.4s7.1,20.4,15.9,20.4c5.3,0,10-2.7,12.9-7.7c1.9,5.5,6.5,7.7,11.5,7.7l7.6-1.4
	l0.9-10.5C280.4,67.9,274.3,71.4,274.3,64.6z M253.3,70.4c-3.4,0-6.2-4-6.2-11c0-6.9,2.8-11,6.2-11s6.2,4,6.2,11
	C259.6,66.4,256.8,70.4,253.3,70.4z M473.3,64.6V49.8c0-6.6-2.3-10.8-9.3-10.8c-5.6,0-10.7,2.9-13.4,7.7V20.5H436v58.1h14.7V64.7
	c0-12.7,4-16.3,6.2-16.3c1.6,0,2.3,1.1,2.3,3.8v13.9c0,10,5.6,13.7,12.1,13.7c5,0,7.6-1.4,7.6-1.4l0.9-10.5
	C479.9,67.9,473.3,71,473.3,64.6z M594.5,64.6V20.5h-14.7v45.6c0,10,5.9,13.7,12.4,13.7c5,0,7.6-1.4,7.6-1.4l0.9-10.5
	C600.6,67.9,594.5,71.4,594.5,64.6z M374.5,44.5c-9-3.3-11-4.2-11-7.3c0-2.9,1.9-4.5,5-4.5c7.3,0,16.4,4.9,16.4,4.9L389,28
	c0,0-6.7-6.1-19.5-6.1c-13.8,0-21,7.3-21,16.9c0,7.1,3.5,13.6,15,17.4c8.9,2.9,10.6,5,10.6,7.8c0,3.5-2.6,5.1-6.6,5.1
	c-8.3,0-18-6.3-18-6.3l-4.9,9.8c0,0,9.8,7.9,22.9,7.9c14.6,0,22.2-7.3,22.2-18C389.5,54.2,387.4,49.2,374.5,44.5z"/>
<path class="st0" d="M60,25.3v13.9l15.8,14.9L60,69v13.9l30.4-28.8L60,25.3z M48.2,69L32.4,54.1l15.8-14.9V25.3L17.7,54.1l30.5,28.8
	V69z M54.1,0C24.2,0,0,24.2,0,54.1s24.2,54.1,54.1,54.1s54.1-24.2,54.1-54.1S83.9,0,54.1,0z M54.1,98.5c-24.5,0-44.4-19.9-44.4-44.4
	S29.6,9.7,54.1,9.7s44.4,19.9,44.4,44.4S78.6,98.5,54.1,98.5z"/>
<path class="st0" d="M343.7,107.4c0-2.7,2-4,5-4c1.2,0,2.1,0.2,3,0.5v-0.2c0-1.4-0.9-2.2-2.6-2.2c-1.3,0-2.3,0.3-3.4,0.7l-0.9-2.7
	c1.4-0.6,2.7-1,4.8-1c1.9,0,3.3,0.5,4.2,1.4s1.3,2.3,1.3,3.9v7.1h-3.4v-1.3c-0.9,0.9-2,1.6-3.7,1.6
	C345.6,111.2,343.7,109.8,343.7,107.4L343.7,107.4z M351.7,106.6V106c-0.6-0.3-1.4-0.5-2.2-0.5c-1.5,0-2.4,0.6-2.4,1.7
	c0,0.9,0.8,1.5,1.9,1.5C350.6,108.7,351.7,107.8,351.7,106.6z M365.3,94.9h6.6c3.8,0,6.1,2.3,6.1,5.6c0,3.7-2.9,5.6-6.5,5.6h-2.7
	v4.8h-3.5L365.3,94.9L365.3,94.9z M371.6,103c1.8,0,2.8-1.1,2.8-2.4c0-1.6-1.1-2.4-2.9-2.4h-2.7v4.9L371.6,103L371.6,103z
	 M380.4,94.2h3.5v16.7h-3.5V94.2z M387.1,106.6v-8h3.5v6.9c0,1.7,0.8,2.5,2.1,2.5s2.2-0.8,2.2-2.5v-6.9h3.5v12.3h-3.5v-1.7
	c-0.8,1-1.8,2-3.6,2C388.6,111.2,387.1,109.4,387.1,106.6z M401.5,98.6h3.5v2.5c0.7-1.7,1.9-2.8,3.9-2.7v3.6h-0.2
	c-2.3,0-3.7,1.4-3.7,4.3v4.5h-3.5C401.5,110.8,401.5,98.6,401.5,98.6z M409.8,107.4c0-2.7,2-4,5-4c1.2,0,2.1,0.2,3,0.5v-0.2
	c0-1.4-0.9-2.2-2.6-2.2c-1.3,0-2.3,0.3-3.4,0.7l-0.9-2.7c1.4-0.6,2.7-1,4.8-1c1.9,0,3.3,0.5,4.2,1.4c0.9,0.9,1.3,2.3,1.3,3.9v7.1
	h-3.4v-1.3c-0.9,0.9-2,1.6-3.7,1.6C411.7,111.2,409.8,109.8,409.8,107.4L409.8,107.4z M417.8,106.6V106c-0.6-0.3-1.4-0.5-2.2-0.5
	c-1.5,0-2.4,0.6-2.4,1.7c0,0.9,0.8,1.5,1.9,1.5C416.7,108.7,417.8,107.8,417.8,106.6z M424.2,94.2h3.5v16.7h-3.5V94.2z M430,109.3
	l1.5-2.3c1.3,1,2.7,1.5,3.9,1.5c1,0,1.5-0.4,1.5-0.9c0-0.8-1.2-1-2.5-1.4c-1.7-0.5-3.7-1.3-3.7-3.7c0-2.5,2-3.9,4.5-3.9
	c1.6,0,3.3,0.5,4.6,1.4l-1.3,2.4c-1.2-0.7-2.4-1.1-3.3-1.1c-0.8,0-1.3,0.4-1.3,0.8c0,0.7,1.2,1,2.5,1.5c1.7,0.6,3.7,1.4,3.7,3.7
	c0,2.7-2,4-4.7,4C433.6,111.2,431.7,110.6,430,109.3z M442.6,94.2h3.7v3.1h-3.7V94.2z M442.7,98.6h3.5v12.3h-3.5V98.6z M449.5,113.4
	l1.2-2.6c1.3,0.7,2.5,1.1,4.2,1.1c2.4,0,3.5-1.1,3.5-3.3V108c-1,1.2-2.2,2-4,2c-2.9,0-5.5-2.1-5.5-5.7c0-3.7,2.6-5.7,5.5-5.7
	c1.9,0,3,0.8,4,1.8v-1.6h3.5v9.5c0,2.2-0.5,3.8-1.6,4.8c-1.1,1.1-2.9,1.7-5.3,1.7C453,114.6,451.1,114.2,449.5,113.4L449.5,113.4z
	 M458.4,104.2c0-1.7-1.3-2.9-3-2.9s-3,1.2-3,2.8c0,1.7,1.3,2.8,3,2.8S458.4,105.8,458.4,104.2z M464.9,94.2h3.5v6.2
	c0.8-1,1.8-2,3.6-2c2.6,0,4.2,1.7,4.2,4.6v8h-3.5v-6.9c0-1.7-0.8-2.5-2.1-2.5s-2.2,0.8-2.2,2.5v6.9h-3.5V94.2z M479.8,107.4v-5.8
	h-1.5v-3h1.5v-3.1h3.5v3.1h2.9v3h-2.9v5.3c0,0.8,0.3,1.2,1.1,1.2c0.6,0,1.2-0.2,1.7-0.4v2.8c-0.7,0.4-1.6,0.7-2.8,0.7
	C481.2,111.1,479.8,110.3,479.8,107.4z M495,104.8c0-3.6,2.7-6.4,6.4-6.4c2.3,0,3.8,0.8,4.9,2.1l-2.1,2.3c-0.8-0.8-1.6-1.4-2.8-1.4
	c-1.7,0-3,1.5-3,3.3c0,1.9,1.2,3.4,3.1,3.4c1.2,0,2-0.5,2.8-1.3l2,2.1c-1.2,1.3-2.6,2.2-5,2.2C497.7,111.2,495,108.4,495,104.8
	L495,104.8z M507.8,104.8c0-3.6,2.8-6.4,6.7-6.4c3.8,0,6.6,2.8,6.6,6.4c0,3.5-2.8,6.4-6.7,6.4C510.6,111.2,507.8,108.4,507.8,104.8z
	 M517.7,104.8c0-1.9-1.3-3.4-3.2-3.4c-2,0-3.2,1.5-3.2,3.3s1.3,3.4,3.2,3.4C516.5,108.2,517.7,106.7,517.7,104.8z M523.6,98.6h3.5
	v1.7c0.8-1,1.9-2,3.6-2c1.6,0,2.8,0.7,3.5,2c1.1-1.3,2.4-2,4-2c2.6,0,4.2,1.6,4.2,4.5v8h-3.5v-6.9c0-1.7-0.7-2.5-2-2.5
	s-2.1,0.8-2.1,2.5v6.9h-3.5v-6.9c0-1.7-0.7-2.5-2-2.5s-2.1,0.8-2.1,2.5v6.9h-3.5V98.6H523.6z M545.4,98.6h3.5v1.8c0.8-1.1,2-2,3.8-2
	c2.9,0,5.6,2.2,5.6,6.4c0,4.1-2.7,6.4-5.6,6.4c-1.9,0-3-0.9-3.8-1.8v5.3h-3.5C545.4,114.7,545.4,98.6,545.4,98.6z M554.8,104.8
	c0-2.1-1.4-3.4-3-3.4s-3,1.4-3,3.4s1.4,3.4,3,3.4C553.5,108.2,554.8,106.9,554.8,104.8z M560.2,107.4c0-2.7,2-4,5-4
	c1.2,0,2.1,0.2,3,0.5v-0.2c0-1.4-0.9-2.2-2.6-2.2c-1.3,0-2.3,0.3-3.4,0.7l-0.9-2.7c1.4-0.6,2.7-1,4.8-1c1.9,0,3.3,0.5,4.2,1.4
	c0.9,0.9,1.3,2.3,1.3,3.9v7.1h-3.4v-1.3c-0.9,0.9-2,1.6-3.7,1.6C562.1,111.2,560.2,109.8,560.2,107.4L560.2,107.4z M568.2,106.6V106
	c-0.6-0.3-1.4-0.5-2.2-0.5c-1.5,0-2.4,0.6-2.4,1.7c0,0.9,0.8,1.5,1.9,1.5C567.1,108.7,568.2,107.8,568.2,106.6z M574.5,98.6h3.5v1.7
	c0.8-1,1.8-2,3.6-2c2.6,0,4.2,1.7,4.2,4.6v8h-3.5V104c0-1.7-0.8-2.5-2.1-2.5s-2.2,0.8-2.2,2.5v6.9h-3.5V98.6z M588.3,113.8l1.2-2.5
	c0.5,0.3,1,0.5,1.5,0.5c0.6,0,0.9-0.2,1.2-0.8l-4.8-12.3h3.7l2.8,8.4l2.7-8.4h3.6l-4.7,12.6c-0.9,2.5-2,3.4-4,3.4
	C590.1,114.7,589.2,114.3,588.3,113.8z"/>
</svg>
