<svg id="Layer_1" data-name="Layer 1" xmlns="http://www.w3.org/2000/svg" viewBox="0 0 920.6 300.7">
  <defs>
    <style>
      .cls-1 {
        fill: #dc4a17;
      }

      .cls-2 {
        fill: #d6cec9;
      }

      .cls-3 {
        fill: #fff;
      }

      .cls-4 {
        fill: #b03911;
      }

      .cls-5 {
        fill: #141413;
      }

      .cls-6 {
        fill: #e96736;
      }

      .cls-7 {
        fill: #c64013;
      }

      .cls-8 {
        fill: #413d3a;
      }

      .cls-9 {
        fill: #302e2b;
      }
    </style>
  </defs>
  <title>logo-rubyheroes</title>
  <path class="cls-1" d="M0-.35H120v259l-120,41v-300Z" transform="translate(0 0.35)"/>
  <path class="cls-2" d="M216.2,227.95a30.36,30.36,0,0,0-4.3-3.6c16.4-8.8,25.9-24.6,25.9-44.3,0-8-2.3-14.2-7.1-18.7-6-6.4-16.6-9.7-31.8-9.7H171.4l-31.1,147h1.2l-0.2,1H165l14.3-68h7.9a13.77,13.77,0,0,1,9.2,3.1c2,2.3,3.1,5.8,3.1,10.2a45.77,45.77,0,0,1-1.1,9.1l-9.4,44.6h1.2l-0.2,1h23.8l9.1-43.3a63.39,63.39,0,0,0,.7-8.4c0-8.9-2.6-15.5-7.4-20h0Zm-2.7-45.1c0,22.4-13,33.8-24.1,33.8h-6.7l10.3-49h7.9c3.9,0,6.9,1,9.1,3C212.3,173.35,213.5,177.45,213.5,182.85Zm102.6-17.2,0.2-1H294.6l-20.2,95.6c-3.7,17.2-9.2,25.8-16.7,25.8a7.64,7.64,0,0,1-4.8-1.5c-1.6-1.9-2.3-4.9-2.3-8.8a48.37,48.37,0,0,1,1.3-11l21-99.1h-1.2l0.2-1H250.2l-20.9,98.6a57.24,57.24,0,0,0-1.4,12.3c0,7.6,2.1,13.3,6.1,17.3,4.4,5,11.7,7.5,21.8,7.5,21.3,0,35.7-13.1,41.2-39l20.3-95.7h-1.2Zm64.4,21.3q0-9.15-5.7-14.4c-4.8-5.3-13.5-7.9-25.9-7.9H325.7l-28.3,134h1.2l-0.2,1h29c25.8,0,48.2-17.1,48.2-51.2,0-10.3-2.6-17.8-7.7-22.6a18.75,18.75,0,0,0-4.7-3.7A45.61,45.61,0,0,0,380.5,187h0ZM359,189a36.1,36.1,0,0,1-.5,5.3l-0.2.6c-3,13.9-8.3,20.7-15.9,20.7h-4.7l7.7-36h2.9c3.7,0,6.5.6,8.4,2.3A10.44,10.44,0,0,1,359,189Zm-24.2,40.6H342a10.77,10.77,0,0,1,7.4,2.6c2.5,2.9,3.7,7.8,3.7,14.2,0,26-13.7,39.3-24.2,39.3h-6l11.9-56.1h0Zm249.6-64,0.2-1H562.9l-12.4,59H529l12.2-58H540l0.2-1H518.5l-28.3,134h1.2l-0.2,1h21.6l13.1-62h21.5l-12.8,61h1.2l-0.2,1h21.6l28.4-134h-1.2Zm113,68.4a19.54,19.54,0,0,0-3.8-3.2c14.9-8,23.5-22.4,23.5-40.2,0-7.3-2.1-13-6.5-17.1-5.5-5.9-15.1-8.9-29-8.9h-25l-28.3,134h1.2l-0.2,1H651l13.1-62h7.2a13.06,13.06,0,0,1,8.3,2.6c1.8,2.1,2.8,5.2,2.8,9.3a38.2,38.2,0,0,1-1,8.4l-8.6,40.7H674l-0.2,1h21.7l8.3-39.6a72.08,72.08,0,0,0,.6-7.7c-0.2-8.1-2.5-14.2-7-18.3h0Zm-2.5-41.1c0,20.4-11.8,30.7-22,30.7h-6l9.3-44h7.2c3.5,0,6.3.7,8.3,2.5C693.9,184.55,694.9,188,694.9,192.95Zm95.6,8a56.56,56.56,0,0,0,1.4-12.3c0-7.9-2.2-13.8-6.7-17.8-4.4-4.6-11.5-6.9-21.2-6.9-22,0-35.8,13.1-41.2,39l-12.7,60.3a57.24,57.24,0,0,0-1.4,12.3c0,7.6,2.1,13.3,6.1,17.3,4.4,5,11.7,7.5,21.8,7.5,21.3,0,35.7-13.1,41.2-39L790.5,201h0Zm-59.2,74.8a48.38,48.38,0,0,1,1.3-11l12.9-60.8c3.7-17,9.1-25.5,16.6-25.5a8,8,0,0,1,5,1.5c1.5,1.9,2.3,4.8,2.3,8.8a71.4,71.4,0,0,1-1.3,10.7l-12.9,60.8c-3.7,17.2-9.2,25.8-16.7,25.8a7.64,7.64,0,0,1-4.8-1.5C732.1,282.65,731.3,279.65,731.3,275.75ZM920,200.15a67.22,67.22,0,0,0,.6-9.7c0-9.6-2.4-16.6-7.1-20.8-3.6-3.8-8.9-5.9-15.7-5.9H896c-22.3,0-37.6,21.2-37.6,41.5a33.49,33.49,0,0,0,4.3,16.9l24.8,44.1-0.3-.3a20.1,20.1,0,0,1,1,5.6c0,8.3-8.3,14.5-19.3,14.5-3.9,0-7-1-9.4-3.1-2.7-3.1-4.1-8-4.1-14.7,0-1.8.2-3.5,0.3-5.4l-1.1.2,0.1-1.2-12.9,2.2a55.76,55.76,0,0,0-.6,8.8q0,14.1,6.9,20.7c4,4.5,10.1,6.8,18.3,6.8,20.9,0,36.6-15.6,40.4-33l0.2-.6a35.49,35.49,0,0,0,.8-7.3,36.51,36.51,0,0,0-4.9-18.1l-24.8-44.1,0.3,0.3a20.69,20.69,0,0,1-1.1-5.4c0-8,8.4-13.9,18-13.9a10.45,10.45,0,0,1,7.3,2.5c2.6,3,3.8,7.9,3.8,14.7,0,1.8-.2,3.8-0.3,6.1l1.1-.2-0.1,1.2,12.9-2.4h0Zm-451.5-35.5H455.1L422,222.75l-5.8-57.1h-0.9l-0.1-1H389.1l10.3,84.2-10.5,49.8h1.2l-0.2,1h21.7l11.1-52.8,46.8-81.2h-1.6Zm157.8,59H604.6l9.3-44h31.6l2.8-14h-1.2l0.2-1H594.1l-28.3,134H567l-0.2,1H620l2.7-13h-1.2l0.2-1H591.4l10.1-48h22.9l2.9-13h-1.2Zm211.9,0H816.5l9.4-44h31.5l2.9-14H859l0.3-1H806.1l-28.4,134h1.2l-0.2,1h53.2l2.7-13h-1.2l0.2-1H803.3l10.1-48h23l2.8-13H838Z" transform="translate(0 0.35)"/>
  <path class="cls-3" d="M214.2,225.95a30.36,30.36,0,0,0-4.3-3.6c16.4-8.8,25.9-24.6,25.9-44.3,0-8-2.3-14.2-7.1-18.7-6-6.4-16.6-9.7-31.8-9.7H169.4l-31.1,147h1.2l-0.2,1H163l14.3-68h7.9a13.77,13.77,0,0,1,9.2,3.1c2,2.3,3.1,5.8,3.1,10.2a45.77,45.77,0,0,1-1.1,9.1l-9.4,44.6h1.2l-0.2,1h23.8l9.1-43.3a63.39,63.39,0,0,0,.7-8.4c0-8.9-2.6-15.5-7.4-20h0Zm-2.7-45.1c0,22.4-13,33.8-24.1,33.8h-6.7l10.3-49h7.9c3.9,0,6.9,1,9.1,3,2.3,2.7,3.5,6.8,3.5,12.2h0Zm102.6-17.2,0.2-1H292.6l-20.2,95.6c-3.7,17.2-9.2,25.8-16.7,25.8a7.64,7.64,0,0,1-4.8-1.5c-1.6-1.9-2.3-4.9-2.3-8.8a48.37,48.37,0,0,1,1.3-11l21-99.1h-1.2l0.2-1H248.2l-20.9,98.6a57.24,57.24,0,0,0-1.4,12.3c0,7.6,2.1,13.3,6.1,17.3,4.4,5,11.7,7.5,21.8,7.5,21.3,0,35.7-13.1,41.2-39l20.3-95.7h-1.2Zm64.4,21.3q0-9.15-5.7-14.4c-4.8-5.3-13.5-7.9-25.9-7.9H323.7l-28.3,134h1.2l-0.2,1h29c25.8,0,48.2-17.1,48.2-51.2,0-10.3-2.6-17.8-7.7-22.6a18.75,18.75,0,0,0-4.7-3.7A45.61,45.61,0,0,0,378.5,185h0ZM357,187a36.1,36.1,0,0,1-.5,5.3l-0.2.6c-3,13.9-8.3,20.7-15.9,20.7h-4.7l7.7-36h2.9c3.7,0,6.5.6,8.4,2.3A10.44,10.44,0,0,1,357,187Zm-24.2,40.6H340a10.77,10.77,0,0,1,7.4,2.6c2.5,2.9,3.7,7.8,3.7,14.2,0,26-13.7,39.3-24.2,39.3h-6l11.9-56.1h0Zm249.6-64,0.2-1H560.9l-12.4,59H527l12.2-58H538l0.2-1H516.5l-28.3,134h1.2l-0.2,1h21.6l13.1-62h21.5l-12.8,61h1.2l-0.2,1h21.6l28.4-134h-1.2Zm113,68.4a19.54,19.54,0,0,0-3.8-3.2c14.9-8,23.5-22.4,23.5-40.2,0-7.3-2.1-13-6.5-17.1-5.5-5.9-15.1-8.9-29-8.9h-25l-28.3,134h1.2l-0.2,1H649l13.1-62h7.2a13.06,13.06,0,0,1,8.3,2.6c1.8,2.1,2.8,5.2,2.8,9.3a38.2,38.2,0,0,1-1,8.4l-8.6,40.7H672l-0.2,1h21.7l8.3-39.6a72.08,72.08,0,0,0,.6-7.7c-0.2-8.1-2.5-14.2-7-18.3h0Zm-2.5-41.1c0,20.4-11.8,30.7-22,30.7h-6l9.3-44h7.2c3.5,0,6.3.7,8.3,2.5C691.9,182.55,692.9,186,692.9,190.95Zm95.6,8a56.56,56.56,0,0,0,1.4-12.3c0-7.9-2.2-13.8-6.7-17.8-4.4-4.6-11.5-6.9-21.2-6.9-22,0-35.8,13.1-41.2,39l-12.7,60.3a57.24,57.24,0,0,0-1.4,12.3c0,7.6,2.1,13.3,6.1,17.3,4.4,5,11.7,7.5,21.8,7.5,21.3,0,35.7-13.1,41.2-39L788.5,199h0Zm-59.2,74.8a48.38,48.38,0,0,1,1.3-11l12.9-60.8c3.7-17,9.1-25.5,16.6-25.5a8,8,0,0,1,5,1.5c1.5,1.9,2.3,4.8,2.3,8.8a71.4,71.4,0,0,1-1.3,10.7l-12.9,60.8c-3.7,17.2-9.2,25.8-16.7,25.8a7.64,7.64,0,0,1-4.8-1.5C730.1,280.65,729.3,277.65,729.3,273.75ZM918,198.15a67.22,67.22,0,0,0,.6-9.7c0-9.6-2.4-16.6-7.1-20.8-3.6-3.8-8.9-5.9-15.7-5.9H894c-22.3,0-37.6,21.2-37.6,41.5a33.49,33.49,0,0,0,4.3,16.9l24.8,44.1-0.3-.3a20.1,20.1,0,0,1,1,5.6c0,8.3-8.3,14.5-19.3,14.5-3.9,0-7-1-9.4-3.1-2.7-3.1-4.1-8-4.1-14.7,0-1.8.2-3.5,0.3-5.4l-1.1.2,0.1-1.2-12.9,2.2a55.76,55.76,0,0,0-.6,8.8q0,14.1,6.9,20.7c4,4.5,10.1,6.8,18.3,6.8,20.9,0,36.6-15.6,40.4-33l0.2-.6a35.49,35.49,0,0,0,.8-7.3,36.51,36.51,0,0,0-4.9-18.1l-24.8-44.1,0.3,0.3a20.69,20.69,0,0,1-1.1-5.4c0-8,8.4-13.9,18-13.9a10.45,10.45,0,0,1,7.3,2.5c2.6,3,3.8,7.9,3.8,14.7,0,1.8-.2,3.8-0.3,6.1l1.1-.2-0.1,1.2,12.9-2.4h0Zm-451.5-35.5H453.1L420,220.75l-5.8-57.1h-0.9l-0.1-1H387.1l10.3,84.2-10.5,49.8h1.2l-0.2,1h21.7l11.1-52.8,46.8-81.2h-1.6Zm157.8,59H602.6l9.3-44h31.6l2.8-14h-1.2l0.2-1H592.1l-28.3,134H565l-0.2,1H618l2.7-13h-1.2l0.2-1H589.4l10.1-48h22.9l2.9-13h-1.2Zm211.9,0H814.5l9.4-44h31.5l2.9-14H857l0.3-1H804.1l-28.4,134h1.2l-0.2,1h53.2l2.7-13h-1.2l0.2-1H801.3l10.1-48h23l2.8-13H836Z" transform="translate(0 0.35)"/>
  <path class="cls-4" d="M5,224.65H59v50L4.7,292.95Z" transform="translate(0 0.35)"/>
  <path class="cls-5" d="M75.7,240.85a4.87,4.87,0,0,0-1.1-.4,3.93,3.93,0,0,1,4-2.4c3,0,4.8,1.7,4.8,4.3v0.4a4.74,4.74,0,0,1-2.9,3.9,6,6,0,0,1,3.5,5.3v0.2c-0.2,3.3-2.2,5.4-6,5.4-2.6,0-4.9-1.4-5.2-4.4l1.2-.2a4.07,4.07,0,0,0,4.1,3.6c2.3,0,3.3-2.1,3.3-4.5v-0.1c0-2.2-.8-4.4-2.1-4.8a2.53,2.53,0,0,1-2,.9,1.28,1.28,0,0,1-1.4-1.3,1.23,1.23,0,0,1,1.4-1.3,2.85,2.85,0,0,1,2,.8,3.66,3.66,0,0,0,1.8-3.6v-0.2c0-1.7-.6-3.3-2.7-3.3a2.73,2.73,0,0,0-2.7,1.7h0Zm1.7,5.2a0.53,0.53,0,0,0-.6.6,0.76,0.76,0,0,0,.8.6,1.73,1.73,0,0,0,1.2-.6A3,3,0,0,0,77.4,246Zm7.4-7.9H94.9v0.7l-5.6,18.5H86.1l5.7-18.1H84.9Zm15.3,2.5v2.3a3.24,3.24,0,0,1,2.7,1.6l-1.1.6a1.89,1.89,0,0,0-1.8-1.1q-1.8,0-1.8,3v2.9c0,1.8.6,2.7,1.9,2.7a1.71,1.71,0,0,0,1.7-1.2,6.9,6.9,0,0,0,1,.4,2.85,2.85,0,0,1-2.6,1.8v2.1H99v-2.1c-2.1-.2-3.2-1.4-3.2-3.7v-2.8c0-2.5,1.1-3.9,3.1-4.1v-2.4h1.2Z" transform="translate(0 0.35)"/>
  <path class="cls-6" d="M0,214.65l53.7-11.8L42.6,191l15.5-44.1-33.5-34.8L0,163.15v51.5Zm102.8-55.3-10.5-42.2-34.2,29.8ZM120,66.85L83.8,81.15l8.8,36L120,96V66.85Zm-80.5,3.1,35.4-31.7,8.9,42.9Z" transform="translate(0 0.35)"/>
  <path class="cls-3" d="M48,81.65H76l16.9,15.6-31.1,32.3L31.4,97.85Z" transform="translate(0 0.35)"/>
  <path class="cls-7" d="M15.9,44.65l7.4-45H0v26Zm8.7,67.7L39.5,70,15.9,44.75,0,48.85v56.8Zm50.3-74.1L64.9-.35H120l-0.4,36.1Z" transform="translate(0 0.35)"/>
  <path class="cls-8" d="M283.2,205l0.1-.4-0.8.3-11.1,52.3c-3.7,17.2-9.2,25.8-16.7,25.8-5.4,0-8.1-4-8.1-11.3a48.37,48.37,0,0,1,1.3-11l10-47.2-22.5,7.6,0.1-.4-0.8.3-8.3,39.2a57.24,57.24,0,0,0-1.4,12.3c0,15.9,8.9,23.7,26.9,23.7,21.3,0,35.7-13.1,41.2-39l12.7-59.8L283.2,205h0Zm-63.6,6.7a47,47,0,0,1-11.1,7.8,1.47,1.47,0,0,0,.4.2,54.3,54.3,0,0,0,10.7-8h0Zm156.9-28.8a22.74,22.74,0,0,0-1.6-8.6l-18.6,6.3-0.1-.3-0.9.3c-1.4-4.1-5-6-10.9-6h-1.9l-0.1.6h2c7.8,0,11.6,3.7,11.6,10.8a36.1,36.1,0,0,1-.5,5.3l-0.2.6c-3,13.9-8.3,20.7-15.9,20.7h-5.9l5.6-26.3-22.4,7.4,0.1-.4-0.8.3-21.6,101.8h29c25.8,0,48.2-17,48.2-51.1,0-13.2-4.3-21.8-12.7-26,9.5-6.9,17.6-20.5,17.6-35.4h0Zm-50.6,99.3h-7.2l12.1-56.4H338c8.1,0,12.1,5.9,12.1,17.4,0,26-13.7,39-24.2,39h0ZM189.8,163.65h7.1c9,0,13.5,5.3,13.6,15.7v-0.6c0-10.7-4.5-16.2-13.6-16.2H190l-0.2,1.1h0Zm6.6,70.5-0.1-.3-0.9.3c-1.8-4.8-5.9-7.5-12.2-7.5h-6.9L176,228h7.2c8.8,0,13.3,4.7,13.3,14a45,45,0,0,1-1,9.1l-9.4,44.6h23.8l9.1-43.4c0.3-3,.7-5.8.7-8.4q0-9.9-4.2-16.2l-19.1,6.4h0Zm-48.9,16.6,0.1-.3-0.9.2-9.5,45.1H161l11.3-53.5Zm270.7-29.6-6-59.4h-0.5l-23.5,7.9-0.1-.3-0.9.3-1-7.9h-0.1l10.3,84.1-10.5,49.6h21.7l11.1-52.7,46.8-81H452.1Zm369.7-36.5c0-15.8-8.9-23.7-26.9-23.7-22,0-35.8,13.1-41.2,39l-12.7,60.3a57.24,57.24,0,0,0-1.4,12.3c0,15.9,8.9,23.7,26.9,23.7,21.3,0,35.7-13.1,41.2-39l12.7-60.3A56.56,56.56,0,0,0,787.9,184.65ZM765,196.45l-12.9,60.8c-3.7,17.2-9.2,25.8-16.7,25.8-5.4,0-8.1-4-8.1-11.3a48.38,48.38,0,0,1,1.3-11l12.9-60.8c3.7-17,9.1-25.5,16.6-25.5,5.6,0,8.3,3.8,8.3,11.3a87.75,87.75,0,0,1-1.4,10.7h0Zm-205.1-34.7-12.4,58.6H524.7l12.5-58.6H515.5l-28.3,133.7h21.6l13.1-61.6h22.8l-13.1,61.6h21.6l28.4-133.7H559.9ZM916,196.15a67.22,67.22,0,0,0,.6-9.7c0-16.9-7.3-25.5-21.8-25.5H893c-22.3,0-37.6,21-37.6,41.4a33.75,33.75,0,0,0,4.3,16.9l24.8,44.1-0.3-.3a20.1,20.1,0,0,1,1,5.6c0,8.3-8.3,14.5-19.3,14.5-9.7,0-14.5-6.2-14.5-18.8,0-1.8.2-3.5,0.3-5.4l-12.9,2.2a55.76,55.76,0,0,0-.6,8.8c0,17.7,8.1,26.4,24.2,26.4,20.9,0,36.6-15.6,40.4-33l0.2-.6a35.49,35.49,0,0,0,.8-7.3,36.78,36.78,0,0,0-4.9-18.1l-24.8-44.1,0.3,0.3a20.69,20.69,0,0,1-1.1-5.4c0-8,8.4-13.9,18-13.9,8.1,0,12.1,6.1,12.1,18.2,0,1.8-.2,3.8-0.3,6.1l12.9-2.4h0Zm-94.1-20.9h31.5l2.9-13.5H803.1l-28.4,133.7h53.2l2.7-13.2H799.1l10.3-48.4h23l2.8-13.5H812.3ZM689.2,227c15.1-8,23.9-22.5,23.9-40.4,0-16.6-11.1-24.8-34.6-24.8h-25l-28.3,133.7h21.7l13.1-61.6h7.2c8,0,12.1,4.3,12.1,12.7a37.36,37.36,0,0,1-1,8.3l-8.6,40.6h21.7l8.3-39.5a72.33,72.33,0,0,0,.6-7.6C700.2,238,696.4,230.95,689.2,227Zm-19.2-6.4h-7.2l9.6-45.4h7.2c8.3,0,12.4,4.9,12.4,14.6C691.9,210.25,680.2,220.65,670,220.65Zm-60.1-45.4h31.6l2.8-13.5H591.1l-28.3,133.7H616l2.7-13.2H587.2l10.3-48.4h22.9l2.9-13.5H600.4Z" transform="translate(0 0.35)"/>
  <path class="cls-9" d="M412.2,161.65H386.1l1.1,9,25-8.4v-0.6Zm-66.3,0H322.7l-7,33.1,23.3-7.6,2.5-11.5h2.9c5.9,0,9.5,1.9,10.9,6l19.8-6.8C371.7,166.15,362,161.65,345.9,161.65Zm-32.6,0H291.6L282.2,206l23.4-7.9Zm-44.4,0H247.2l-12.8,60.5,23.3-7.9Zm-61.4,58.9c16.6-8.8,26.2-24.7,26.2-44.5,0-18.2-12.2-27.4-38-27.4H168.2l-21.8,103.1,25.6-8.8,3.2-15.3h7.9c6.3,0,10.4,2.7,12.2,7.5l20.4-6.8a20.59,20.59,0,0,0-8.2-7.8h0Zm-21.1-6.9h-7.9l10.5-50h7.9c9.1,0,13.6,5.5,13.6,16.2C210.5,202.25,197.6,213.65,186.4,213.65Z" transform="translate(0 0.35)"/>
  <g>
    <path class="cls-3" d="M35.46,268.56l7.64-11,0,0a5.39,5.39,0,0,1-1.53.42,12.07,12.07,0,0,1-1.66.13,9.31,9.31,0,0,1-3.7-.74,9.67,9.67,0,0,1-3-2,9.19,9.19,0,0,1-2-3,9.56,9.56,0,0,1-.73-3.76,10.62,10.62,0,0,1,.84-4.28,9.89,9.89,0,0,1,2.29-3.3,10,10,0,0,1,3.44-2.1,12.25,12.25,0,0,1,4.26-.73,11.76,11.76,0,0,1,4.3.78A10.61,10.61,0,0,1,49,241a9.88,9.88,0,0,1,3.11,7.26,12.77,12.77,0,0,1-.21,2.37,12.12,12.12,0,0,1-.61,2.14,18.25,18.25,0,0,1-1,2.08q-0.57,1.05-1.28,2.18l-7.43,11.51H35.46ZM47,248.15a6.22,6.22,0,0,0-.4-2.23,5.74,5.74,0,0,0-1.15-1.87,5.64,5.64,0,0,0-1.81-1.3,5.57,5.57,0,0,0-2.35-.48,5.44,5.44,0,0,0-4.14,1.66,6,6,0,0,0-1.57,4.3,6.62,6.62,0,0,0,.4,2.33,5,5,0,0,0,1.15,1.83,5.63,5.63,0,0,0,1.78,1.2,5.75,5.75,0,0,0,2.29.44,6.32,6.32,0,0,0,2.33-.42,5.23,5.23,0,0,0,3-3.07A6.62,6.62,0,0,0,47,248.15Z" transform="translate(0 0.35)"/>
    <path class="cls-3" d="M15.38,262.82H12.83v-2.38h2.87L16.2,257H13.65V254.6h2.87l0.85-5.93h2.5L19,254.6h2.92l0.85-5.93h2.47L24.4,254.6H27V257H24.06l-0.48,3.46h2.55v2.38H23.3l-0.88,5.93H19.95l0.85-5.93h-3L17,268.75H14.53ZM18.67,257l-0.48,3.46h2.92L21.6,257H18.67Z" transform="translate(0 0.35)"/>
  </g>
</svg>
