<?xml version="1.0" encoding="utf-8"?>
<!-- Generator: Adobe Illustrator 19.2.1, SVG Export Plug-In . SVG Version: 6.00 Build 0)  -->
<svg version="1.1" id="Layer_1" xmlns="http://www.w3.org/2000/svg" xmlns:xlink="http://www.w3.org/1999/xlink" x="0px" y="0px"
	 viewBox="0 0 920 396.9" enable-background="new 0 0 920 396.9" xml:space="preserve">
<path fill="#DC4A17" d="M0-0.4h120v259l-120,41V-0.4z"/>
<path fill="#B03911" d="M5,224.6h54v50L4.7,293L5,224.6z"/>
<g id="Black_AWARDS">
	<path d="M444.6,348.4h-11.8l-2.4,9.3h-9l12.2-39.1h10.6l12.2,39.1H447L444.6,348.4z M442.8,341.5l-0.9-3.6c-0.5-2-1-4-1.6-6.2
		c-0.5-2.2-1-4.3-1.6-6.4h-0.2c-0.5,2.1-1,4.2-1.5,6.4c-0.5,2.2-1,4.3-1.6,6.2l-0.9,3.6H442.8z"/>
	<path d="M457.1,318.5h9l1.3,20.8c0,1.7,0.1,3.3,0.1,5c0,1.6,0.1,3.3,0.1,5h0.2c0.3-1.7,0.7-3.3,1.1-5c0.4-1.6,0.7-3.3,1.1-5
		l2.7-10.9h5.3l2.6,10.9c0.3,1.6,0.7,3.2,1,4.9c0.4,1.7,0.7,3.4,1,5h0.2c0.1-1.7,0.1-3.4,0.2-5c0-1.7,0.1-3.3,0.2-5l1.1-20.8h8.4
		l-4.9,39.1h-9.2l-2.5-12.3c-0.2-1.2-0.5-2.5-0.7-3.8c-0.2-1.3-0.3-2.5-0.4-3.7h-0.2c-0.1,1.2-0.3,2.4-0.5,3.7
		c-0.2,1.3-0.4,2.6-0.6,3.8l-2.3,12.3h-9.1L457.1,318.5z"/>
	<path d="M516.7,348.4h-11.8l-2.4,9.3h-9l12.2-39.1h10.6l12.2,39.1H519L516.7,348.4z M514.9,341.5l-0.9-3.6c-0.5-2-1-4-1.6-6.2
		c-0.5-2.2-1-4.3-1.6-6.4h-0.2c-0.5,2.1-1,4.2-1.5,6.4c-0.5,2.2-1,4.3-1.6,6.2l-0.9,3.6H514.9z"/>
	<path d="M554.1,357.7l-7.5-14.1H542v14.1h-8.8v-39.1H547c2.1,0,4,0.2,5.9,0.6c1.8,0.4,3.4,1.1,4.8,2c1.4,0.9,2.5,2.2,3.3,3.8
		c0.8,1.6,1.2,3.5,1.2,5.8c0,2.9-0.6,5.3-1.9,7.1c-1.3,1.9-3,3.3-5,4.2l8.8,15.7H554.1z M542,336.6h4.3c4.8,0,7.1-1.9,7.1-5.8
		c0-1.9-0.6-3.3-1.8-4c-1.2-0.8-3-1.1-5.3-1.1H542V336.6z"/>
	<path d="M568.9,318.5h10.6c2.8,0,5.4,0.4,7.7,1.1c2.3,0.8,4.3,1.9,5.9,3.5c1.6,1.6,2.9,3.6,3.8,6c0.9,2.4,1.4,5.3,1.4,8.7
		c0,3.4-0.4,6.3-1.4,8.8c-0.9,2.5-2.2,4.5-3.8,6.2c-1.6,1.6-3.6,2.8-5.8,3.6c-2.2,0.8-4.7,1.2-7.4,1.2h-11.1V318.5z M579,350.5
		c1.5,0,2.9-0.2,4.2-0.7c1.3-0.4,2.3-1.2,3.2-2.1c0.9-1,1.6-2.3,2.1-3.9c0.5-1.6,0.8-3.6,0.8-5.9c0-2.3-0.3-4.3-0.8-5.9
		c-0.5-1.6-1.2-2.8-2.1-3.8c-0.9-0.9-2-1.6-3.2-2c-1.3-0.4-2.7-0.6-4.2-0.6h-1.3v24.9H579z"/>
	<path d="M609.1,346.7c1.5,1.2,3.1,2.2,4.8,2.9s3.5,1.1,5.2,1.1c2,0,3.5-0.3,4.5-1c0.9-0.7,1.4-1.6,1.4-2.8c0-0.6-0.1-1.1-0.4-1.6
		c-0.3-0.4-0.7-0.8-1.2-1.2c-0.5-0.3-1.2-0.7-1.9-1c-0.7-0.3-1.6-0.6-2.6-1l-5-2.2c-1.1-0.4-2.1-0.9-3.2-1.6c-1-0.6-1.9-1.4-2.7-2.3
		c-0.8-0.9-1.4-1.9-1.8-3c-0.5-1.1-0.7-2.4-0.7-3.9c0-1.6,0.4-3.1,1.1-4.5c0.7-1.4,1.7-2.7,2.9-3.7c1.3-1.1,2.8-1.9,4.5-2.5
		c1.8-0.6,3.7-0.9,5.8-0.9c2.4,0,4.7,0.4,7,1.3c2.2,0.9,4.3,2.2,6.1,3.8l-4.5,5.6c-1.4-1-2.7-1.8-4-2.3c-1.3-0.5-2.8-0.8-4.5-0.8
		c-1.7,0-3.1,0.3-4,0.9c-0.9,0.6-1.4,1.5-1.4,2.6c0,1.2,0.6,2.1,1.8,2.7c1.2,0.6,2.7,1.2,4.6,1.9l4.7,2c2.6,1,4.7,2.3,6.2,4
		c1.5,1.7,2.3,3.9,2.3,6.7c0,1.6-0.3,3.2-1,4.7c-0.7,1.5-1.7,2.7-2.9,3.8c-1.3,1.1-2.9,2-4.7,2.6c-1.9,0.7-4,1-6.5,1
		c-2.6,0-5.3-0.5-7.8-1.4c-2.6-0.9-4.9-2.4-7.1-4.2L609.1,346.7z"/>
</g>
<g id="_x33_7c">
	<path fill="#141413" d="M75.7,240.8c-0.4-0.2-0.7-0.3-1.1-0.4c0.7-1.6,2-2.4,4-2.4c3,0,4.8,1.7,4.8,4.3v0.4
		c-0.1,1.9-1.7,3.5-2.9,3.9c2.1,0.9,3.5,3.2,3.5,5.3v0.2c-0.2,3.3-2.2,5.4-6,5.4c-2.6,0-4.9-1.4-5.2-4.4l1.2-0.2
		c0.4,2.4,2.2,3.6,4.1,3.6c2.3,0,3.3-2.1,3.3-4.5v-0.1c0-2.2-0.8-4.4-2.1-4.8c-0.3,0.5-1.2,0.9-2,0.9c-0.7,0-1.4-0.4-1.4-1.3
		c0-1,0.7-1.3,1.4-1.3c0.8,0,1.7,0.4,2,0.8c1-0.6,1.8-1.5,1.8-3.6v-0.2c0-1.7-0.6-3.3-2.7-3.3C77.3,239,76.3,239.6,75.7,240.8
		L75.7,240.8z M77.4,246c-0.4,0-0.6,0.2-0.6,0.6c0.1,0.4,0.4,0.6,0.8,0.6s0.8-0.2,1.2-0.6C78.2,246.2,77.7,246,77.4,246z
		 M84.8,238.1h10.1v0.7l-5.6,18.5h-3.2l5.7-18.1h-6.9L84.8,238.1z M100.1,240.6v2.3c1.2,0.1,2.1,0.6,2.7,1.6l-1.1,0.6
		c-0.4-0.7-0.9-1.1-1.8-1.1c-1.2,0-1.8,1-1.8,3v2.9c0,1.8,0.6,2.7,1.9,2.7c0.8,0,1.4-0.4,1.7-1.2c0.4,0.2,0.7,0.3,1,0.4
		c-0.5,1.1-1.3,1.7-2.6,1.8v2.1H99v-2.1c-2.1-0.2-3.2-1.4-3.2-3.7v-2.8c0-2.5,1.1-3.9,3.1-4.1v-2.4H100.1L100.1,240.6z"/>
</g>
<path id="Pink_Facets" fill="#E96736" d="M0,214.6l53.7-11.8L42.6,191l15.5-44.1l-33.5-34.8L0,163.1V214.6z M102.8,159.3l-10.5-42.2
	l-34.2,29.8L102.8,159.3z M120,66.8L83.8,81.1l8.8,36L120,96L120,66.8z M39.5,69.9l35.4-31.7l8.9,42.9L39.5,69.9z"/>
<path id="White_Ruby" fill="#FFFFFF" d="M48,81.6h28l16.9,15.6l-31.1,32.3L31.4,97.8L48,81.6z"/>
<path id="Red_Facets" fill="#C64013" d="M15.9,44.6l7.4-45H0v26L15.9,44.6z M24.6,112.3L39.5,70L15.9,44.8L0,48.8v56.8L24.6,112.3z
	 M74.9,38.2l-10-38.6H120l-0.4,36.1L74.9,38.2z"/>
<g id="RUBY_HEROES">
	<g>
		<linearGradient id="SVGID_1_" gradientUnits="userSpaceOnUse" x1="758.8289" y1="172.1252" x2="810.6332" y2="172.1252">
			<stop  offset="0" style="stop-color:#111111"/>
			<stop  offset="0.9678" style="stop-color:#303030"/>
		</linearGradient>
		<path fill="url(#SVGID_1_)" d="M781.9,116.2c-1.4-6-3.4-12.2-7.1-17c-2.9-3.7-5.8-5.6-8.7-5.8c-2.9-0.2-5,1.5-6.3,4.8
			c-1.3,3.3-1.2,8.6,0.4,15.9c8.3,37.1,16.6,74.2,24.8,111.3c1.3,6.1,3.5,12.2,7.2,17.1c3.2,4.1,6.5,6.7,9.8,7.7
			c3.3,1,5.8,0.1,7.4-2.8c1.6-2.9,1.5-8.1-0.3-15.7C800.1,193.3,791,154.8,781.9,116.2z"/>
		<linearGradient id="SVGID_2_" gradientUnits="userSpaceOnUse" x1="690.7924" y1="120.2906" x2="720.5212" y2="120.2906">
			<stop  offset="0" style="stop-color:#111111"/>
			<stop  offset="0.9678" style="stop-color:#303030"/>
		</linearGradient>
		<path fill="url(#SVGID_2_)" d="M718.2,121.5c-1-5-1.9-9.3-3-13.1c-1-3.8-2.3-7-3.8-9.8c-1.5-2.7-3.2-4.7-5.2-6.1
			c-2-1.4-4.4-2.1-7.3-2.2c-3.3-0.1-4.9-0.2-8.1-0.3c3.4,19.8,6.9,39.6,10.3,59.4c3.8,0.4,5.7,0.7,9.5,1.1c3,0.4,5.2,0,6.7-1.2
			c1.5-1.2,2.5-3,2.9-5.4c0.4-2.5,0.4-5.6,0-9.3C719.8,130.8,719.2,126.5,718.2,121.5z"/>
		<linearGradient id="SVGID_3_" gradientUnits="userSpaceOnUse" x1="686.0578" y1="323.9212" x2="686.0578" y2="60.3705">
			<stop  offset="0" style="stop-color:#111111"/>
			<stop  offset="0.9678" style="stop-color:#303030"/>
		</linearGradient>
		<path fill="url(#SVGID_3_)" d="M832.8,241.3c-0.5-2.1-2.1-8.6-4.4-18c-7-28-20.7-81.7-30.2-119.8c-0.1-0.6-0.4-1.2-0.6-2
			c-1-2.7-2.8-6.8-4.7-10.8c-0.9-2-1.9-3.9-2.7-5.5c-0.8-1.7-1.6-3-2.2-4c-2.7-4.6-5-8.2-7.6-11.2c-2.6-3.1-5.6-5.5-9.5-7.6
			c-1.4-0.7-3.2-1.6-5-2l-0.2,0l-0.2,0c0,0-3.2,0-7.2,0c-4,0-8.7,0-11.9,0c-4.1,0-7.7,1.2-10.6,3c-4.4,2.7-7.5,6.5-9.8,9.6
			c-1.1,1.5-2.1,2.9-2.8,3.8c-0.1,0.1-0.1,0.1-0.2,0.2c-1.1-1.7-3.2-4.5-6-7.4c-2.2-2.3-4.8-4.5-7.9-6.3c-3-1.7-6.5-3-10.3-3
			c-0.2,0-0.3,0-0.5,0c-9.9,0.3-12.3,0.2-22.2,0.2c-31.2,0.1-62.4,0.1-93.6,0.2c-0.5,0-0.9,0.1-1.2,0.3c-0.6,0.2-1.1,0.6-1.7,1
			c-1,0.7-2.2,1.7-3.4,2.8c-1.6,1.4-3.3,3-4.6,4.3l-0.2-8.4l-1.8,0c-6.6,0-13.2,0-19.8,0c-0.4,0-0.8,0-1.2,0l-1.4,0L537,101.3v181.6
			l1.8,0c9.5,0.3,18.3,0.7,27.6,1.4l0,0l8.1,0.4c16.7,1.3,34.2,3.2,49.8,5.4l1.6,0.2l2.6-9.5l2.6,10.6l1.2,0.2
			c20.8,3.2,40.8,7,58.9,10.9c0.2,0.1,1.8,0.5,3.4,0.9c0.9,0.2,1.8,0.5,2.5,0.6c0.4,0.1,0.7,0.2,0.9,0.2c0.2,0.1,0.4,0.1,0.5,0.1
			c7.8,1.7,16.3,3.5,23,5.1l2.3,0.6l0-7.1c0.3,0.4,0.6,0.8,0.9,1.3c1.3,1.7,2.9,3.6,4.6,5.2c1.8,1.6,3.7,2.9,5.8,3.6l0,0l0,0
			c7.1,1.8,13.2,3.8,18.5,5.6c5.4,1.7,9.9,3.2,13.9,4.1c4.1,0.8,7.3,1.2,9.9,1.2c3.9,0,6.4-0.7,8-1.5c1.2-0.6,1.9-1.3,2.3-1.7
			l40.5-37l0,0c0.1-0.1,1.7-1.9,3.3-5.7c1.6-3.8,3.1-9.5,3.1-17.7C835.1,255,834.5,248.7,832.8,241.3z M598.3,235.6
			c-1.8-25.4-3.6-50.9-5.4-76.3c-7-0.3-14-0.7-20.9-0.9c1.2,25.2,2.4,50.4,3.7,75.6c-6.1-0.4-12.2-0.7-18.3-0.9
			c-1.7-56.3-3.4-112.6-5.2-168.8c6.1,0,9.1,0,15.2,0c1.2,24.2,2.3,48.5,3.5,72.7c6.8,0.2,13.6,0.5,20.5,0.7
			c-1.7-24.5-3.4-48.9-5.2-73.4c6.1,0,9.1,0,15.2,0c5.1,57.7,10.1,115.5,15.2,173.2C610.5,236.7,604.4,236.1,598.3,235.6z
			 M633.9,239.4c-6-58.4-12.1-116.8-18.1-175.2c15.1,0,30.3,0,45.4,0.1c1.2,8.3,2.5,16.5,3.7,24.8c-10.3-0.3-20.7-0.6-31-0.9
			c2.1,17.4,4.2,34.8,6.3,52.2c9.6,0.7,19.1,1.5,28.7,2.3c1.2,8.2,2.4,16.5,3.6,24.7c-9.8-1.1-19.6-2.1-29.4-3
			c2.1,17.4,4.2,34.8,6.3,52.2c11.9,1.6,23.8,3.4,35.7,5.4c1.3,8.8,2.6,17.6,4,26.4C670.7,244.9,652.4,241.9,633.9,239.4z
			 M747.9,261.6c-10.9-28.8-21.7-57.7-32.3-86.7c-4.1-0.6-6.2-0.9-10.3-1.5c4.7,27.1,9.4,54.2,14.1,81.3c-6.2-1.4-12.3-2.7-18.5-4
			C691,188.6,681,126.4,671.1,64.3c8.2,0,16.3,0,24.5,0.1c26.8,0,35.1,40,38.9,59.2c2,9.6,3.4,19.7,2.9,29.7
			c-0.3,6.7-2.4,13.6-7.4,18.3c12.3,31.9,24.8,63.6,37.5,95.4C761,265.1,754.4,263.3,747.9,261.6z M827.3,274.9
			c-1.9,3.5-4.5,5.7-7.6,6.7c-3.2,1-6.7,0.9-10.5-0.4c-3.8-1.2-7.8-3.6-12-6.9c-4.6-3.6-8.6-7.9-12.1-12.6
			c-4.2-5.5-7.5-11.5-10.5-17.7c-3.4-7.1-5.7-14.9-7.4-22.8c-7.7-36.1-15.4-72.3-23-108.4c-1.5-7.1-2.5-14.5-2.4-21.8
			c0.2-6.3,1-11.5,2.6-15.6c1.6-4.1,3.6-7.3,6.2-9.5c2.6-2.2,5.2-2,8.3-2c3.1,0,6.5-0.2,10.1,2.1c3.6,2.3,7.2,5.7,10.7,10.2
			c4.1,5.4,7.3,11.3,10.2,17.3c3.6,7.6,6,15.9,8.2,24.2c9.7,39.7,19.4,79.4,29.2,119.1c1.7,7.7,3.4,15.4,3.2,23.4
			C830.3,266.5,829.2,271.4,827.3,274.9z"/>
	</g>
	<g>
		<linearGradient id="SVGID_4_" gradientUnits="userSpaceOnUse" x1="397.6374" y1="188.3001" x2="425.0593" y2="188.3001">
			<stop  offset="0" style="stop-color:#111111"/>
			<stop  offset="0.9678" style="stop-color:#303030"/>
		</linearGradient>
		<path fill="url(#SVGID_4_)" d="M420,160.5c-1.8-1-4.2-1.4-7.3-1.1c-3,0.3-4.5,0.4-7.5,0.7c-2.5,19.1-5.1,38.1-7.6,57.2
			c3.1-0.4,4.7-0.7,7.8-1.1c3.6-0.5,6.6-1.6,8.8-3.3c2.2-1.7,4-4,5.4-6.7c1.4-2.7,2.3-5.9,3-9.6c0.6-3.6,1.2-7.6,1.7-11.8
			c0.5-4.4,0.8-8.3,0.8-11.5c0-3.2-0.4-5.9-1.2-8.1C423.1,163,421.8,161.5,420,160.5z"/>
		<linearGradient id="SVGID_5_" gradientUnits="userSpaceOnUse" x1="408.2794" y1="112.821" x2="432.9444" y2="112.821">
			<stop  offset="0" style="stop-color:#111111"/>
			<stop  offset="0.9678" style="stop-color:#303030"/>
		</linearGradient>
		<path fill="url(#SVGID_5_)" d="M421.3,88.1c-2.6,0.1-3.9,0.1-6.5,0.2c-2.2,16.4-4.4,32.8-6.6,49.2c3-0.2,4.5-0.3,7.5-0.5
			c5.5-0.4,9.5-2.7,11.9-7c3-5.6,4.4-12.3,4.9-18.5c0.5-5.9,1.1-12-1-17.6C430,90,426.5,88,421.3,88.1z"/>
		<linearGradient id="SVGID_6_" gradientUnits="userSpaceOnUse" x1="268.6269" y1="127.8776" x2="301.5508" y2="127.8776">
			<stop  offset="0" style="stop-color:#111111"/>
			<stop  offset="0.9678" style="stop-color:#303030"/>
		</linearGradient>
		<path fill="url(#SVGID_6_)" d="M298.7,95.3c-1.4-1.3-3.6-1.9-6.4-1.7c-3.2,0.2-4.9,0.3-8.1,0.5c-5.2,22.7-10.3,45.4-15.5,68.2
			c3.8-0.7,5.6-1,9.4-1.7c2.9-0.5,5.4-1.7,7.5-3.4c2.1-1.8,3.8-4.1,5.4-7c1.5-2.9,2.9-6.4,4.1-10.5c1.2-4.1,2.4-8.8,3.5-14.1
			c1.2-5.3,2-10,2.6-14c0.6-4,0.7-7.4,0.3-10.2C301,98.6,300.1,96.5,298.7,95.3z"/>
		<linearGradient id="SVGID_7_" gradientUnits="userSpaceOnUse" x1="375.1124" y1="326.5436" x2="375.1124" y2="60.8682">
			<stop  offset="0" style="stop-color:#111111"/>
			<stop  offset="0.9678" style="stop-color:#303030"/>
		</linearGradient>
		<path fill="url(#SVGID_7_)" d="M520.3,60.9h-22.5l-2.1,9.8l-7.7-9.8h-32.1l1.2,9.6c-0.8-0.8-1.8-1.6-2.8-2.4
			c-4.6-3.6-11.7-7.2-21.2-7.2l-0.3,0c-2.8,0-4.8,0-6.2,0s-2.3,0-2.8,0c-0.3,0-0.4,0-0.5,0l-0.1,0l0,0l0,0h0h-23.4l-1.6,9.3
			l-4.7-9.3h-23.2l-1.5,7.2l-5.4-7.2h-28.3l-1.8,9.3c-1.4-1-3.3-2.3-5.6-3.6c-4.8-2.7-11.2-5.5-18-5.6c-5.7-0.1-13.5-0.1-20.5-0.1
			c-8.6,0-15.8,0-15.8,0l-1.4,0l-52.8,230.3l39.3,35.3l1-0.3c0,0,0.4-0.1,1.3-0.4c6.2-1.9,33.3-10.2,71.9-19l1.8-0.4l-1.3-5.8
			c2.7,1.5,6.7,2.8,12.4,2.8h0.2l0.2,0c6.5-1.5,14.3-2.9,20.9-4.2c3.3-0.6,6.4-1.2,8.8-1.6c2.5-0.5,4.3-0.8,5.4-1.1
			c2.1-0.5,3.9-1.4,5.5-2.5c1.7-1.2,3.2-2.6,4.3-3.9l0.4,5l1.9-0.3c17.8-3,36.5-5.8,55.8-7.8c2.6-0.3,4.9-1.2,6.7-2.5
			c2.4-1.6,4.1-3.6,5.4-5.4c0,0.3,0,0.6,0,0.9c0.1,1.7,0.1,3.2,0.1,3.5v0l0,2l2-0.2c16-1.4,34-2.3,50.1-2.6l1.8,0l1.9-122l14-59.2
			L520.3,60.9z M289.3,178.2c-0.7,29.8-1.1,59.5-0.9,89.3c-6.5,2-12.9,4-19.3,6.1c0.8-28.7,2-57.3,3.5-85.9
			c-4.1,0.9-6.1,1.3-10.1,2.2c-7.1,31.1-14.1,62.2-21.2,93.4c-6.1,2.2-12.1,4.5-18.2,6.9c17.5-75.2,35.1-150.3,52.6-225.5
			c8.2,0,16.3-0.1,24.5-0.1c27.2-0.7,17.3,45.8,14.4,59.9c-2.2,10.5-5.2,21-9.5,31C301.2,163.9,295.9,171.7,289.3,178.2z
			 M365.2,207.9c-1,6-2.6,11.8-5,17.3c-2.3,5.3-5.1,10.4-8.6,15c-3.3,4.5-7,8.3-11,11.5c-4,3.1-8.1,5.2-12.1,6.3
			c-4.1,1-7.7,0.8-10.8-0.6c-3.1-1.4-5.6-3.9-7.5-7.3c-1.9-3.5-3-7.8-3.4-13c-0.4-5.9,0.2-11.9,1.4-17.7
			c10.4-51.7,20.7-103.3,31.1-155c6.1,0,9.1,0,15.2,0c-9.4,49.5-18.8,98.9-28.2,148.4c-1.3,6.9-1.2,11.8,0.2,14.6
			c1.5,2.8,3.8,3.8,7,3.1c3.2-0.7,6.1-2.9,8.8-6.5c2.7-3.6,4.6-8.8,5.8-15.5c8.4-48,16.8-96.1,25.3-144.1c6.1,0,9.1,0,15.2,0
			C380.7,112.2,372.9,160,365.2,207.9z M447.9,107.9c-0.2,2.5-0.4,3.8-0.6,6.3c-0.4,4.7-1.1,8.7-1.9,11.9c-0.8,3.3-1.8,6.1-3,8.6
			c-1.2,2.5-2.6,4.7-4.2,6.7c-1.6,2-3.4,3.8-5.5,5.6c3.7,2.5,6.2,6.5,7.5,11.7c1.7,6.9,1.5,14.4,0.8,21.6c-0.4,3.9-0.6,5.8-0.9,9.7
			c-1.2,12.5-4.1,25.5-11.5,35.9c-6.5,9.1-16.8,14.2-27.7,15.9c-8.4,1.3-16.8,2.8-25.2,4.3c9-60.6,18-121.2,27-181.9
			c7.4,0,14.8,0,22.3,0c4.9,0,8.9,1.2,12.1,3.7c3.2,2.4,5.7,5.7,7.5,9.7c1.8,4,3,8.7,3.4,13.9C448.5,96.8,448.5,102.3,447.9,107.9z
			 M491.9,161.7c-1,23.8-1.9,47.6-2.9,71.4c-6.2,0.3-12.4,0.6-18.6,1c1.4-24,2.9-47.9,4.3-71.9c-5.9-32.6-10.8-65.3-15-98.1
			c6.5,0,9.7,0,16.1,0c2.6,22.5,5.6,44.9,8.8,67.3c0.1,0,0.2,0,0.3,0c5.5-22.4,10.7-44.8,15.6-67.3c6.5,0,9.7,0,16.1,0
			C509.3,96.9,500.9,129.4,491.9,161.7z"/>
	</g>
	<g>
		<path fill="#FFFFFF" d="M275.6,64.6c8.2,0,16.3-0.1,24.5-0.1c27.2-0.7,17.3,45.8,14.4,59.9c-2.2,10.5-5.2,21-9.5,31
			c-3.7,8.5-9,16.3-15.7,22.8c-0.7,29.8-1.1,59.5-0.9,89.3c-6.5,2-12.9,4-19.3,6.1c0.8-28.7,2-57.3,3.5-85.9
			c-4.1,0.9-6.1,1.3-10.1,2.2c-7.1,31.1-14.1,62.2-21.2,93.4c-6.1,2.2-12.1,4.5-18.2,6.9C240.5,214.9,258,139.8,275.6,64.6z
			 M268.6,162.2c3.8-0.7,5.6-1,9.4-1.7c2.9-0.5,5.4-1.7,7.5-3.4c2.1-1.8,3.8-4.1,5.4-7c1.5-2.9,2.9-6.4,4.1-10.5
			c1.2-4.1,2.4-8.8,3.5-14.1c1.2-5.3,2-10,2.6-14c0.6-4,0.7-7.4,0.3-10.2c-0.4-2.8-1.2-4.8-2.7-6.1c-1.4-1.3-3.6-1.9-6.4-1.7
			c-3.2,0.2-4.9,0.3-8.1,0.5C278.9,116.8,273.8,139.5,268.6,162.2z"/>
		<path fill="#FFFFFF" d="M365.2,207.9c-1,6-2.6,11.8-5,17.3c-2.3,5.3-5.1,10.4-8.6,15c-3.3,4.5-7,8.3-11,11.5
			c-4,3.1-8.1,5.2-12.1,6.3c-4.1,1-7.7,0.8-10.8-0.6c-3.1-1.4-5.6-3.9-7.5-7.3c-1.9-3.5-3-7.8-3.4-13c-0.4-5.9,0.2-11.9,1.4-17.7
			c10.4-51.7,20.7-103.3,31.1-155c6.1,0,9.1,0,15.2,0c-9.4,49.5-18.8,98.9-28.2,148.4c-1.3,6.9-1.2,11.8,0.2,14.6
			c1.5,2.8,3.8,3.8,7,3.1c3.2-0.7,6.1-2.9,8.8-6.5c2.7-3.6,4.6-8.8,5.8-15.5c8.4-48,16.8-96.1,25.3-144.1c6.1,0,9.1,0,15.2,0
			C380.7,112.2,372.9,160,365.2,207.9z"/>
		<path fill="#FFFFFF" d="M402.8,64.3c7.4,0,14.8,0,22.3,0c4.9,0,8.9,1.2,12.1,3.7s5.7,5.7,7.5,9.7c1.8,4,3,8.7,3.4,13.9
			c0.5,5.3,0.4,10.7-0.1,16.4c-0.2,2.5-0.4,3.8-0.6,6.3c-0.4,4.7-1.1,8.7-1.9,11.9c-0.8,3.3-1.8,6.1-3,8.6c-1.2,2.5-2.6,4.7-4.2,6.7
			c-1.6,2-3.4,3.8-5.5,5.6c3.7,2.5,6.2,6.5,7.5,11.7c1.7,6.9,1.5,14.4,0.8,21.6c-0.4,3.9-0.6,5.8-0.9,9.7
			c-1.2,12.5-4.1,25.5-11.5,35.9c-6.5,9.1-16.8,14.2-27.7,15.9c-8.4,1.3-16.8,2.8-25.2,4.3C384.8,185.5,393.8,124.9,402.8,64.3z
			 M408.3,137.5c3-0.2,4.5-0.3,7.5-0.5c5.5-0.4,9.5-2.7,11.9-7c3-5.6,4.4-12.3,4.9-18.5c0.5-5.9,1.1-12-1-17.6
			c-1.4-3.8-4.9-5.8-10.2-5.7c-2.6,0.1-3.9,0.1-6.5,0.2C412.7,104.7,410.5,121.1,408.3,137.5z M397.6,217.3c3.1-0.4,4.7-0.7,7.8-1.1
			c3.6-0.5,6.6-1.6,8.8-3.3c2.2-1.7,4-4,5.4-6.7c1.4-2.7,2.3-5.9,3-9.6c0.6-3.6,1.2-7.6,1.7-11.8c0.5-4.4,0.8-8.3,0.8-11.5
			c0-3.2-0.4-5.9-1.2-8.1c-0.8-2.1-2.1-3.7-3.8-4.7c-1.8-1-4.2-1.4-7.3-1.1c-3,0.3-4.5,0.4-7.5,0.7
			C402.7,179.2,400.2,198.2,397.6,217.3z"/>
		<path fill="#FFFFFF" d="M474.7,162.3c-5.9-32.6-10.8-65.3-15-98.1c6.5,0,9.7,0,16.1,0c2.6,22.5,5.6,44.9,8.8,67.3
			c0.1,0,0.2,0,0.3,0c5.5-22.4,10.7-44.8,15.6-67.3c6.5,0,9.7,0,16.1,0c-7.5,32.7-15.9,65.2-24.9,97.5c-1,23.8-1.9,47.6-2.9,71.4
			c-6.2,0.3-12.4,0.6-18.6,1C471.8,210.2,473.3,186.2,474.7,162.3z"/>
		<path fill="#FFFFFF" d="M552.2,64.1c6.1,0,9.1,0,15.2,0c1.2,24.2,2.3,48.5,3.5,72.7c6.8,0.2,13.6,0.5,20.5,0.7
			c-1.7-24.5-3.4-48.9-5.2-73.4c6.1,0,9.1,0,15.2,0c5.1,57.7,10.1,115.5,15.2,173.2c-6.1-0.7-12.2-1.3-18.4-1.8
			c-1.8-25.4-3.6-50.9-5.4-76.3c-7-0.3-14-0.7-20.9-0.9c1.2,25.2,2.4,50.4,3.7,75.6c-6.1-0.4-12.2-0.7-18.3-0.9
			C555.6,176.7,553.9,120.4,552.2,64.1z"/>
		<path fill="#FFFFFF" d="M615.8,64.2c15.1,0,30.3,0,45.4,0.1c1.2,8.3,2.5,16.5,3.7,24.8c-10.3-0.3-20.7-0.6-31-0.9
			c2.1,17.4,4.2,34.8,6.3,52.2c9.6,0.7,19.1,1.5,28.7,2.3c1.2,8.2,2.4,16.5,3.6,24.7c-9.8-1.1-19.6-2.1-29.4-3
			c2.1,17.4,4.2,34.8,6.3,52.2c11.9,1.6,23.8,3.4,35.7,5.4c1.3,8.8,2.6,17.6,4,26.4c-18.3-3.4-36.6-6.4-55-8.9
			C627.9,181,621.9,122.6,615.8,64.2z"/>
		<path fill="#FFFFFF" d="M671.1,64.3c8.2,0,16.3,0,24.5,0.1c26.8,0,35.1,40,38.9,59.2c2,9.6,3.4,19.7,2.9,29.7
			c-0.3,6.7-2.4,13.6-7.4,18.3c12.3,31.9,24.8,63.6,37.5,95.4c-6.6-1.8-13.1-3.6-19.7-5.3c-10.9-28.8-21.7-57.7-32.3-86.7
			c-4.1-0.6-6.2-0.9-10.3-1.5c4.7,27.1,9.4,54.2,14.1,81.3c-6.2-1.4-12.3-2.7-18.5-4C691,188.6,681,126.4,671.1,64.3z M701.1,149.4
			c3.8,0.4,5.7,0.7,9.5,1.1c3,0.4,5.2,0,6.7-1.2c1.5-1.2,2.5-3,2.9-5.4c0.4-2.5,0.4-5.6,0-9.3c-0.4-3.7-1.1-8.1-2-13.1
			c-1-5-1.9-9.3-3-13.1c-1-3.8-2.3-7-3.8-9.8c-1.5-2.7-3.2-4.7-5.2-6.1c-2-1.4-4.4-2.1-7.3-2.2c-3.3-0.1-4.9-0.2-8.1-0.3
			C694.2,109.8,697.7,129.6,701.1,149.4z"/>
		<path fill="#FFFFFF" d="M744.1,112.9c-1.5-7.1-2.5-14.5-2.4-21.8c0.2-6.3,1-11.5,2.6-15.6c1.6-4.1,3.6-7.3,6.2-9.5
			c2.6-2.2,5.2-2,8.3-2c3.1,0,6.5-0.2,10.1,2.1c3.6,2.3,7.2,5.7,10.7,10.2c4.1,5.4,7.3,11.3,10.2,17.3c3.6,7.6,6,15.9,8.2,24.2
			c9.7,39.7,19.4,79.4,29.2,119.1c1.7,7.7,3.4,15.4,3.2,23.4c-0.1,6.2-1.1,11.1-3,14.6c-1.9,3.5-4.5,5.7-7.6,6.7
			c-3.2,1-6.7,0.9-10.5-0.4c-3.8-1.2-7.8-3.6-12-6.9c-4.6-3.6-8.6-7.9-12.1-12.6c-4.2-5.5-7.5-11.5-10.5-17.7
			c-3.4-7.1-5.7-14.9-7.4-22.8C759.5,185.2,751.8,149,744.1,112.9z M785,225.6c1.3,6.1,3.5,12.2,7.2,17.1c3.2,4.1,6.5,6.7,9.8,7.7
			c3.3,1,5.8,0.1,7.4-2.8c1.6-2.9,1.5-8.1-0.3-15.7c-9.1-38.5-18.2-77.1-27.3-115.6c-1.4-6-3.4-12.2-7.1-17
			c-2.9-3.7-5.8-5.6-8.7-5.8c-2.9-0.2-5,1.5-6.3,4.8c-1.3,3.3-1.2,8.6,0.4,15.9C768.4,151.4,776.7,188.5,785,225.6z"/>
	</g>
</g>
<g id="The_Tab">
	<path d="M247.2,80.8c0.2-0.2,0.5-0.5,0.7-0.8c0.2-0.3,0.4-0.6,0.4-0.8c0-0.3-0.1-0.5-0.2-0.7c-0.1-0.2-0.3-0.3-0.4-0.3
		c-0.3,0-0.5,0.1-0.8,0.2c-0.2,0.1-0.4,0.2-0.5,0.4c-0.1,0.2-0.3,0.4-0.3,0.6c-0.1,0.2-0.2,0.5-0.3,0.8c-0.1,0.3-0.2,0.6-0.2,0.8
		c0,0.2,0,0.4,0,0.5c0.2,0,0.5-0.1,0.8-0.2C246.7,81.2,247,81,247.2,80.8z"/>
	<path d="M199.8,60.7L213.4,76l-15.7,16.2H261l6.4-31L199.8,60.7z M251.3,84.7c-0.3,0.2-0.6,0.4-0.9,0.6c-0.3,0.2-0.7,0.4-1.1,0.5
		c-0.4,0.2-0.8,0.3-1.2,0.4c-0.4,0.1-0.8,0.1-1.2,0.1c-0.6,0-1.2-0.1-1.7-0.4c-0.5-0.2-0.9-0.6-1.2-0.9c-0.2-0.2-0.3-0.4-0.4-0.7
		c-0.1,0.1-0.2,0.2-0.4,0.3c-0.2,0.1-0.4,0.3-0.6,0.4c-0.2,0.1-0.5,0.3-0.7,0.5c-0.3,0.2-0.5,0.3-0.8,0.4s-0.5,0.2-0.8,0.3
		c-0.3,0.1-0.5,0.1-0.8,0.1c-0.4,0-0.7-0.1-1-0.3c-0.3-0.2-0.5-0.4-0.7-0.7c-0.2-0.3-0.3-0.6-0.4-1c-0.1-0.3-0.1-0.7-0.1-1
		c0-0.2,0-0.5,0.1-0.7c0.1-0.3,0.1-0.5,0.2-0.8c0.1-0.3,0.2-0.5,0.3-0.8c0.1-0.3,0.2-0.5,0.3-0.7c0.1-0.2,0.2-0.4,0.2-0.5
		c0.1-0.1,0.1-0.2,0.1-0.2l-0.2,0c-0.1,0.1-0.3,0.3-0.6,0.6c-0.3,0.3-0.6,0.7-0.9,1.1c-0.3,0.5-0.7,1-1.1,1.6
		c-0.4,0.6-0.7,1.2-1,1.8c-0.1,0.3-0.3,0.6-0.4,0.8c-0.1,0.2-0.2,0.4-0.3,0.5c-0.1,0.1-0.2,0.2-0.3,0.3c-0.1,0.1-0.2,0.1-0.4,0.1
		c-0.2,0-0.4-0.1-0.5-0.2c-0.1-0.1-0.2-0.3-0.3-0.5s-0.1-0.4-0.1-0.7c0-0.3,0-0.5,0-0.8c0-0.5,0-1.1,0-1.8c0-0.8,0-1.6,0.1-2.5
		c0.1-0.9,0.2-1.9,0.3-2.9c0.1-1,0.3-2,0.4-2.9c0.1-0.9,0.3-1.8,0.6-2.7c-0.1,0-0.2,0-0.3,0c-0.6-0.1-1.2-0.1-1.8-0.2
		c-0.6-0.1-1.2-0.2-1.9-0.3c-0.7-0.1-1.3-0.1-2-0.2c-0.1,0.9-0.3,1.8-0.5,2.6c-0.2,0.9-0.5,1.8-0.7,2.7c-0.2,0.9-0.5,1.8-0.7,2.7
		s-0.5,1.8-0.7,2.6c-0.2,0.8-0.4,1.6-0.6,2.3c-0.2,0.7-0.3,1.3-0.5,1.8c-0.1,0.2-0.1,0.4-0.3,0.6c-0.1,0.2-0.2,0.4-0.4,0.5
		c-0.1,0.1-0.3,0.2-0.4,0.3c-0.2,0.1-0.3,0.1-0.4,0.1c-0.4,0-0.7-0.1-1-0.3c-0.3-0.2-0.4-0.5-0.4-0.9c0-0.1,0-0.3,0.1-0.4
		c0.1-0.6,0.3-1.2,0.4-1.8s0.3-1.2,0.5-1.9c0.2-0.7,0.4-1.3,0.6-2.1c0.3-0.7,0.5-1.5,0.8-2.4c0.3-0.9,0.6-1.8,1-2.9s0.7-2.3,1.2-3.6
		c-0.4,0-0.7,0.1-1.1,0.1c-0.4,0-0.7,0.1-1.1,0.1c-0.3,0.1-0.7,0.1-1,0.2c-0.3,0.1-0.6,0.2-0.9,0.4c-0.3,0.1-0.5,0.3-0.6,0.5
		c-0.2,0.2-0.2,0.4-0.2,0.7c0,0,0,0.1,0,0.2c0,0.1-0.1,0.3-0.2,0.5c-0.1,0.2-0.2,0.3-0.5,0.5c-0.2,0.1-0.5,0.2-0.9,0.2
		c-0.4,0-0.7-0.1-0.9-0.2c-0.2-0.1-0.4-0.3-0.5-0.4c-0.1-0.2-0.2-0.4-0.2-0.7c0-0.6,0.1-1.1,0.4-1.5c0.2-0.4,0.6-0.8,1-1.1
		c0.4-0.3,0.9-0.5,1.5-0.7c0.6-0.2,1.3-0.3,2-0.5c0.7-0.1,1.5-0.2,2.3-0.2c0.8,0,1.7-0.1,2.6-0.1c1.2,0,2.4,0,3.7,0.1
		c1.1,0.1,2.2,0.2,3.4,0.4c0.1-0.1,0.1-0.2,0.2-0.3c0.4-0.7,0.9-1.2,1.4-1.6c0.5-0.4,1.2-0.6,1.9-0.6c0.4,0,0.7,0.1,0.9,0.2
		c0.2,0.1,0.4,0.3,0.6,0.5c0.1,0.2,0.2,0.4,0.3,0.7c0.1,0.3,0.1,0.6,0.1,0.9c0,0.5-0.1,1.1-0.2,1.7c-0.1,0.6-0.3,1.3-0.6,1.9
		c-0.2,0.7-0.5,1.3-0.8,2c-0.3,0.7-0.6,1.3-0.9,2c-0.3,0.6-0.6,1.2-0.9,1.8c-0.3,0.6-0.6,1.1-0.8,1.5l0.2,0.1
		c0.3-0.4,0.6-0.8,0.9-1.2c0.3-0.4,0.8-0.9,1.4-1.5c0.6-0.6,1.1-1,1.4-1.2c0.4-0.2,0.7-0.4,1-0.4c0.1,0,0.2,0,0.3,0
		c0.1,0,0.2,0.1,0.3,0.2c0.1,0.1,0.2,0.2,0.2,0.3c0.1,0.1,0.1,0.3,0.1,0.6c0,0.5-0.1,0.9-0.2,1.4c-0.1,0.4-0.4,1-0.7,1.6
		c-0.4,0.6-0.6,1.2-0.7,1.6c-0.1,0.5-0.2,0.9-0.2,1.5c0,0.3,0,0.5,0.1,0.7c0.1,0.2,0.2,0.2,0.3,0.2c0.2,0,0.3,0,0.5-0.1
		c0.2-0.1,0.4-0.2,0.5-0.3s0.4-0.2,0.5-0.4c0.2-0.1,0.3-0.3,0.5-0.4c0.2-0.2,0.5-0.5,0.7-0.7c0,0,0,0,0-0.1c0-0.4,0.1-0.8,0.2-1.3
		c0.1-0.5,0.3-1,0.4-1.4c0.2-0.4,0.3-0.8,0.6-1.1c0.2-0.4,0.5-0.7,0.8-1c0.3-0.3,0.7-0.5,1-0.7c0.4-0.2,0.8-0.2,1.3-0.2
		c0.4,0,0.7,0.1,1.1,0.2s0.6,0.3,0.9,0.5c0.2,0.2,0.4,0.5,0.6,0.8c0.1,0.3,0.2,0.7,0.2,1c0,0.4-0.1,0.9-0.4,1.4
		c-0.3,0.5-0.6,0.9-1,1.3c-0.4,0.4-0.8,0.7-1.3,1c-0.5,0.3-1.1,0.5-1.6,0.7c0.1,0.2,0.2,0.3,0.3,0.4c0.1,0.1,0.2,0.2,0.3,0.3
		c0.1,0.1,0.2,0.1,0.3,0.1c0.1,0,0.2,0,0.4,0c0.4,0,0.8-0.1,1.3-0.2c0.5-0.2,0.9-0.4,1.3-0.6c0.4-0.2,0.8-0.5,1.2-0.8
		c0.4-0.3,0.7-0.5,1-0.8l1.3,1.3C252.7,83.6,252,84.2,251.3,84.7z"/>
	<path d="M236.6,74.8c0.2-0.4,0.3-0.8,0.5-1.1c0.4-1,0.7-1.9,0.9-2.6c0.2-0.7,0.3-1.2,0.3-1.6c0-0.5-0.1-0.8-0.2-0.8
		c-0.2,0-0.4,0.3-0.8,0.9c-0.3,0.6-0.8,1.4-1.2,2.5c-0.1,0.4-0.2,0.8-0.3,1.2c-0.1,0.4-0.2,0.8-0.2,1.2c-0.1,0.4-0.1,0.8-0.2,1.2
		c-0.1,0.4-0.1,0.7-0.2,1.1c-0.1,0.8-0.3,1.6-0.3,2.4c0.2-0.4,0.4-0.9,0.6-1.4c0.2-0.5,0.4-1,0.6-1.5
		C236.2,75.7,236.4,75.3,236.6,74.8z"/>
</g>
<g id="The">
	<path fill="#FFFFFF" d="M218,72.8c0-0.6,0.1-1.1,0.4-1.5c0.2-0.4,0.6-0.8,1-1.1c0.4-0.3,0.9-0.5,1.5-0.7c0.6-0.2,1.3-0.3,2-0.5
		c0.7-0.1,1.5-0.2,2.3-0.2c0.8,0,1.7-0.1,2.6-0.1c1.2,0,2.4,0,3.7,0.1c1.3,0.1,2.6,0.2,4,0.5c0.3,0.1,0.6,0.2,0.7,0.3
		c0.1,0.2,0.2,0.3,0.2,0.5c0,0.1,0,0.3-0.1,0.4c-0.1,0.1-0.1,0.3-0.2,0.4c-0.1,0.1-0.2,0.2-0.4,0.3c-0.1,0.1-0.3,0.1-0.4,0.1
		c-0.5,0-1.1,0-1.6-0.1c-0.6-0.1-1.2-0.1-1.8-0.2c-0.6-0.1-1.2-0.2-1.9-0.3c-0.7-0.1-1.3-0.1-2-0.2c-0.1,0.9-0.3,1.8-0.5,2.6
		c-0.2,0.9-0.5,1.8-0.7,2.7c-0.2,0.9-0.5,1.8-0.7,2.7s-0.5,1.8-0.7,2.6c-0.2,0.8-0.4,1.6-0.6,2.3c-0.2,0.7-0.3,1.3-0.5,1.8
		c-0.1,0.2-0.1,0.4-0.3,0.6c-0.1,0.2-0.2,0.4-0.4,0.5c-0.1,0.1-0.3,0.2-0.4,0.3c-0.2,0.1-0.3,0.1-0.4,0.1c-0.4,0-0.7-0.1-1-0.3
		c-0.3-0.2-0.4-0.5-0.4-0.9c0-0.1,0-0.3,0.1-0.4c0.1-0.6,0.3-1.2,0.4-1.8s0.3-1.2,0.5-1.9c0.2-0.7,0.4-1.3,0.6-2.1
		c0.3-0.7,0.5-1.5,0.8-2.4c0.3-0.9,0.6-1.8,1-2.9s0.7-2.3,1.2-3.6c-0.4,0-0.7,0.1-1.1,0.1c-0.4,0-0.7,0.1-1.1,0.1
		c-0.3,0.1-0.7,0.1-1,0.2c-0.3,0.1-0.6,0.2-0.9,0.4c-0.3,0.1-0.5,0.3-0.6,0.5c-0.2,0.2-0.2,0.4-0.2,0.7c0,0,0,0.1,0,0.2
		c0,0.1-0.1,0.3-0.2,0.5c-0.1,0.2-0.2,0.3-0.5,0.5c-0.2,0.1-0.5,0.2-0.9,0.2c-0.4,0-0.7-0.1-0.9-0.2c-0.2-0.1-0.4-0.3-0.5-0.4
		C218.1,73.3,218,73,218,72.8z"/>
	<path fill="#FFFFFF" d="M236.1,80.1c0.3-0.4,0.6-0.8,0.9-1.2c0.3-0.4,0.8-0.9,1.4-1.5c0.6-0.6,1.1-1,1.4-1.2c0.4-0.2,0.7-0.4,1-0.4
		c0.1,0,0.2,0,0.3,0c0.1,0,0.2,0.1,0.3,0.2c0.1,0.1,0.2,0.2,0.2,0.3c0.1,0.1,0.1,0.3,0.1,0.6c0,0.5-0.1,0.9-0.2,1.4
		c-0.1,0.4-0.4,1-0.7,1.6c-0.4,0.6-0.6,1.2-0.7,1.6c-0.1,0.5-0.2,0.9-0.2,1.5c0,0.3,0,0.5,0.1,0.7c0.1,0.2,0.2,0.2,0.3,0.2
		c0.2,0,0.3,0,0.5-0.1c0.2-0.1,0.4-0.2,0.5-0.3s0.4-0.2,0.5-0.4c0.2-0.1,0.3-0.3,0.5-0.4c0.4-0.3,0.7-0.7,1.1-1.2l0.2,2.7
		c-0.1,0.1-0.3,0.2-0.5,0.3c-0.2,0.1-0.4,0.3-0.6,0.4c-0.2,0.1-0.5,0.3-0.7,0.5c-0.3,0.2-0.5,0.3-0.8,0.4s-0.5,0.2-0.8,0.3
		c-0.3,0.1-0.5,0.1-0.8,0.1c-0.4,0-0.7-0.1-1-0.3c-0.3-0.2-0.5-0.4-0.7-0.7c-0.2-0.3-0.3-0.6-0.4-1c-0.1-0.3-0.1-0.7-0.1-1
		c0-0.2,0-0.5,0.1-0.7c0.1-0.3,0.1-0.5,0.2-0.8c0.1-0.3,0.2-0.5,0.3-0.8c0.1-0.3,0.2-0.5,0.3-0.7c0.1-0.2,0.2-0.4,0.2-0.5
		c0.1-0.1,0.1-0.2,0.1-0.2l-0.2,0c-0.1,0.1-0.3,0.3-0.6,0.6c-0.3,0.3-0.6,0.7-0.9,1.1c-0.3,0.5-0.7,1-1.1,1.6
		c-0.4,0.6-0.7,1.2-1,1.8c-0.1,0.3-0.3,0.6-0.4,0.8c-0.1,0.2-0.2,0.4-0.3,0.5c-0.1,0.1-0.2,0.2-0.3,0.3c-0.1,0.1-0.2,0.1-0.4,0.1
		c-0.2,0-0.4-0.1-0.5-0.2c-0.1-0.1-0.2-0.3-0.3-0.5s-0.1-0.4-0.1-0.7c0-0.3,0-0.5,0-0.8c0-0.5,0-1.1,0-1.8c0-0.8,0-1.6,0.1-2.5
		c0.1-0.9,0.2-1.9,0.3-2.9c0.1-1,0.3-2,0.4-2.9c0.1-1,0.4-1.9,0.6-2.8c0.3-0.9,0.6-1.7,1-2.3c0.4-0.7,0.9-1.2,1.4-1.6
		c0.5-0.4,1.2-0.6,1.9-0.6c0.4,0,0.7,0.1,0.9,0.2c0.2,0.1,0.4,0.3,0.6,0.5c0.1,0.2,0.2,0.4,0.3,0.7c0.1,0.3,0.1,0.6,0.1,0.9
		c0,0.5-0.1,1.1-0.2,1.7c-0.1,0.6-0.3,1.3-0.6,1.9c-0.2,0.7-0.5,1.3-0.8,2c-0.3,0.7-0.6,1.3-0.9,2c-0.3,0.6-0.6,1.2-0.9,1.8
		c-0.3,0.6-0.6,1.1-0.8,1.5L236.1,80.1z M237,73.7c0.4-1,0.7-1.9,0.9-2.6c0.2-0.7,0.3-1.2,0.3-1.6c0-0.5-0.1-0.8-0.2-0.8
		c-0.2,0-0.4,0.3-0.8,0.9c-0.3,0.6-0.8,1.4-1.2,2.5c-0.1,0.4-0.2,0.8-0.3,1.2c-0.1,0.4-0.2,0.8-0.2,1.2c-0.1,0.4-0.1,0.8-0.2,1.2
		c-0.1,0.4-0.1,0.7-0.2,1.1c-0.1,0.8-0.3,1.6-0.3,2.4c0.2-0.4,0.4-0.9,0.6-1.4c0.2-0.5,0.4-1,0.6-1.5c0.2-0.5,0.4-1,0.6-1.4
		C236.8,74.4,236.9,74,237,73.7z"/>
	<path fill="#FFFFFF" d="M247,86.3c-0.6,0-1.2-0.1-1.7-0.4c-0.5-0.2-0.9-0.6-1.2-0.9c-0.3-0.4-0.6-0.9-0.7-1.4
		c-0.2-0.5-0.2-1.1-0.2-1.6c0-0.4,0.1-0.8,0.2-1.3c0.1-0.5,0.3-1,0.4-1.4c0.2-0.4,0.3-0.8,0.6-1.1c0.2-0.4,0.5-0.7,0.8-1
		c0.3-0.3,0.7-0.5,1-0.7c0.4-0.2,0.8-0.2,1.3-0.2c0.4,0,0.7,0.1,1.1,0.2s0.6,0.3,0.9,0.5c0.2,0.2,0.4,0.5,0.6,0.8
		c0.1,0.3,0.2,0.7,0.2,1c0,0.4-0.1,0.9-0.4,1.4c-0.3,0.5-0.6,0.9-1,1.3c-0.4,0.4-0.8,0.7-1.3,1c-0.5,0.3-1.1,0.5-1.6,0.7
		c0.1,0.2,0.2,0.3,0.3,0.4c0.1,0.1,0.2,0.2,0.3,0.3c0.1,0.1,0.2,0.1,0.3,0.1c0.1,0,0.2,0,0.4,0c0.4,0,0.8-0.1,1.3-0.2
		c0.5-0.2,0.9-0.4,1.3-0.6c0.4-0.2,0.8-0.5,1.2-0.8c0.4-0.3,0.7-0.5,1-0.8l1.3,1.3c-0.6,0.6-1.2,1.2-1.9,1.7
		c-0.3,0.2-0.6,0.4-0.9,0.6c-0.3,0.2-0.7,0.4-1.1,0.5c-0.4,0.2-0.8,0.3-1.2,0.4C247.8,86.3,247.4,86.3,247,86.3z M245.6,81.5
		c0.2,0,0.5-0.1,0.8-0.2c0.3-0.1,0.6-0.3,0.8-0.5c0.2-0.2,0.5-0.5,0.7-0.8c0.2-0.3,0.4-0.6,0.4-0.8c0-0.3-0.1-0.5-0.2-0.7
		c-0.1-0.2-0.3-0.3-0.4-0.3c-0.3,0-0.5,0.1-0.8,0.2c-0.2,0.1-0.4,0.2-0.5,0.4c-0.1,0.2-0.3,0.4-0.3,0.6c-0.1,0.2-0.2,0.5-0.3,0.8
		c-0.1,0.3-0.2,0.6-0.2,0.8C245.6,81.2,245.6,81.3,245.6,81.5z"/>
</g>
<g display="none">
</g>
<text transform="matrix(1 0 0 1 27.8501 267.85)" fill="#FFFFFF" font-family="'AvenirNext-DemiBold'" font-size="37px">9</text>
<text transform="matrix(1 0 0 1 12.95 268.0187)" fill="#FFFFFF" font-family="'AvenirNext-DemiBold'" font-size="25px">#</text>
</svg>
